<svg width="1440" height="62" viewBox="0 0 1440 62" fill="none" xmlns="http://www.w3.org/2000/svg">
<g clip-path="url(#clip0_157_3711)">
<mask id="path-1-inside-1_157_3711" fill="white">
<path d="M0 0H1440V62H0V0Z"/>
</mask>
<path d="M0 0H1440V62H0V0Z" fill="#0E0E10"/>
<path d="M-8.52 36.5V26.42H-2.22V27.407H-7.491V30.893H-3.06V31.88H-7.491V35.513H-2.22V36.5H-8.52ZM2.02638 36.5L-1.44562 26.42H-0.374625L2.69838 35.331L5.79238 26.42H6.86338L3.39138 36.5H2.02638ZM7.91359 36.5V26.42H14.2136V27.407H8.94259V30.893H13.3736V31.88H8.94259V35.513H14.2136V36.5H7.91359ZM15.898 36.5V26.42H16.934L22.485 34.68V26.42H23.521V36.5H22.485L16.934 28.233V36.5H15.898ZM28.163 36.5V27.407H24.642V26.42H32.713V27.407H29.192V36.5H28.163ZM36.2144 36.5V26.42H40.1064C40.2044 26.42 40.314 26.4247 40.4354 26.434C40.5614 26.4387 40.6874 26.4527 40.8134 26.476C41.3407 26.5553 41.7864 26.7397 42.1504 27.029C42.519 27.3137 42.7967 27.673 42.9834 28.107C43.1747 28.541 43.2704 29.0217 43.2704 29.549C43.2704 30.0717 43.1747 30.55 42.9834 30.984C42.792 31.418 42.512 31.7797 42.1434 32.069C41.7794 32.3537 41.336 32.5357 40.8134 32.615C40.6874 32.6337 40.5614 32.6477 40.4354 32.657C40.314 32.6663 40.2044 32.671 40.1064 32.671H37.2434V36.5H36.2144ZM37.2434 31.691H40.0784C40.1624 31.691 40.2604 31.6863 40.3724 31.677C40.4844 31.6677 40.594 31.6513 40.7014 31.628C41.0467 31.5533 41.329 31.411 41.5484 31.201C41.7724 30.991 41.938 30.7413 42.0454 30.452C42.1574 30.1627 42.2134 29.8617 42.2134 29.549C42.2134 29.2363 42.1574 28.9353 42.0454 28.646C41.938 28.352 41.7724 28.1 41.5484 27.89C41.329 27.68 41.0467 27.5377 40.7014 27.463C40.594 27.4397 40.4844 27.4257 40.3724 27.421C40.2604 27.4117 40.1624 27.407 40.0784 27.407H37.2434V31.691ZM44.6636 36.5V26.42H45.6926V30.963H51.2646V26.42H52.2866V36.5H51.2646V31.95H45.6926V36.5H44.6636ZM58.3286 36.71C57.3252 36.71 56.4782 36.4883 55.7876 36.045C55.0969 35.597 54.5742 34.9787 54.2196 34.19C53.8649 33.4013 53.6876 32.4913 53.6876 31.46C53.6876 30.4287 53.8649 29.5187 54.2196 28.73C54.5742 27.9413 55.0969 27.3253 55.7876 26.882C56.4782 26.434 57.3252 26.21 58.3286 26.21C59.3366 26.21 60.1836 26.434 60.8696 26.882C61.5602 27.3253 62.0829 27.9413 62.4376 28.73C62.7969 29.5187 62.9766 30.4287 62.9766 31.46C62.9766 32.4913 62.7969 33.4013 62.4376 34.19C62.0829 34.9787 61.5602 35.597 60.8696 36.045C60.1836 36.4883 59.3366 36.71 58.3286 36.71ZM58.3286 35.723C59.1172 35.723 59.7752 35.5433 60.3026 35.184C60.8299 34.8247 61.2242 34.3253 61.4856 33.686C61.7516 33.042 61.8846 32.3 61.8846 31.46C61.8846 30.62 61.7516 29.8803 61.4856 29.241C61.2242 28.6017 60.8299 28.1023 60.3026 27.743C59.7752 27.3837 59.1172 27.2017 58.3286 27.197C57.5399 27.197 56.8842 27.3767 56.3616 27.736C55.8389 28.0953 55.4446 28.597 55.1786 29.241C54.9172 29.8803 54.7842 30.62 54.7796 31.46C54.7749 32.3 54.9032 33.0397 55.1646 33.679C55.4306 34.3137 55.8272 34.813 56.3546 35.177C56.8819 35.5363 57.5399 35.7183 58.3286 35.723ZM66.786 36.5V27.407H63.265V26.42H71.336V27.407H67.815V36.5H66.786ZM76.5395 36.71C75.5362 36.71 74.6892 36.4883 73.9985 36.045C73.3078 35.597 72.7852 34.9787 72.4305 34.19C72.0758 33.4013 71.8985 32.4913 71.8985 31.46C71.8985 30.4287 72.0758 29.5187 72.4305 28.73C72.7852 27.9413 73.3078 27.3253 73.9985 26.882C74.6892 26.434 75.5362 26.21 76.5395 26.21C77.5475 26.21 78.3945 26.434 79.0805 26.882C79.7712 27.3253 80.2938 27.9413 80.6485 28.73C81.0078 29.5187 81.1875 30.4287 81.1875 31.46C81.1875 32.4913 81.0078 33.4013 80.6485 34.19C80.2938 34.9787 79.7712 35.597 79.0805 36.045C78.3945 36.4883 77.5475 36.71 76.5395 36.71ZM76.5395 35.723C77.3282 35.723 77.9862 35.5433 78.5135 35.184C79.0408 34.8247 79.4352 34.3253 79.6965 33.686C79.9625 33.042 80.0955 32.3 80.0955 31.46C80.0955 30.62 79.9625 29.8803 79.6965 29.241C79.4352 28.6017 79.0408 28.1023 78.5135 27.743C77.9862 27.3837 77.3282 27.2017 76.5395 27.197C75.7508 27.197 75.0952 27.3767 74.5725 27.736C74.0498 28.0953 73.6555 28.597 73.3895 29.241C73.1282 29.8803 72.9952 30.62 72.9905 31.46C72.9858 32.3 73.1142 33.0397 73.3755 33.679C73.6415 34.3137 74.0382 34.813 74.5655 35.177C75.0928 35.5363 75.7508 35.7183 76.5395 35.723ZM86.6284 36.71C85.919 36.71 85.2797 36.5863 84.7104 36.339C84.141 36.0917 83.6557 35.7393 83.2544 35.282C82.8577 34.8247 82.5544 34.274 82.3444 33.63C82.1344 32.9813 82.0294 32.258 82.0294 31.46C82.0294 30.4053 82.2114 29.486 82.5754 28.702C82.944 27.9133 83.4714 27.302 84.1574 26.868C84.8434 26.434 85.667 26.217 86.6284 26.217C87.7017 26.217 88.5744 26.469 89.2464 26.973C89.923 27.4723 90.3944 28.1443 90.6604 28.989L89.6244 29.241C89.405 28.625 89.0434 28.1327 88.5394 27.764C88.04 27.3953 87.417 27.211 86.6704 27.211C85.8817 27.2063 85.226 27.3837 84.7034 27.743C84.1807 28.0977 83.7864 28.597 83.5204 29.241C83.259 29.8803 83.126 30.62 83.1214 31.46C83.1167 32.3 83.245 33.0397 83.5064 33.679C83.7724 34.3137 84.169 34.813 84.6964 35.177C85.2237 35.5363 85.8817 35.7183 86.6704 35.723C87.3937 35.723 87.991 35.583 88.4624 35.303C88.9337 35.023 89.2907 34.6217 89.5334 34.099C89.7807 33.5763 89.9207 32.958 89.9534 32.244H87.6294V31.362H91.0314C91.0454 31.4693 91.0524 31.5837 91.0524 31.705C91.057 31.8217 91.0594 31.9057 91.0594 31.957C91.0594 32.867 90.896 33.6813 90.5694 34.4C90.2427 35.114 89.7504 35.6787 89.0924 36.094C88.439 36.5047 87.6177 36.71 86.6284 36.71ZM92.4605 36.5V26.42H96.3525C96.4505 26.42 96.5601 26.4247 96.6815 26.434C96.8075 26.4387 96.9335 26.4527 97.0595 26.476C97.5868 26.5553 98.0325 26.7397 98.3965 27.029C98.7651 27.3137 99.0428 27.673 99.2295 28.107C99.4208 28.541 99.5165 29.0217 99.5165 29.549C99.5165 30.3097 99.3158 30.97 98.9145 31.53C98.5131 32.09 97.9391 32.4423 97.1925 32.587L96.8355 32.671H93.4895V36.5H92.4605ZM98.5645 36.5L96.5765 32.398L97.5635 32.02L99.7475 36.5H98.5645ZM93.4895 31.691H96.3245C96.4085 31.691 96.5065 31.6863 96.6185 31.677C96.7305 31.6677 96.8401 31.6513 96.9475 31.628C97.2928 31.5533 97.5751 31.411 97.7945 31.201C98.0185 30.991 98.1841 30.7413 98.2915 30.452C98.4035 30.1627 98.4595 29.8617 98.4595 29.549C98.4595 29.2363 98.4035 28.9353 98.2915 28.646C98.1841 28.352 98.0185 28.1 97.7945 27.89C97.5751 27.68 97.2928 27.5377 96.9475 27.463C96.8401 27.4397 96.7305 27.4257 96.6185 27.421C96.5065 27.4117 96.4085 27.407 96.3245 27.407H93.4895V31.691ZM100.593 36.5L104.065 26.42H105.43L108.902 36.5H107.831L104.534 26.994H104.94L101.664 36.5H100.593ZM102.14 34.057V33.091H107.347V34.057H102.14ZM110.166 36.5V26.42H114.058C114.156 26.42 114.265 26.4247 114.387 26.434C114.513 26.4387 114.639 26.4527 114.765 26.476C115.292 26.5553 115.738 26.7397 116.102 27.029C116.47 27.3137 116.748 27.673 116.935 28.107C117.126 28.541 117.222 29.0217 117.222 29.549C117.222 30.0717 117.126 30.55 116.935 30.984C116.743 31.418 116.463 31.7797 116.095 32.069C115.731 32.3537 115.287 32.5357 114.765 32.615C114.639 32.6337 114.513 32.6477 114.387 32.657C114.265 32.6663 114.156 32.671 114.058 32.671H111.195V36.5H110.166ZM111.195 31.691H114.03C114.114 31.691 114.212 31.6863 114.324 31.677C114.436 31.6677 114.545 31.6513 114.653 31.628C114.998 31.5533 115.28 31.411 115.5 31.201C115.724 30.991 115.889 30.7413 115.997 30.452C116.109 30.1627 116.165 29.8617 116.165 29.549C116.165 29.2363 116.109 28.9353 115.997 28.646C115.889 28.352 115.724 28.1 115.5 27.89C115.28 27.68 114.998 27.5377 114.653 27.463C114.545 27.4397 114.436 27.4257 114.324 27.421C114.212 27.4117 114.114 27.407 114.03 27.407H111.195V31.691ZM118.615 36.5V26.42H119.644V30.963H125.216V26.42H126.238V36.5H125.216V31.95H119.644V36.5H118.615ZM130.6 36.5V32.279L127.219 26.42H128.409L131.118 31.103L133.813 26.42H135.003L131.636 32.279V36.5H130.6Z" fill="#D7D0FB"/>
<g clip-path="url(#clip1_157_3711)">
<mask id="mask0_157_3711" style="mask-type:luminance" maskUnits="userSpaceOnUse" x="151" y="16" width="31" height="30">
<path d="M181.5 16H151.5V46H181.5V16Z" fill="white"/>
</mask>
<g mask="url(#mask0_157_3711)">
<path fill-rule="evenodd" clip-rule="evenodd" d="M179.841 31C180.415 31 180.972 30.9229 181.5 30.7785C181.08 30.6899 180.644 30.6433 180.198 30.6433H172.778C171.553 30.6433 170.409 30.2922 169.443 29.685C169.654 28.4484 170.237 27.263 171.192 26.3084L175.934 21.5664C176.34 21.1604 176.678 20.7125 176.95 20.2368C176.59 20.4712 176.249 20.7462 175.934 21.0619L170.687 26.3084C169.821 27.175 168.764 27.7353 167.651 27.9893C166.926 26.9655 166.5 25.7151 166.5 24.3651V17.6589C166.5 17.0847 166.423 16.5284 166.279 16C166.19 16.4201 166.143 16.8557 166.143 17.3022V24.7218C166.143 25.9473 165.792 27.0908 165.185 28.0572C163.948 27.8459 162.763 27.263 161.808 26.3084L157.066 21.5664C156.66 21.1604 156.213 20.8216 155.737 20.55C155.971 20.9097 156.246 21.2507 156.562 21.5664L161.808 26.8129C162.675 27.6795 163.235 28.7363 163.489 29.8489C162.465 30.5739 161.215 31 159.865 31H153.159C152.585 31 152.028 31.0771 151.5 31.2215C151.92 31.3101 152.356 31.3567 152.802 31.3567H160.222C161.447 31.3567 162.591 31.7079 163.557 32.3151C163.346 33.5515 162.763 34.7369 161.808 35.6915L157.066 40.4337C156.66 40.8397 156.322 41.2875 156.05 41.7633C156.41 41.5288 156.751 41.2537 157.066 40.9381L162.313 35.6915C163.179 34.825 164.236 34.2648 165.349 34.0107C166.074 35.0345 166.5 36.285 166.5 37.635V44.3412C166.5 44.9153 166.577 45.4716 166.722 46C166.81 45.5799 166.857 45.1443 166.857 44.6979V37.2781C166.857 36.0526 167.208 34.9092 167.815 33.9429C169.052 34.1541 170.237 34.7369 171.192 35.6915L175.934 40.4337C176.34 40.8397 176.787 41.1784 177.263 41.4501C177.029 41.0902 176.754 40.7493 176.438 40.4337L171.192 35.1871C170.325 34.3206 169.765 33.2637 169.511 32.1511C170.535 31.426 171.785 31 173.135 31H179.841Z" fill="#AFA1F7"/>
</g>
</g>
<path d="M192.561 36.71C191.558 36.71 190.711 36.4883 190.02 36.045C189.329 35.597 188.807 34.9787 188.452 34.19C188.097 33.4013 187.92 32.4913 187.92 31.46C187.92 30.4287 188.097 29.5187 188.452 28.73C188.807 27.9413 189.329 27.3253 190.02 26.882C190.711 26.434 191.558 26.21 192.561 26.21C193.732 26.21 194.689 26.511 195.431 27.113C196.173 27.7103 196.682 28.513 196.957 29.521L195.907 29.794C195.692 28.996 195.307 28.3637 194.752 27.897C194.197 27.4303 193.466 27.197 192.561 27.197C191.772 27.197 191.117 27.3767 190.594 27.736C190.071 28.0953 189.677 28.597 189.411 29.241C189.15 29.8803 189.014 30.62 189.005 31.46C189 32.3 189.129 33.0397 189.39 33.679C189.656 34.3183 190.053 34.82 190.58 35.184C191.112 35.5433 191.772 35.723 192.561 35.723C193.466 35.723 194.197 35.4897 194.752 35.023C195.307 34.5517 195.692 33.9193 195.907 33.126L196.957 33.399C196.682 34.407 196.173 35.212 195.431 35.814C194.689 36.4113 193.732 36.71 192.561 36.71ZM202.582 36.71C201.579 36.71 200.732 36.4883 200.041 36.045C199.351 35.597 198.828 34.9787 198.473 34.19C198.119 33.4013 197.941 32.4913 197.941 31.46C197.941 30.4287 198.119 29.5187 198.473 28.73C198.828 27.9413 199.351 27.3253 200.041 26.882C200.732 26.434 201.579 26.21 202.582 26.21C203.59 26.21 204.437 26.434 205.123 26.882C205.814 27.3253 206.337 27.9413 206.691 28.73C207.051 29.5187 207.23 30.4287 207.23 31.46C207.23 32.4913 207.051 33.4013 206.691 34.19C206.337 34.9787 205.814 35.597 205.123 36.045C204.437 36.4883 203.59 36.71 202.582 36.71ZM202.582 35.723C203.371 35.723 204.029 35.5433 204.556 35.184C205.084 34.8247 205.478 34.3253 205.739 33.686C206.005 33.042 206.138 32.3 206.138 31.46C206.138 30.62 206.005 29.8803 205.739 29.241C205.478 28.6017 205.084 28.1023 204.556 27.743C204.029 27.3837 203.371 27.2017 202.582 27.197C201.794 27.197 201.138 27.3767 200.615 27.736C200.093 28.0953 199.698 28.597 199.432 29.241C199.171 29.8803 199.038 30.62 199.033 31.46C199.029 32.3 199.157 33.0397 199.418 33.679C199.684 34.3137 200.081 34.813 200.608 35.177C201.136 35.5363 201.794 35.7183 202.582 35.723ZM208.632 36.5V26.42H209.577L213.539 34.897L217.48 26.42H218.439V36.493H217.459V28.716L213.868 36.5H213.203L209.619 28.716V36.5H208.632ZM220.404 36.5V26.42H226.704V27.407H221.433V30.893H225.864V31.88H221.433V35.513H226.704V36.5H220.404ZM228.388 36.5V26.42H232.28C232.378 26.42 232.488 26.4247 232.609 26.434C232.735 26.4387 232.861 26.4527 232.987 26.476C233.515 26.5553 233.96 26.7397 234.324 27.029C234.693 27.3137 234.971 27.673 235.157 28.107C235.349 28.541 235.444 29.0217 235.444 29.549C235.444 30.3097 235.244 30.97 234.842 31.53C234.441 32.09 233.867 32.4423 233.12 32.587L232.763 32.671H229.417V36.5H228.388ZM234.492 36.5L232.504 32.398L233.491 32.02L235.675 36.5H234.492ZM229.417 31.691H232.252C232.336 31.691 232.434 31.6863 232.546 31.677C232.658 31.6677 232.768 31.6513 232.875 31.628C233.221 31.5533 233.503 31.411 233.722 31.201C233.946 30.991 234.112 30.7413 234.219 30.452C234.331 30.1627 234.387 29.8617 234.387 29.549C234.387 29.2363 234.331 28.9353 234.219 28.646C234.112 28.352 233.946 28.1 233.722 27.89C233.503 27.68 233.221 27.5377 232.875 27.463C232.768 27.4397 232.658 27.4257 232.546 27.421C232.434 27.4117 232.336 27.407 232.252 27.407H229.417V31.691ZM241.165 36.71C240.161 36.71 239.314 36.4883 238.624 36.045C237.933 35.597 237.41 34.9787 237.056 34.19C236.701 33.4013 236.524 32.4913 236.524 31.46C236.524 30.4287 236.701 29.5187 237.056 28.73C237.41 27.9413 237.933 27.3253 238.624 26.882C239.314 26.434 240.161 26.21 241.165 26.21C242.336 26.21 243.293 26.511 244.035 27.113C244.777 27.7103 245.285 28.513 245.561 29.521L244.511 29.794C244.296 28.996 243.911 28.3637 243.356 27.897C242.8 27.4303 242.07 27.197 241.165 27.197C240.376 27.197 239.72 27.3767 239.198 27.736C238.675 28.0953 238.281 28.597 238.015 29.241C237.753 29.8803 237.618 30.62 237.609 31.46C237.604 32.3 237.732 33.0397 237.994 33.679C238.26 34.3183 238.656 34.82 239.184 35.184C239.716 35.5433 240.376 35.723 241.165 35.723C242.07 35.723 242.8 35.4897 243.356 35.023C243.911 34.5517 244.296 33.9193 244.511 33.126L245.561 33.399C245.285 34.407 244.777 35.212 244.035 35.814C243.293 36.4113 242.336 36.71 241.165 36.71ZM247.245 36.5V26.42H248.274V36.5H247.245ZM249.673 36.5L253.145 26.42H254.51L257.982 36.5H256.911L253.614 26.994H254.02L250.744 36.5H249.673ZM251.22 34.057V33.091H256.428V34.057H251.22ZM259.386 36.5V26.42H260.415V35.513H265.203V36.5H259.386ZM268.501 36.5V26.42H272.393C272.491 26.42 272.601 26.4247 272.722 26.434C272.848 26.4387 272.974 26.4527 273.1 26.476C273.628 26.5553 274.073 26.7397 274.437 27.029C274.806 27.3137 275.084 27.673 275.27 28.107C275.462 28.541 275.557 29.0217 275.557 29.549C275.557 30.0717 275.462 30.55 275.27 30.984C275.079 31.418 274.799 31.7797 274.43 32.069C274.066 32.3537 273.623 32.5357 273.1 32.615C272.974 32.6337 272.848 32.6477 272.722 32.657C272.601 32.6663 272.491 32.671 272.393 32.671H269.53V36.5H268.501ZM269.53 31.691H272.365C272.449 31.691 272.547 31.6863 272.659 31.677C272.771 31.6677 272.881 31.6513 272.988 31.628C273.334 31.5533 273.616 31.411 273.835 31.201C274.059 30.991 274.225 30.7413 274.332 30.452C274.444 30.1627 274.5 29.8617 274.5 29.549C274.5 29.2363 274.444 28.9353 274.332 28.646C274.225 28.352 274.059 28.1 273.835 27.89C273.616 27.68 273.334 27.5377 272.988 27.463C272.881 27.4397 272.771 27.4257 272.659 27.421C272.547 27.4117 272.449 27.407 272.365 27.407H269.53V31.691ZM276.951 36.5V26.42H277.98V30.963H283.552V26.42H284.574V36.5H283.552V31.95H277.98V36.5H276.951ZM290.616 36.71C289.612 36.71 288.765 36.4883 288.075 36.045C287.384 35.597 286.861 34.9787 286.507 34.19C286.152 33.4013 285.975 32.4913 285.975 31.46C285.975 30.4287 286.152 29.5187 286.507 28.73C286.861 27.9413 287.384 27.3253 288.075 26.882C288.765 26.434 289.612 26.21 290.616 26.21C291.624 26.21 292.471 26.434 293.157 26.882C293.847 27.3253 294.37 27.9413 294.725 28.73C295.084 29.5187 295.264 30.4287 295.264 31.46C295.264 32.4913 295.084 33.4013 294.725 34.19C294.37 34.9787 293.847 35.597 293.157 36.045C292.471 36.4883 291.624 36.71 290.616 36.71ZM290.616 35.723C291.404 35.723 292.062 35.5433 292.59 35.184C293.117 34.8247 293.511 34.3253 293.773 33.686C294.039 33.042 294.172 32.3 294.172 31.46C294.172 30.62 294.039 29.8803 293.773 29.241C293.511 28.6017 293.117 28.1023 292.59 27.743C292.062 27.3837 291.404 27.2017 290.616 27.197C289.827 27.197 289.171 27.3767 288.649 27.736C288.126 28.0953 287.732 28.597 287.466 29.241C287.204 29.8803 287.071 30.62 287.067 31.46C287.062 32.3 287.19 33.0397 287.452 33.679C287.718 34.3137 288.114 34.813 288.642 35.177C289.169 35.5363 289.827 35.7183 290.616 35.723ZM299.073 36.5V27.407H295.552V26.42H303.623V27.407H300.102V36.5H299.073ZM308.827 36.71C307.823 36.71 306.976 36.4883 306.286 36.045C305.595 35.597 305.072 34.9787 304.718 34.19C304.363 33.4013 304.186 32.4913 304.186 31.46C304.186 30.4287 304.363 29.5187 304.718 28.73C305.072 27.9413 305.595 27.3253 306.286 26.882C306.976 26.434 307.823 26.21 308.827 26.21C309.835 26.21 310.682 26.434 311.368 26.882C312.058 27.3253 312.581 27.9413 312.936 28.73C313.295 29.5187 313.475 30.4287 313.475 31.46C313.475 32.4913 313.295 33.4013 312.936 34.19C312.581 34.9787 312.058 35.597 311.368 36.045C310.682 36.4883 309.835 36.71 308.827 36.71ZM308.827 35.723C309.615 35.723 310.273 35.5433 310.801 35.184C311.328 34.8247 311.722 34.3253 311.984 33.686C312.25 33.042 312.383 32.3 312.383 31.46C312.383 30.62 312.25 29.8803 311.984 29.241C311.722 28.6017 311.328 28.1023 310.801 27.743C310.273 27.3837 309.615 27.2017 308.827 27.197C308.038 27.197 307.382 27.3767 306.86 27.736C306.337 28.0953 305.943 28.597 305.677 29.241C305.415 29.8803 305.282 30.62 305.278 31.46C305.273 32.3 305.401 33.0397 305.663 33.679C305.929 34.3137 306.325 34.813 306.853 35.177C307.38 35.5363 308.038 35.7183 308.827 35.723ZM318.915 36.71C318.206 36.71 317.567 36.5863 316.997 36.339C316.428 36.0917 315.943 35.7393 315.541 35.282C315.145 34.8247 314.841 34.274 314.631 33.63C314.421 32.9813 314.316 32.258 314.316 31.46C314.316 30.4053 314.498 29.486 314.862 28.702C315.231 27.9133 315.758 27.302 316.444 26.868C317.13 26.434 317.954 26.217 318.915 26.217C319.989 26.217 320.861 26.469 321.533 26.973C322.21 27.4723 322.681 28.1443 322.947 28.989L321.911 29.241C321.692 28.625 321.33 28.1327 320.826 27.764C320.327 27.3953 319.704 27.211 318.957 27.211C318.169 27.2063 317.513 27.3837 316.99 27.743C316.468 28.0977 316.073 28.597 315.807 29.241C315.546 29.8803 315.413 30.62 315.408 31.46C315.404 32.3 315.532 33.0397 315.793 33.679C316.059 34.3137 316.456 34.813 316.983 35.177C317.511 35.5363 318.169 35.7183 318.957 35.723C319.681 35.723 320.278 35.583 320.749 35.303C321.221 35.023 321.578 34.6217 321.82 34.099C322.068 33.5763 322.208 32.958 322.24 32.244H319.916V31.362H323.318C323.332 31.4693 323.339 31.5837 323.339 31.705C323.344 31.8217 323.346 31.9057 323.346 31.957C323.346 32.867 323.183 33.6813 322.856 34.4C322.53 35.114 322.037 35.6787 321.379 36.094C320.726 36.5047 319.905 36.71 318.915 36.71ZM324.748 36.5V26.42H328.64C328.738 26.42 328.847 26.4247 328.969 26.434C329.095 26.4387 329.221 26.4527 329.347 26.476C329.874 26.5553 330.32 26.7397 330.684 27.029C331.052 27.3137 331.33 27.673 331.517 28.107C331.708 28.541 331.804 29.0217 331.804 29.549C331.804 30.3097 331.603 30.97 331.202 31.53C330.8 32.09 330.226 32.4423 329.48 32.587L329.123 32.671H325.777V36.5H324.748ZM330.852 36.5L328.864 32.398L329.851 32.02L332.035 36.5H330.852ZM325.777 31.691H328.612C328.696 31.691 328.794 31.6863 328.906 31.677C329.018 31.6677 329.127 31.6513 329.235 31.628C329.58 31.5533 329.862 31.411 330.082 31.201C330.306 30.991 330.471 30.7413 330.579 30.452C330.691 30.1627 330.747 29.8617 330.747 29.549C330.747 29.2363 330.691 28.9353 330.579 28.646C330.471 28.352 330.306 28.1 330.082 27.89C329.862 27.68 329.58 27.5377 329.235 27.463C329.127 27.4397 329.018 27.4257 328.906 27.421C328.794 27.4117 328.696 27.407 328.612 27.407H325.777V31.691ZM332.88 36.5L336.352 26.42H337.717L341.189 36.5H340.118L336.821 26.994H337.227L333.951 36.5H332.88ZM334.427 34.057V33.091H339.635V34.057H334.427ZM342.453 36.5V26.42H346.345C346.443 26.42 346.552 26.4247 346.674 26.434C346.8 26.4387 346.926 26.4527 347.052 26.476C347.579 26.5553 348.025 26.7397 348.389 27.029C348.757 27.3137 349.035 27.673 349.222 28.107C349.413 28.541 349.509 29.0217 349.509 29.549C349.509 30.0717 349.413 30.55 349.222 30.984C349.03 31.418 348.75 31.7797 348.382 32.069C348.018 32.3537 347.574 32.5357 347.052 32.615C346.926 32.6337 346.8 32.6477 346.674 32.657C346.552 32.6663 346.443 32.671 346.345 32.671H343.482V36.5H342.453ZM343.482 31.691H346.317C346.401 31.691 346.499 31.6863 346.611 31.677C346.723 31.6677 346.832 31.6513 346.94 31.628C347.285 31.5533 347.567 31.411 347.787 31.201C348.011 30.991 348.176 30.7413 348.284 30.452C348.396 30.1627 348.452 29.8617 348.452 29.549C348.452 29.2363 348.396 28.9353 348.284 28.646C348.176 28.352 348.011 28.1 347.787 27.89C347.567 27.68 347.285 27.5377 346.94 27.463C346.832 27.4397 346.723 27.4257 346.611 27.421C346.499 27.4117 346.401 27.407 346.317 27.407H343.482V31.691ZM350.902 36.5V26.42H351.931V30.963H357.503V26.42H358.525V36.5H357.503V31.95H351.931V36.5H350.902ZM362.887 36.5V32.279L359.506 26.42H360.696L363.405 31.103L366.1 26.42H367.29L363.923 32.279V36.5H362.887Z" fill="#D7D0FB"/>
<g clip-path="url(#clip2_157_3711)">
<mask id="mask1_157_3711" style="mask-type:luminance" maskUnits="userSpaceOnUse" x="383" y="16" width="31" height="30">
<path d="M413.5 16H383.5V46H413.5V16Z" fill="white"/>
</mask>
<g mask="url(#mask1_157_3711)">
<path fill-rule="evenodd" clip-rule="evenodd" d="M411.841 31C412.415 31 412.972 30.9229 413.5 30.7785C413.08 30.6899 412.644 30.6433 412.198 30.6433H404.778C403.553 30.6433 402.409 30.2922 401.443 29.685C401.654 28.4484 402.237 27.263 403.192 26.3084L407.934 21.5664C408.34 21.1604 408.678 20.7125 408.95 20.2368C408.59 20.4712 408.249 20.7462 407.934 21.0619L402.687 26.3084C401.821 27.175 400.764 27.7353 399.651 27.9893C398.926 26.9655 398.5 25.7151 398.5 24.3651V17.6589C398.5 17.0847 398.423 16.5284 398.279 16C398.19 16.4201 398.143 16.8557 398.143 17.3022V24.7218C398.143 25.9473 397.792 27.0908 397.185 28.0572C395.948 27.8459 394.763 27.263 393.808 26.3084L389.066 21.5664C388.66 21.1604 388.213 20.8216 387.737 20.55C387.971 20.9097 388.246 21.2507 388.562 21.5664L393.808 26.8129C394.675 27.6795 395.235 28.7363 395.489 29.8489C394.465 30.5739 393.215 31 391.865 31H385.159C384.585 31 384.028 31.0771 383.5 31.2215C383.92 31.3101 384.356 31.3567 384.802 31.3567H392.222C393.447 31.3567 394.591 31.7079 395.557 32.3151C395.346 33.5515 394.763 34.7369 393.808 35.6915L389.066 40.4337C388.66 40.8397 388.322 41.2875 388.05 41.7633C388.41 41.5288 388.751 41.2537 389.066 40.9381L394.313 35.6915C395.179 34.825 396.236 34.2648 397.349 34.0107C398.074 35.0345 398.5 36.285 398.5 37.635V44.3412C398.5 44.9153 398.577 45.4716 398.722 46C398.81 45.5799 398.857 45.1443 398.857 44.6979V37.2781C398.857 36.0526 399.208 34.9092 399.815 33.9429C401.052 34.1541 402.237 34.7369 403.192 35.6915L407.934 40.4337C408.34 40.8397 408.787 41.1784 409.263 41.4501C409.029 41.0902 408.754 40.7493 408.438 40.4337L403.192 35.1871C402.325 34.3206 401.765 33.2637 401.511 32.1511C402.535 31.426 403.785 31 405.135 31H411.841Z" fill="#AFA1F7"/>
</g>
</g>
<path d="M420.48 36.5V26.42H424.372C424.47 26.42 424.58 26.4247 424.701 26.434C424.827 26.4387 424.953 26.4527 425.079 26.476C425.606 26.5553 426.052 26.7397 426.416 27.029C426.785 27.3137 427.062 27.673 427.249 28.107C427.44 28.541 427.536 29.0217 427.536 29.549C427.536 30.0717 427.44 30.55 427.249 30.984C427.058 31.418 426.778 31.7797 426.409 32.069C426.045 32.3537 425.602 32.5357 425.079 32.615C424.953 32.6337 424.827 32.6477 424.701 32.657C424.58 32.6663 424.47 32.671 424.372 32.671H421.509V36.5H420.48ZM421.509 31.691H424.344C424.428 31.691 424.526 31.6863 424.638 31.677C424.75 31.6677 424.86 31.6513 424.967 31.628C425.312 31.5533 425.595 31.411 425.814 31.201C426.038 30.991 426.204 30.7413 426.311 30.452C426.423 30.1627 426.479 29.8617 426.479 29.549C426.479 29.2363 426.423 28.9353 426.311 28.646C426.204 28.352 426.038 28.1 425.814 27.89C425.595 27.68 425.312 27.5377 424.967 27.463C424.86 27.4397 424.75 27.4257 424.638 27.421C424.526 27.4117 424.428 27.407 424.344 27.407H421.509V31.691ZM428.929 36.5V26.42H432.821C432.919 26.42 433.029 26.4247 433.15 26.434C433.276 26.4387 433.402 26.4527 433.528 26.476C434.056 26.5553 434.501 26.7397 434.865 27.029C435.234 27.3137 435.512 27.673 435.698 28.107C435.89 28.541 435.985 29.0217 435.985 29.549C435.985 30.3097 435.785 30.97 435.383 31.53C434.982 32.09 434.408 32.4423 433.661 32.587L433.304 32.671H429.958V36.5H428.929ZM435.033 36.5L433.045 32.398L434.032 32.02L436.216 36.5H435.033ZM429.958 31.691H432.793C432.877 31.691 432.975 31.6863 433.087 31.677C433.199 31.6677 433.309 31.6513 433.416 31.628C433.762 31.5533 434.044 31.411 434.263 31.201C434.487 30.991 434.653 30.7413 434.76 30.452C434.872 30.1627 434.928 29.8617 434.928 29.549C434.928 29.2363 434.872 28.9353 434.76 28.646C434.653 28.352 434.487 28.1 434.263 27.89C434.044 27.68 433.762 27.5377 433.416 27.463C433.309 27.4397 433.199 27.4257 433.087 27.421C432.975 27.4117 432.877 27.407 432.793 27.407H429.958V31.691ZM441.842 36.71C440.839 36.71 439.992 36.4883 439.301 36.045C438.611 35.597 438.088 34.9787 437.733 34.19C437.379 33.4013 437.201 32.4913 437.201 31.46C437.201 30.4287 437.379 29.5187 437.733 28.73C438.088 27.9413 438.611 27.3253 439.301 26.882C439.992 26.434 440.839 26.21 441.842 26.21C442.85 26.21 443.697 26.434 444.383 26.882C445.074 27.3253 445.597 27.9413 445.951 28.73C446.311 29.5187 446.49 30.4287 446.49 31.46C446.49 32.4913 446.311 33.4013 445.951 34.19C445.597 34.9787 445.074 35.597 444.383 36.045C443.697 36.4883 442.85 36.71 441.842 36.71ZM441.842 35.723C442.631 35.723 443.289 35.5433 443.816 35.184C444.344 34.8247 444.738 34.3253 444.999 33.686C445.265 33.042 445.398 32.3 445.398 31.46C445.398 30.62 445.265 29.8803 444.999 29.241C444.738 28.6017 444.344 28.1023 443.816 27.743C443.289 27.3837 442.631 27.2017 441.842 27.197C441.054 27.197 440.398 27.3767 439.875 27.736C439.353 28.0953 438.958 28.597 438.692 29.241C438.431 29.8803 438.298 30.62 438.293 31.46C438.289 32.3 438.417 33.0397 438.678 33.679C438.944 34.3137 439.341 34.813 439.868 35.177C440.396 35.5363 441.054 35.7183 441.842 35.723ZM447.892 36.5V26.42H450.951C451.058 26.42 451.24 26.4223 451.497 26.427C451.758 26.4317 452.008 26.4503 452.246 26.483C453.011 26.5903 453.651 26.875 454.164 27.337C454.677 27.799 455.062 28.387 455.319 29.101C455.576 29.815 455.704 30.6013 455.704 31.46C455.704 32.3187 455.576 33.105 455.319 33.819C455.062 34.533 454.677 35.121 454.164 35.583C453.651 36.045 453.011 36.3297 452.246 36.437C452.013 36.465 451.763 36.4837 451.497 36.493C451.231 36.4977 451.049 36.5 450.951 36.5H447.892ZM448.956 35.513H450.951C451.142 35.513 451.348 35.5083 451.567 35.499C451.791 35.485 451.982 35.4617 452.141 35.429C452.729 35.3263 453.203 35.0883 453.562 34.715C453.926 34.3417 454.192 33.875 454.36 33.315C454.528 32.7503 454.612 32.132 454.612 31.46C454.612 30.7833 454.528 30.1627 454.36 29.598C454.192 29.0333 453.926 28.5667 453.562 28.198C453.198 27.8293 452.724 27.5937 452.141 27.491C451.982 27.4583 451.789 27.4373 451.56 27.428C451.336 27.414 451.133 27.407 450.951 27.407H448.956V35.513ZM461.232 36.71C460.462 36.71 459.781 36.5513 459.188 36.234C458.6 35.9167 458.138 35.4687 457.802 34.89C457.466 34.3113 457.298 33.6347 457.298 32.86V26.427L458.334 26.42V32.727C458.334 33.2497 458.423 33.7023 458.6 34.085C458.778 34.463 459.009 34.7757 459.293 35.023C459.583 35.2657 459.898 35.4453 460.238 35.562C460.579 35.6787 460.91 35.737 461.232 35.737C461.559 35.737 461.893 35.6787 462.233 35.562C462.574 35.4453 462.887 35.2657 463.171 35.023C463.456 34.7757 463.687 34.463 463.864 34.085C464.042 33.7023 464.13 33.2497 464.13 32.727V26.42H465.166V32.86C465.166 33.6347 464.998 34.3113 464.662 34.89C464.326 35.464 463.862 35.912 463.269 36.234C462.681 36.5513 462.002 36.71 461.232 36.71ZM471.209 36.71C470.206 36.71 469.359 36.4883 468.668 36.045C467.978 35.597 467.455 34.9787 467.1 34.19C466.746 33.4013 466.568 32.4913 466.568 31.46C466.568 30.4287 466.746 29.5187 467.1 28.73C467.455 27.9413 467.978 27.3253 468.668 26.882C469.359 26.434 470.206 26.21 471.209 26.21C472.381 26.21 473.337 26.511 474.079 27.113C474.821 27.7103 475.33 28.513 475.605 29.521L474.555 29.794C474.341 28.996 473.956 28.3637 473.4 27.897C472.845 27.4303 472.115 27.197 471.209 27.197C470.421 27.197 469.765 27.3767 469.242 27.736C468.72 28.0953 468.325 28.597 468.059 29.241C467.798 29.8803 467.663 30.62 467.653 31.46C467.649 32.3 467.777 33.0397 468.038 33.679C468.304 34.3183 468.701 34.82 469.228 35.184C469.76 35.5433 470.421 35.723 471.209 35.723C472.115 35.723 472.845 35.4897 473.4 35.023C473.956 34.5517 474.341 33.9193 474.555 33.126L475.605 33.399C475.33 34.407 474.821 35.212 474.079 35.814C473.337 36.4113 472.381 36.71 471.209 36.71ZM479.831 36.5V27.407H476.31V26.42H484.381V27.407H480.86V36.5H479.831ZM487.882 36.5V26.42H491.774C491.872 26.42 491.982 26.4247 492.103 26.434C492.229 26.4387 492.355 26.4527 492.481 26.476C493.009 26.5553 493.454 26.7397 493.818 27.029C494.187 27.3137 494.465 27.673 494.651 28.107C494.843 28.541 494.938 29.0217 494.938 29.549C494.938 30.0717 494.843 30.55 494.651 30.984C494.46 31.418 494.18 31.7797 493.811 32.069C493.447 32.3537 493.004 32.5357 492.481 32.615C492.355 32.6337 492.229 32.6477 492.103 32.657C491.982 32.6663 491.872 32.671 491.774 32.671H488.911V36.5H487.882ZM488.911 31.691H491.746C491.83 31.691 491.928 31.6863 492.04 31.677C492.152 31.6677 492.262 31.6513 492.369 31.628C492.715 31.5533 492.997 31.411 493.216 31.201C493.44 30.991 493.606 30.7413 493.713 30.452C493.825 30.1627 493.881 29.8617 493.881 29.549C493.881 29.2363 493.825 28.9353 493.713 28.646C493.606 28.352 493.44 28.1 493.216 27.89C492.997 27.68 492.715 27.5377 492.369 27.463C492.262 27.4397 492.152 27.4257 492.04 27.421C491.928 27.4117 491.83 27.407 491.746 27.407H488.911V31.691ZM496.332 36.5V26.42H497.361V30.963H502.933V26.42H503.955V36.5H502.933V31.95H497.361V36.5H496.332ZM509.997 36.71C508.993 36.71 508.146 36.4883 507.456 36.045C506.765 35.597 506.242 34.9787 505.888 34.19C505.533 33.4013 505.356 32.4913 505.356 31.46C505.356 30.4287 505.533 29.5187 505.888 28.73C506.242 27.9413 506.765 27.3253 507.456 26.882C508.146 26.434 508.993 26.21 509.997 26.21C511.005 26.21 511.852 26.434 512.538 26.882C513.228 27.3253 513.751 27.9413 514.106 28.73C514.465 29.5187 514.645 30.4287 514.645 31.46C514.645 32.4913 514.465 33.4013 514.106 34.19C513.751 34.9787 513.228 35.597 512.538 36.045C511.852 36.4883 511.005 36.71 509.997 36.71ZM509.997 35.723C510.785 35.723 511.443 35.5433 511.971 35.184C512.498 34.8247 512.892 34.3253 513.154 33.686C513.42 33.042 513.553 32.3 513.553 31.46C513.553 30.62 513.42 29.8803 513.154 29.241C512.892 28.6017 512.498 28.1023 511.971 27.743C511.443 27.3837 510.785 27.2017 509.997 27.197C509.208 27.197 508.552 27.3767 508.03 27.736C507.507 28.0953 507.113 28.597 506.847 29.241C506.585 29.8803 506.452 30.62 506.448 31.46C506.443 32.3 506.571 33.0397 506.833 33.679C507.099 34.3137 507.495 34.813 508.023 35.177C508.55 35.5363 509.208 35.7183 509.997 35.723ZM518.454 36.5V27.407H514.933V26.42H523.004V27.407H519.483V36.5H518.454ZM528.207 36.71C527.204 36.71 526.357 36.4883 525.666 36.045C524.976 35.597 524.453 34.9787 524.098 34.19C523.744 33.4013 523.566 32.4913 523.566 31.46C523.566 30.4287 523.744 29.5187 524.098 28.73C524.453 27.9413 524.976 27.3253 525.666 26.882C526.357 26.434 527.204 26.21 528.207 26.21C529.215 26.21 530.062 26.434 530.748 26.882C531.439 27.3253 531.962 27.9413 532.316 28.73C532.676 29.5187 532.855 30.4287 532.855 31.46C532.855 32.4913 532.676 33.4013 532.316 34.19C531.962 34.9787 531.439 35.597 530.748 36.045C530.062 36.4883 529.215 36.71 528.207 36.71ZM528.207 35.723C528.996 35.723 529.654 35.5433 530.181 35.184C530.709 34.8247 531.103 34.3253 531.364 33.686C531.63 33.042 531.763 32.3 531.763 31.46C531.763 30.62 531.63 29.8803 531.364 29.241C531.103 28.6017 530.709 28.1023 530.181 27.743C529.654 27.3837 528.996 27.2017 528.207 27.197C527.419 27.197 526.763 27.3767 526.24 27.736C525.718 28.0953 525.323 28.597 525.057 29.241C524.796 29.8803 524.663 30.62 524.658 31.46C524.654 32.3 524.782 33.0397 525.043 33.679C525.309 34.3137 525.706 34.813 526.233 35.177C526.761 35.5363 527.419 35.7183 528.207 35.723ZM538.296 36.71C537.587 36.71 536.948 36.5863 536.378 36.339C535.809 36.0917 535.324 35.7393 534.922 35.282C534.526 34.8247 534.222 34.274 534.012 33.63C533.802 32.9813 533.697 32.258 533.697 31.46C533.697 30.4053 533.879 29.486 534.243 28.702C534.612 27.9133 535.139 27.302 535.825 26.868C536.511 26.434 537.335 26.217 538.296 26.217C539.37 26.217 540.242 26.469 540.914 26.973C541.591 27.4723 542.062 28.1443 542.328 28.989L541.292 29.241C541.073 28.625 540.711 28.1327 540.207 27.764C539.708 27.3953 539.085 27.211 538.338 27.211C537.55 27.2063 536.894 27.3837 536.371 27.743C535.849 28.0977 535.454 28.597 535.188 29.241C534.927 29.8803 534.794 30.62 534.789 31.46C534.785 32.3 534.913 33.0397 535.174 33.679C535.44 34.3137 535.837 34.813 536.364 35.177C536.892 35.5363 537.55 35.7183 538.338 35.723C539.062 35.723 539.659 35.583 540.13 35.303C540.602 35.023 540.959 34.6217 541.201 34.099C541.449 33.5763 541.589 32.958 541.621 32.244H539.297V31.362H542.699C542.713 31.4693 542.72 31.5837 542.72 31.705C542.725 31.8217 542.727 31.9057 542.727 31.957C542.727 32.867 542.564 33.6813 542.237 34.4C541.911 35.114 541.418 35.6787 540.76 36.094C540.107 36.5047 539.286 36.71 538.296 36.71ZM544.128 36.5V26.42H548.02C548.118 26.42 548.228 26.4247 548.349 26.434C548.475 26.4387 548.601 26.4527 548.727 26.476C549.255 26.5553 549.7 26.7397 550.064 27.029C550.433 27.3137 550.711 27.673 550.897 28.107C551.089 28.541 551.184 29.0217 551.184 29.549C551.184 30.3097 550.984 30.97 550.582 31.53C550.181 32.09 549.607 32.4423 548.86 32.587L548.503 32.671H545.157V36.5H544.128ZM550.232 36.5L548.244 32.398L549.231 32.02L551.415 36.5H550.232ZM545.157 31.691H547.992C548.076 31.691 548.174 31.6863 548.286 31.677C548.398 31.6677 548.508 31.6513 548.615 31.628C548.961 31.5533 549.243 31.411 549.462 31.201C549.686 30.991 549.852 30.7413 549.959 30.452C550.071 30.1627 550.127 29.8617 550.127 29.549C550.127 29.2363 550.071 28.9353 549.959 28.646C549.852 28.352 549.686 28.1 549.462 27.89C549.243 27.68 548.961 27.5377 548.615 27.463C548.508 27.4397 548.398 27.4257 548.286 27.421C548.174 27.4117 548.076 27.407 547.992 27.407H545.157V31.691ZM552.26 36.5L555.732 26.42H557.097L560.569 36.5H559.498L556.201 26.994H556.607L553.331 36.5H552.26ZM553.807 34.057V33.091H559.015V34.057H553.807ZM561.834 36.5V26.42H565.726C565.824 26.42 565.933 26.4247 566.055 26.434C566.181 26.4387 566.307 26.4527 566.433 26.476C566.96 26.5553 567.406 26.7397 567.77 27.029C568.138 27.3137 568.416 27.673 568.603 28.107C568.794 28.541 568.89 29.0217 568.89 29.549C568.89 30.0717 568.794 30.55 568.603 30.984C568.411 31.418 568.131 31.7797 567.763 32.069C567.399 32.3537 566.955 32.5357 566.433 32.615C566.307 32.6337 566.181 32.6477 566.055 32.657C565.933 32.6663 565.824 32.671 565.726 32.671H562.863V36.5H561.834ZM562.863 31.691H565.698C565.782 31.691 565.88 31.6863 565.992 31.677C566.104 31.6677 566.213 31.6513 566.321 31.628C566.666 31.5533 566.948 31.411 567.168 31.201C567.392 30.991 567.557 30.7413 567.665 30.452C567.777 30.1627 567.833 29.8617 567.833 29.549C567.833 29.2363 567.777 28.9353 567.665 28.646C567.557 28.352 567.392 28.1 567.168 27.89C566.948 27.68 566.666 27.5377 566.321 27.463C566.213 27.4397 566.104 27.4257 565.992 27.421C565.88 27.4117 565.782 27.407 565.698 27.407H562.863V31.691ZM570.283 36.5V26.42H571.312V30.963H576.884V26.42H577.906V36.5H576.884V31.95H571.312V36.5H570.283ZM582.268 36.5V32.279L578.887 26.42H580.077L582.786 31.103L585.481 26.42H586.671L583.304 32.279V36.5H582.268Z" fill="#D7D0FB"/>
<g clip-path="url(#clip3_157_3711)">
<mask id="mask2_157_3711" style="mask-type:luminance" maskUnits="userSpaceOnUse" x="603" y="16" width="31" height="30">
<path d="M633.5 16H603.5V46H633.5V16Z" fill="white"/>
</mask>
<g mask="url(#mask2_157_3711)">
<path fill-rule="evenodd" clip-rule="evenodd" d="M631.841 31C632.415 31 632.972 30.9229 633.5 30.7785C633.08 30.6899 632.644 30.6433 632.198 30.6433H624.778C623.553 30.6433 622.409 30.2922 621.443 29.685C621.654 28.4484 622.237 27.263 623.192 26.3084L627.934 21.5664C628.34 21.1604 628.678 20.7125 628.95 20.2368C628.59 20.4712 628.249 20.7462 627.934 21.0619L622.687 26.3084C621.821 27.175 620.764 27.7353 619.651 27.9893C618.926 26.9655 618.5 25.7151 618.5 24.3651V17.6589C618.5 17.0847 618.423 16.5284 618.279 16C618.19 16.4201 618.143 16.8557 618.143 17.3022V24.7218C618.143 25.9473 617.792 27.0908 617.185 28.0572C615.948 27.8459 614.763 27.263 613.808 26.3084L609.066 21.5664C608.66 21.1604 608.213 20.8216 607.737 20.55C607.971 20.9097 608.246 21.2507 608.562 21.5664L613.808 26.8129C614.675 27.6795 615.235 28.7363 615.489 29.8489C614.465 30.5739 613.215 31 611.865 31H605.159C604.585 31 604.028 31.0771 603.5 31.2215C603.92 31.3101 604.356 31.3567 604.802 31.3567H612.222C613.447 31.3567 614.591 31.7079 615.557 32.3151C615.346 33.5515 614.763 34.7369 613.808 35.6915L609.066 40.4337C608.66 40.8397 608.322 41.2875 608.05 41.7633C608.41 41.5288 608.751 41.2537 609.066 40.9381L614.313 35.6915C615.179 34.825 616.236 34.2648 617.349 34.0107C618.074 35.0345 618.5 36.285 618.5 37.635V44.3412C618.5 44.9153 618.577 45.4716 618.722 46C618.81 45.5799 618.857 45.1443 618.857 44.6979V37.2781C618.857 36.0526 619.208 34.9092 619.815 33.9429C621.052 34.1541 622.237 34.7369 623.192 35.6915L627.934 40.4337C628.34 40.8397 628.787 41.1784 629.263 41.4501C629.029 41.0902 628.754 40.7493 628.438 40.4337L623.192 35.1871C622.325 34.3206 621.765 33.2637 621.511 32.1511C622.535 31.426 623.785 31 625.135 31H631.841Z" fill="#AFA1F7"/>
</g>
</g>
<path d="M642.643 36.5L639.731 26.42H640.802L643.161 34.743L645.506 26.427L646.584 26.42L648.943 34.743L651.288 26.42H652.366L649.461 36.5H648.425L646.045 28.233L643.679 36.5H642.643ZM653.578 36.5V26.42H659.878V27.407H654.607V30.893H659.038V31.88H654.607V35.513H659.878V36.5H653.578ZM661.562 36.5V26.42H664.621C664.728 26.42 664.91 26.4223 665.167 26.427C665.428 26.4317 665.678 26.4503 665.916 26.483C666.681 26.5903 667.321 26.875 667.834 27.337C668.347 27.799 668.732 28.387 668.989 29.101C669.246 29.815 669.374 30.6013 669.374 31.46C669.374 32.3187 669.246 33.105 668.989 33.819C668.732 34.533 668.347 35.121 667.834 35.583C667.321 36.045 666.681 36.3297 665.916 36.437C665.683 36.465 665.433 36.4837 665.167 36.493C664.901 36.4977 664.719 36.5 664.621 36.5H661.562ZM662.626 35.513H664.621C664.812 35.513 665.018 35.5083 665.237 35.499C665.461 35.485 665.652 35.4617 665.811 35.429C666.399 35.3263 666.873 35.0883 667.232 34.715C667.596 34.3417 667.862 33.875 668.03 33.315C668.198 32.7503 668.282 32.132 668.282 31.46C668.282 30.7833 668.198 30.1627 668.03 29.598C667.862 29.0333 667.596 28.5667 667.232 28.198C666.868 27.8293 666.394 27.5937 665.811 27.491C665.652 27.4583 665.459 27.4373 665.23 27.428C665.006 27.414 664.803 27.407 664.621 27.407H662.626V35.513ZM670.968 36.5V26.42H674.027C674.135 26.42 674.317 26.4223 674.573 26.427C674.835 26.4317 675.084 26.4503 675.322 26.483C676.088 26.5903 676.727 26.875 677.24 27.337C677.754 27.799 678.139 28.387 678.395 29.101C678.652 29.815 678.78 30.6013 678.78 31.46C678.78 32.3187 678.652 33.105 678.395 33.819C678.139 34.533 677.754 35.121 677.24 35.583C676.727 36.045 676.088 36.3297 675.322 36.437C675.089 36.465 674.839 36.4837 674.573 36.493C674.307 36.4977 674.125 36.5 674.027 36.5H670.968ZM672.032 35.513H674.027C674.219 35.513 674.424 35.5083 674.643 35.499C674.867 35.485 675.059 35.4617 675.217 35.429C675.805 35.3263 676.279 35.0883 676.638 34.715C677.002 34.3417 677.268 33.875 677.436 33.315C677.604 32.7503 677.688 32.132 677.688 31.46C677.688 30.7833 677.604 30.1627 677.436 29.598C677.268 29.0333 677.002 28.5667 676.638 28.198C676.274 27.8293 675.801 27.5937 675.217 27.491C675.059 27.4583 674.865 27.4373 674.636 27.428C674.412 27.414 674.209 27.407 674.027 27.407H672.032V35.513ZM680.515 36.5V26.42H681.544V36.5H680.515ZM683.642 36.5V26.42H684.678L690.229 34.68V26.42H691.265V36.5H690.229L684.678 28.233V36.5H683.642ZM697.265 36.71C696.556 36.71 695.916 36.5863 695.347 36.339C694.778 36.0917 694.292 35.7393 693.891 35.282C693.494 34.8247 693.191 34.274 692.981 33.63C692.771 32.9813 692.666 32.258 692.666 31.46C692.666 30.4053 692.848 29.486 693.212 28.702C693.581 27.9133 694.108 27.302 694.794 26.868C695.48 26.434 696.304 26.217 697.265 26.217C698.338 26.217 699.211 26.469 699.883 26.973C700.56 27.4723 701.031 28.1443 701.297 28.989L700.261 29.241C700.042 28.625 699.68 28.1327 699.176 27.764C698.677 27.3953 698.054 27.211 697.307 27.211C696.518 27.2063 695.863 27.3837 695.34 27.743C694.817 28.0977 694.423 28.597 694.157 29.241C693.896 29.8803 693.763 30.62 693.758 31.46C693.753 32.3 693.882 33.0397 694.143 33.679C694.409 34.3137 694.806 34.813 695.333 35.177C695.86 35.5363 696.518 35.7183 697.307 35.723C698.03 35.723 698.628 35.583 699.099 35.303C699.57 35.023 699.927 34.6217 700.17 34.099C700.417 33.5763 700.557 32.958 700.59 32.244H698.266V31.362H701.668C701.682 31.4693 701.689 31.5837 701.689 31.705C701.694 31.8217 701.696 31.9057 701.696 31.957C701.696 32.867 701.533 33.6813 701.206 34.4C700.879 35.114 700.387 35.6787 699.729 36.094C699.076 36.5047 698.254 36.71 697.265 36.71ZM705.9 36.5V26.42H709.792C709.89 26.42 710 26.4247 710.121 26.434C710.247 26.4387 710.373 26.4527 710.499 26.476C711.026 26.5553 711.472 26.7397 711.836 27.029C712.205 27.3137 712.482 27.673 712.669 28.107C712.86 28.541 712.956 29.0217 712.956 29.549C712.956 30.0717 712.86 30.55 712.669 30.984C712.478 31.418 712.198 31.7797 711.829 32.069C711.465 32.3537 711.022 32.5357 710.499 32.615C710.373 32.6337 710.247 32.6477 710.121 32.657C710 32.6663 709.89 32.671 709.792 32.671H706.929V36.5H705.9ZM706.929 31.691H709.764C709.848 31.691 709.946 31.6863 710.058 31.677C710.17 31.6677 710.28 31.6513 710.387 31.628C710.732 31.5533 711.015 31.411 711.234 31.201C711.458 30.991 711.624 30.7413 711.731 30.452C711.843 30.1627 711.899 29.8617 711.899 29.549C711.899 29.2363 711.843 28.9353 711.731 28.646C711.624 28.352 711.458 28.1 711.234 27.89C711.015 27.68 710.732 27.5377 710.387 27.463C710.28 27.4397 710.17 27.4257 710.058 27.421C709.946 27.4117 709.848 27.407 709.764 27.407H706.929V31.691ZM714.349 36.5V26.42H715.378V30.963H720.95V26.42H721.972V36.5H720.95V31.95H715.378V36.5H714.349ZM728.014 36.71C727.011 36.71 726.164 36.4883 725.473 36.045C724.782 35.597 724.26 34.9787 723.905 34.19C723.55 33.4013 723.373 32.4913 723.373 31.46C723.373 30.4287 723.55 29.5187 723.905 28.73C724.26 27.9413 724.782 27.3253 725.473 26.882C726.164 26.434 727.011 26.21 728.014 26.21C729.022 26.21 729.869 26.434 730.555 26.882C731.246 27.3253 731.768 27.9413 732.123 28.73C732.482 29.5187 732.662 30.4287 732.662 31.46C732.662 32.4913 732.482 33.4013 732.123 34.19C731.768 34.9787 731.246 35.597 730.555 36.045C729.869 36.4883 729.022 36.71 728.014 36.71ZM728.014 35.723C728.803 35.723 729.461 35.5433 729.988 35.184C730.515 34.8247 730.91 34.3253 731.171 33.686C731.437 33.042 731.57 32.3 731.57 31.46C731.57 30.62 731.437 29.8803 731.171 29.241C730.91 28.6017 730.515 28.1023 729.988 27.743C729.461 27.3837 728.803 27.2017 728.014 27.197C727.225 27.197 726.57 27.3767 726.047 27.736C725.524 28.0953 725.13 28.597 724.864 29.241C724.603 29.8803 724.47 30.62 724.465 31.46C724.46 32.3 724.589 33.0397 724.85 33.679C725.116 34.3137 725.513 34.813 726.04 35.177C726.567 35.5363 727.225 35.7183 728.014 35.723ZM736.472 36.5V27.407H732.951V26.42H741.022V27.407H737.501V36.5H736.472ZM746.225 36.71C745.222 36.71 744.375 36.4883 743.684 36.045C742.993 35.597 742.471 34.9787 742.116 34.19C741.761 33.4013 741.584 32.4913 741.584 31.46C741.584 30.4287 741.761 29.5187 742.116 28.73C742.471 27.9413 742.993 27.3253 743.684 26.882C744.375 26.434 745.222 26.21 746.225 26.21C747.233 26.21 748.08 26.434 748.766 26.882C749.457 27.3253 749.979 27.9413 750.334 28.73C750.693 29.5187 750.873 30.4287 750.873 31.46C750.873 32.4913 750.693 33.4013 750.334 34.19C749.979 34.9787 749.457 35.597 748.766 36.045C748.08 36.4883 747.233 36.71 746.225 36.71ZM746.225 35.723C747.014 35.723 747.672 35.5433 748.199 35.184C748.726 34.8247 749.121 34.3253 749.382 33.686C749.648 33.042 749.781 32.3 749.781 31.46C749.781 30.62 749.648 29.8803 749.382 29.241C749.121 28.6017 748.726 28.1023 748.199 27.743C747.672 27.3837 747.014 27.2017 746.225 27.197C745.436 27.197 744.781 27.3767 744.258 27.736C743.735 28.0953 743.341 28.597 743.075 29.241C742.814 29.8803 742.681 30.62 742.676 31.46C742.671 32.3 742.8 33.0397 743.061 33.679C743.327 34.3137 743.724 34.813 744.251 35.177C744.778 35.5363 745.436 35.7183 746.225 35.723ZM756.314 36.71C755.605 36.71 754.965 36.5863 754.396 36.339C753.827 36.0917 753.341 35.7393 752.94 35.282C752.543 34.8247 752.24 34.274 752.03 33.63C751.82 32.9813 751.715 32.258 751.715 31.46C751.715 30.4053 751.897 29.486 752.261 28.702C752.63 27.9133 753.157 27.302 753.843 26.868C754.529 26.434 755.353 26.217 756.314 26.217C757.387 26.217 758.26 26.469 758.932 26.973C759.609 27.4723 760.08 28.1443 760.346 28.989L759.31 29.241C759.091 28.625 758.729 28.1327 758.225 27.764C757.726 27.3953 757.103 27.211 756.356 27.211C755.567 27.2063 754.912 27.3837 754.389 27.743C753.866 28.0977 753.472 28.597 753.206 29.241C752.945 29.8803 752.812 30.62 752.807 31.46C752.802 32.3 752.931 33.0397 753.192 33.679C753.458 34.3137 753.855 34.813 754.382 35.177C754.909 35.5363 755.567 35.7183 756.356 35.723C757.079 35.723 757.677 35.583 758.148 35.303C758.619 35.023 758.976 34.6217 759.219 34.099C759.466 33.5763 759.606 32.958 759.639 32.244H757.315V31.362H760.717C760.731 31.4693 760.738 31.5837 760.738 31.705C760.743 31.8217 760.745 31.9057 760.745 31.957C760.745 32.867 760.582 33.6813 760.255 34.4C759.928 35.114 759.436 35.6787 758.778 36.094C758.125 36.5047 757.303 36.71 756.314 36.71ZM762.146 36.5V26.42H766.038C766.136 26.42 766.246 26.4247 766.367 26.434C766.493 26.4387 766.619 26.4527 766.745 26.476C767.272 26.5553 767.718 26.7397 768.082 27.029C768.451 27.3137 768.728 27.673 768.915 28.107C769.106 28.541 769.202 29.0217 769.202 29.549C769.202 30.3097 769.001 30.97 768.6 31.53C768.199 32.09 767.625 32.4423 766.878 32.587L766.521 32.671H763.175V36.5H762.146ZM768.25 36.5L766.262 32.398L767.249 32.02L769.433 36.5H768.25ZM763.175 31.691H766.01C766.094 31.691 766.192 31.6863 766.304 31.677C766.416 31.6677 766.526 31.6513 766.633 31.628C766.978 31.5533 767.261 31.411 767.48 31.201C767.704 30.991 767.87 30.7413 767.977 30.452C768.089 30.1627 768.145 29.8617 768.145 29.549C768.145 29.2363 768.089 28.9353 767.977 28.646C767.87 28.352 767.704 28.1 767.48 27.89C767.261 27.68 766.978 27.5377 766.633 27.463C766.526 27.4397 766.416 27.4257 766.304 27.421C766.192 27.4117 766.094 27.407 766.01 27.407H763.175V31.691ZM770.278 36.5L773.75 26.42H775.115L778.587 36.5H777.516L774.219 26.994H774.625L771.349 36.5H770.278ZM771.825 34.057V33.091H777.033V34.057H771.825ZM779.851 36.5V26.42H783.743C783.841 26.42 783.951 26.4247 784.072 26.434C784.198 26.4387 784.324 26.4527 784.45 26.476C784.977 26.5553 785.423 26.7397 785.787 27.029C786.156 27.3137 786.433 27.673 786.62 28.107C786.811 28.541 786.907 29.0217 786.907 29.549C786.907 30.0717 786.811 30.55 786.62 30.984C786.429 31.418 786.149 31.7797 785.78 32.069C785.416 32.3537 784.973 32.5357 784.45 32.615C784.324 32.6337 784.198 32.6477 784.072 32.657C783.951 32.6663 783.841 32.671 783.743 32.671H780.88V36.5H779.851ZM780.88 31.691H783.715C783.799 31.691 783.897 31.6863 784.009 31.677C784.121 31.6677 784.231 31.6513 784.338 31.628C784.683 31.5533 784.966 31.411 785.185 31.201C785.409 30.991 785.575 30.7413 785.682 30.452C785.794 30.1627 785.85 29.8617 785.85 29.549C785.85 29.2363 785.794 28.9353 785.682 28.646C785.575 28.352 785.409 28.1 785.185 27.89C784.966 27.68 784.683 27.5377 784.338 27.463C784.231 27.4397 784.121 27.4257 784.009 27.421C783.897 27.4117 783.799 27.407 783.715 27.407H780.88V31.691ZM788.3 36.5V26.42H789.329V30.963H794.901V26.42H795.923V36.5H794.901V31.95H789.329V36.5H788.3ZM800.285 36.5V32.279L796.904 26.42H798.094L800.803 31.103L803.498 26.42H804.688L801.321 32.279V36.5H800.285Z" fill="#D7D0FB"/>
<g clip-path="url(#clip4_157_3711)">
<mask id="mask3_157_3711" style="mask-type:luminance" maskUnits="userSpaceOnUse" x="821" y="16" width="31" height="30">
<path d="M851.5 16H821.5V46H851.5V16Z" fill="white"/>
</mask>
<g mask="url(#mask3_157_3711)">
<path fill-rule="evenodd" clip-rule="evenodd" d="M849.841 31C850.415 31 850.972 30.9229 851.5 30.7785C851.08 30.6899 850.644 30.6433 850.198 30.6433H842.778C841.553 30.6433 840.409 30.2922 839.443 29.685C839.654 28.4484 840.237 27.263 841.192 26.3084L845.934 21.5664C846.34 21.1604 846.678 20.7125 846.95 20.2368C846.59 20.4712 846.249 20.7462 845.934 21.0619L840.687 26.3084C839.821 27.175 838.764 27.7353 837.651 27.9893C836.926 26.9655 836.5 25.7151 836.5 24.3651V17.6589C836.5 17.0847 836.423 16.5284 836.279 16C836.19 16.4201 836.143 16.8557 836.143 17.3022V24.7218C836.143 25.9473 835.792 27.0908 835.185 28.0572C833.948 27.8459 832.763 27.263 831.808 26.3084L827.066 21.5664C826.66 21.1604 826.213 20.8216 825.737 20.55C825.971 20.9097 826.246 21.2507 826.562 21.5664L831.808 26.8129C832.675 27.6795 833.235 28.7363 833.489 29.8489C832.465 30.5739 831.215 31 829.865 31H823.159C822.585 31 822.028 31.0771 821.5 31.2215C821.92 31.3101 822.356 31.3567 822.802 31.3567H830.222C831.447 31.3567 832.591 31.7079 833.557 32.3151C833.346 33.5515 832.763 34.7369 831.808 35.6915L827.066 40.4337C826.66 40.8397 826.322 41.2875 826.05 41.7633C826.41 41.5288 826.751 41.2537 827.066 40.9381L832.313 35.6915C833.179 34.825 834.236 34.2648 835.349 34.0107C836.074 35.0345 836.5 36.285 836.5 37.635V44.3412C836.5 44.9153 836.577 45.4716 836.722 46C836.81 45.5799 836.857 45.1443 836.857 44.6979V37.2781C836.857 36.0526 837.208 34.9092 837.815 33.9429C839.052 34.1541 840.237 34.7369 841.192 35.6915L845.934 40.4337C846.34 40.8397 846.787 41.1784 847.263 41.4501C847.029 41.0902 846.754 40.7493 846.438 40.4337L841.192 35.1871C840.325 34.3206 839.765 33.2637 839.511 32.1511C840.535 31.426 841.785 31 843.135 31H849.841Z" fill="#AFA1F7"/>
</g>
</g>
<path d="M858.62 36.5V26.42H859.649V35.513H864.437V36.5H858.62ZM864.93 36.5L868.402 26.42H869.767L873.239 36.5H872.168L868.871 26.994H869.277L866.001 36.5H864.93ZM866.477 34.057V33.091H871.685V34.057H866.477ZM874.503 36.5V26.42H875.539L881.09 34.68V26.42H882.126V36.5H881.09L875.539 28.233V36.5H874.503ZM884.087 36.5V26.42H887.146C887.254 26.42 887.436 26.4223 887.692 26.427C887.954 26.4317 888.203 26.4503 888.441 26.483C889.207 26.5903 889.846 26.875 890.359 27.337C890.873 27.799 891.258 28.387 891.514 29.101C891.771 29.815 891.899 30.6013 891.899 31.46C891.899 32.3187 891.771 33.105 891.514 33.819C891.258 34.533 890.873 35.121 890.359 35.583C889.846 36.045 889.207 36.3297 888.441 36.437C888.208 36.465 887.958 36.4837 887.692 36.493C887.426 36.4977 887.244 36.5 887.146 36.5H884.087ZM885.151 35.513H887.146C887.338 35.513 887.543 35.5083 887.762 35.499C887.986 35.485 888.178 35.4617 888.336 35.429C888.924 35.3263 889.398 35.0883 889.757 34.715C890.121 34.3417 890.387 33.875 890.555 33.315C890.723 32.7503 890.807 32.132 890.807 31.46C890.807 30.7833 890.723 30.1627 890.555 29.598C890.387 29.0333 890.121 28.5667 889.757 28.198C889.393 27.8293 888.92 27.5937 888.336 27.491C888.178 27.4583 887.984 27.4373 887.755 27.428C887.531 27.414 887.328 27.407 887.146 27.407H885.151V35.513ZM896.994 36.71C896.289 36.71 895.654 36.5933 895.09 36.36C894.53 36.122 894.065 35.786 893.697 35.352C893.333 34.918 893.095 34.4023 892.983 33.805L894.033 33.63C894.201 34.2833 894.555 34.7967 895.097 35.17C895.638 35.5387 896.284 35.723 897.036 35.723C897.53 35.723 897.974 35.646 898.366 35.492C898.758 35.3333 899.066 35.1093 899.29 34.82C899.514 34.5307 899.626 34.1877 899.626 33.791C899.626 33.5297 899.579 33.308 899.486 33.126C899.392 32.9393 899.269 32.7853 899.115 32.664C898.961 32.5427 898.793 32.4423 898.611 32.363C898.429 32.279 898.251 32.2113 898.079 32.16L895.524 31.397C895.216 31.3083 894.931 31.1963 894.67 31.061C894.408 30.921 894.18 30.7553 893.984 30.564C893.792 30.368 893.643 30.1393 893.536 29.878C893.428 29.6167 893.375 29.318 893.375 28.982C893.375 28.4127 893.524 27.9203 893.823 27.505C894.121 27.0897 894.53 26.77 895.048 26.546C895.566 26.322 896.156 26.2123 896.819 26.217C897.491 26.217 898.09 26.336 898.618 26.574C899.15 26.812 899.588 27.1527 899.934 27.596C900.279 28.0347 900.508 28.555 900.62 29.157L899.542 29.353C899.472 28.9143 899.311 28.534 899.059 28.212C898.807 27.89 898.485 27.6427 898.093 27.47C897.705 27.2927 897.278 27.2017 896.812 27.197C896.359 27.197 895.955 27.274 895.601 27.428C895.251 27.5773 894.973 27.7827 894.768 28.044C894.562 28.3053 894.46 28.604 894.46 28.94C894.46 29.2807 894.553 29.5537 894.74 29.759C894.931 29.9643 895.164 30.1253 895.44 30.242C895.72 30.3587 895.99 30.4543 896.252 30.529L898.226 31.11C898.431 31.166 898.671 31.2477 898.947 31.355C899.227 31.4577 899.497 31.607 899.759 31.803C900.025 31.9943 900.244 32.2463 900.417 32.559C900.589 32.8717 900.676 33.2683 900.676 33.749C900.676 34.2157 900.582 34.6333 900.396 35.002C900.214 35.3707 899.955 35.681 899.619 35.933C899.287 36.185 898.898 36.3763 898.45 36.507C898.006 36.6423 897.521 36.71 896.994 36.71ZM906.202 36.71C905.198 36.71 904.351 36.4883 903.661 36.045C902.97 35.597 902.447 34.9787 902.093 34.19C901.738 33.4013 901.561 32.4913 901.561 31.46C901.561 30.4287 901.738 29.5187 902.093 28.73C902.447 27.9413 902.97 27.3253 903.661 26.882C904.351 26.434 905.198 26.21 906.202 26.21C907.373 26.21 908.33 26.511 909.072 27.113C909.814 27.7103 910.322 28.513 910.598 29.521L909.548 29.794C909.333 28.996 908.948 28.3637 908.393 27.897C907.837 27.4303 907.107 27.197 906.202 27.197C905.413 27.197 904.757 27.3767 904.235 27.736C903.712 28.0953 903.318 28.597 903.052 29.241C902.79 29.8803 902.655 30.62 902.646 31.46C902.641 32.3 902.769 33.0397 903.031 33.679C903.297 34.3183 903.693 34.82 904.221 35.184C904.753 35.5433 905.413 35.723 906.202 35.723C907.107 35.723 907.837 35.4897 908.393 35.023C908.948 34.5517 909.333 33.9193 909.548 33.126L910.598 33.399C910.322 34.407 909.814 35.212 909.072 35.814C908.33 36.4113 907.373 36.71 906.202 36.71ZM911.169 36.5L914.641 26.42H916.006L919.478 36.5H918.407L915.11 26.994H915.516L912.24 36.5H911.169ZM912.716 34.057V33.091H917.924V34.057H912.716ZM920.742 36.5V26.42H924.634C924.732 26.42 924.841 26.4247 924.963 26.434C925.089 26.4387 925.215 26.4527 925.341 26.476C925.868 26.5553 926.314 26.7397 926.678 27.029C927.046 27.3137 927.324 27.673 927.511 28.107C927.702 28.541 927.798 29.0217 927.798 29.549C927.798 30.0717 927.702 30.55 927.511 30.984C927.319 31.418 927.039 31.7797 926.671 32.069C926.307 32.3537 925.863 32.5357 925.341 32.615C925.215 32.6337 925.089 32.6477 924.963 32.657C924.841 32.6663 924.732 32.671 924.634 32.671H921.771V36.5H920.742ZM921.771 31.691H924.606C924.69 31.691 924.788 31.6863 924.9 31.677C925.012 31.6677 925.121 31.6513 925.229 31.628C925.574 31.5533 925.856 31.411 926.076 31.201C926.3 30.991 926.465 30.7413 926.573 30.452C926.685 30.1627 926.741 29.8617 926.741 29.549C926.741 29.2363 926.685 28.9353 926.573 28.646C926.465 28.352 926.3 28.1 926.076 27.89C925.856 27.68 925.574 27.5377 925.229 27.463C925.121 27.4397 925.012 27.4257 924.9 27.421C924.788 27.4117 924.69 27.407 924.606 27.407H921.771V31.691ZM929.191 36.5V26.42H935.491V27.407H930.22V30.893H934.651V31.88H930.22V35.513H935.491V36.5H929.191ZM939.978 36.5V26.42H943.87C943.968 26.42 944.078 26.4247 944.199 26.434C944.325 26.4387 944.451 26.4527 944.577 26.476C945.104 26.5553 945.55 26.7397 945.914 27.029C946.283 27.3137 946.56 27.673 946.747 28.107C946.938 28.541 947.034 29.0217 947.034 29.549C947.034 30.0717 946.938 30.55 946.747 30.984C946.556 31.418 946.276 31.7797 945.907 32.069C945.543 32.3537 945.1 32.5357 944.577 32.615C944.451 32.6337 944.325 32.6477 944.199 32.657C944.078 32.6663 943.968 32.671 943.87 32.671H941.007V36.5H939.978ZM941.007 31.691H943.842C943.926 31.691 944.024 31.6863 944.136 31.677C944.248 31.6677 944.358 31.6513 944.465 31.628C944.81 31.5533 945.093 31.411 945.312 31.201C945.536 30.991 945.702 30.7413 945.809 30.452C945.921 30.1627 945.977 29.8617 945.977 29.549C945.977 29.2363 945.921 28.9353 945.809 28.646C945.702 28.352 945.536 28.1 945.312 27.89C945.093 27.68 944.81 27.5377 944.465 27.463C944.358 27.4397 944.248 27.4257 944.136 27.421C944.024 27.4117 943.926 27.407 943.842 27.407H941.007V31.691ZM948.427 36.5V26.42H949.456V30.963H955.028V26.42H956.05V36.5H955.028V31.95H949.456V36.5H948.427ZM962.092 36.71C961.089 36.71 960.242 36.4883 959.551 36.045C958.861 35.597 958.338 34.9787 957.983 34.19C957.629 33.4013 957.451 32.4913 957.451 31.46C957.451 30.4287 957.629 29.5187 957.983 28.73C958.338 27.9413 958.861 27.3253 959.551 26.882C960.242 26.434 961.089 26.21 962.092 26.21C963.1 26.21 963.947 26.434 964.633 26.882C965.324 27.3253 965.847 27.9413 966.201 28.73C966.561 29.5187 966.74 30.4287 966.74 31.46C966.74 32.4913 966.561 33.4013 966.201 34.19C965.847 34.9787 965.324 35.597 964.633 36.045C963.947 36.4883 963.1 36.71 962.092 36.71ZM962.092 35.723C962.881 35.723 963.539 35.5433 964.066 35.184C964.594 34.8247 964.988 34.3253 965.249 33.686C965.515 33.042 965.648 32.3 965.648 31.46C965.648 30.62 965.515 29.8803 965.249 29.241C964.988 28.6017 964.594 28.1023 964.066 27.743C963.539 27.3837 962.881 27.2017 962.092 27.197C961.304 27.197 960.648 27.3767 960.125 27.736C959.603 28.0953 959.208 28.597 958.942 29.241C958.681 29.8803 958.548 30.62 958.543 31.46C958.539 32.3 958.667 33.0397 958.928 33.679C959.194 34.3137 959.591 34.813 960.118 35.177C960.646 35.5363 961.304 35.7183 962.092 35.723ZM970.55 36.5V27.407H967.029V26.42H975.1V27.407H971.579V36.5H970.55ZM980.303 36.71C979.3 36.71 978.453 36.4883 977.762 36.045C977.072 35.597 976.549 34.9787 976.194 34.19C975.84 33.4013 975.662 32.4913 975.662 31.46C975.662 30.4287 975.84 29.5187 976.194 28.73C976.549 27.9413 977.072 27.3253 977.762 26.882C978.453 26.434 979.3 26.21 980.303 26.21C981.311 26.21 982.158 26.434 982.844 26.882C983.535 27.3253 984.058 27.9413 984.412 28.73C984.772 29.5187 984.951 30.4287 984.951 31.46C984.951 32.4913 984.772 33.4013 984.412 34.19C984.058 34.9787 983.535 35.597 982.844 36.045C982.158 36.4883 981.311 36.71 980.303 36.71ZM980.303 35.723C981.092 35.723 981.75 35.5433 982.277 35.184C982.805 34.8247 983.199 34.3253 983.46 33.686C983.726 33.042 983.859 32.3 983.859 31.46C983.859 30.62 983.726 29.8803 983.46 29.241C983.199 28.6017 982.805 28.1023 982.277 27.743C981.75 27.3837 981.092 27.2017 980.303 27.197C979.515 27.197 978.859 27.3767 978.336 27.736C977.814 28.0953 977.419 28.597 977.153 29.241C976.892 29.8803 976.759 30.62 976.754 31.46C976.75 32.3 976.878 33.0397 977.139 33.679C977.405 34.3137 977.802 34.813 978.329 35.177C978.857 35.5363 979.515 35.7183 980.303 35.723ZM990.392 36.71C989.683 36.71 989.043 36.5863 988.474 36.339C987.905 36.0917 987.419 35.7393 987.018 35.282C986.621 34.8247 986.318 34.274 986.108 33.63C985.898 32.9813 985.793 32.258 985.793 31.46C985.793 30.4053 985.975 29.486 986.339 28.702C986.708 27.9133 987.235 27.302 987.921 26.868C988.607 26.434 989.431 26.217 990.392 26.217C991.465 26.217 992.338 26.469 993.01 26.973C993.687 27.4723 994.158 28.1443 994.424 28.989L993.388 29.241C993.169 28.625 992.807 28.1327 992.303 27.764C991.804 27.3953 991.181 27.211 990.434 27.211C989.645 27.2063 988.99 27.3837 988.467 27.743C987.944 28.0977 987.55 28.597 987.284 29.241C987.023 29.8803 986.89 30.62 986.885 31.46C986.88 32.3 987.009 33.0397 987.27 33.679C987.536 34.3137 987.933 34.813 988.46 35.177C988.987 35.5363 989.645 35.7183 990.434 35.723C991.157 35.723 991.755 35.583 992.226 35.303C992.697 35.023 993.054 34.6217 993.297 34.099C993.544 33.5763 993.684 32.958 993.717 32.244H991.393V31.362H994.795C994.809 31.4693 994.816 31.5837 994.816 31.705C994.821 31.8217 994.823 31.9057 994.823 31.957C994.823 32.867 994.66 33.6813 994.333 34.4C994.006 35.114 993.514 35.6787 992.856 36.094C992.203 36.5047 991.381 36.71 990.392 36.71ZM996.224 36.5V26.42H1000.12C1000.21 26.42 1000.32 26.4247 1000.45 26.434C1000.57 26.4387 1000.7 26.4527 1000.82 26.476C1001.35 26.5553 1001.8 26.7397 1002.16 27.029C1002.53 27.3137 1002.81 27.673 1002.99 28.107C1003.18 28.541 1003.28 29.0217 1003.28 29.549C1003.28 30.3097 1003.08 30.97 1002.68 31.53C1002.28 32.09 1001.7 32.4423 1000.96 32.587L1000.6 32.671H997.253V36.5H996.224ZM1002.33 36.5L1000.34 32.398L1001.33 32.02L1003.51 36.5H1002.33ZM997.253 31.691H1000.09C1000.17 31.691 1000.27 31.6863 1000.38 31.677C1000.49 31.6677 1000.6 31.6513 1000.71 31.628C1001.06 31.5533 1001.34 31.411 1001.56 31.201C1001.78 30.991 1001.95 30.7413 1002.06 30.452C1002.17 30.1627 1002.22 29.8617 1002.22 29.549C1002.22 29.2363 1002.17 28.9353 1002.06 28.646C1001.95 28.352 1001.78 28.1 1001.56 27.89C1001.34 27.68 1001.06 27.5377 1000.71 27.463C1000.6 27.4397 1000.49 27.4257 1000.38 27.421C1000.27 27.4117 1000.17 27.407 1000.09 27.407H997.253V31.691ZM1004.36 36.5L1007.83 26.42H1009.19L1012.67 36.5H1011.59L1008.3 26.994H1008.7L1005.43 36.5H1004.36ZM1005.9 34.057V33.091H1011.11V34.057H1005.9ZM1013.93 36.5V26.42H1017.82C1017.92 26.42 1018.03 26.4247 1018.15 26.434C1018.28 26.4387 1018.4 26.4527 1018.53 26.476C1019.06 26.5553 1019.5 26.7397 1019.87 27.029C1020.23 27.3137 1020.51 27.673 1020.7 28.107C1020.89 28.541 1020.99 29.0217 1020.99 29.549C1020.99 30.0717 1020.89 30.55 1020.7 30.984C1020.51 31.418 1020.23 31.7797 1019.86 32.069C1019.49 32.3537 1019.05 32.5357 1018.53 32.615C1018.4 32.6337 1018.28 32.6477 1018.15 32.657C1018.03 32.6663 1017.92 32.671 1017.82 32.671H1014.96V36.5H1013.93ZM1014.96 31.691H1017.79C1017.88 31.691 1017.98 31.6863 1018.09 31.677C1018.2 31.6677 1018.31 31.6513 1018.42 31.628C1018.76 31.5533 1019.04 31.411 1019.26 31.201C1019.49 30.991 1019.65 30.7413 1019.76 30.452C1019.87 30.1627 1019.93 29.8617 1019.93 29.549C1019.93 29.2363 1019.87 28.9353 1019.76 28.646C1019.65 28.352 1019.49 28.1 1019.26 27.89C1019.04 27.68 1018.76 27.5377 1018.42 27.463C1018.31 27.4397 1018.2 27.4257 1018.09 27.421C1017.98 27.4117 1017.88 27.407 1017.79 27.407H1014.96V31.691ZM1022.38 36.5V26.42H1023.41V30.963H1028.98V26.42H1030V36.5H1028.98V31.95H1023.41V36.5H1022.38ZM1034.36 36.5V32.279L1030.98 26.42H1032.17L1034.88 31.103L1037.58 26.42H1038.77L1035.4 32.279V36.5H1034.36Z" fill="#D7D0FB"/>
<g clip-path="url(#clip5_157_3711)">
<mask id="mask4_157_3711" style="mask-type:luminance" maskUnits="userSpaceOnUse" x="1055" y="16" width="31" height="30">
<path d="M1085.5 16H1055.5V46H1085.5V16Z" fill="white"/>
</mask>
<g mask="url(#mask4_157_3711)">
<path fill-rule="evenodd" clip-rule="evenodd" d="M1083.84 31C1084.42 31 1084.97 30.9229 1085.5 30.7785C1085.08 30.6899 1084.64 30.6433 1084.2 30.6433H1076.78C1075.55 30.6433 1074.41 30.2922 1073.44 29.685C1073.65 28.4484 1074.24 27.263 1075.19 26.3084L1079.93 21.5664C1080.34 21.1604 1080.68 20.7125 1080.95 20.2368C1080.59 20.4712 1080.25 20.7462 1079.93 21.0619L1074.69 26.3084C1073.82 27.175 1072.76 27.7353 1071.65 27.9893C1070.93 26.9655 1070.5 25.7151 1070.5 24.3651V17.6589C1070.5 17.0847 1070.42 16.5284 1070.28 16C1070.19 16.4201 1070.14 16.8557 1070.14 17.3022V24.7218C1070.14 25.9473 1069.79 27.0908 1069.19 28.0572C1067.95 27.8459 1066.76 27.263 1065.81 26.3084L1061.07 21.5664C1060.66 21.1604 1060.21 20.8216 1059.74 20.55C1059.97 20.9097 1060.25 21.2507 1060.56 21.5664L1065.81 26.8129C1066.67 27.6795 1067.24 28.7363 1067.49 29.8489C1066.47 30.5739 1065.22 31 1063.87 31H1057.16C1056.58 31 1056.03 31.0771 1055.5 31.2215C1055.92 31.3101 1056.36 31.3567 1056.8 31.3567H1064.22C1065.45 31.3567 1066.59 31.7079 1067.56 32.3151C1067.35 33.5515 1066.76 34.7369 1065.81 35.6915L1061.07 40.4337C1060.66 40.8397 1060.32 41.2875 1060.05 41.7633C1060.41 41.5288 1060.75 41.2537 1061.07 40.9381L1066.31 35.6915C1067.18 34.825 1068.24 34.2648 1069.35 34.0107C1070.07 35.0345 1070.5 36.285 1070.5 37.635V44.3412C1070.5 44.9153 1070.58 45.4716 1070.72 46C1070.81 45.5799 1070.86 45.1443 1070.86 44.6979V37.2781C1070.86 36.0526 1071.21 34.9092 1071.82 33.9429C1073.05 34.1541 1074.24 34.7369 1075.19 35.6915L1079.93 40.4337C1080.34 40.8397 1080.79 41.1784 1081.26 41.4501C1081.03 41.0902 1080.75 40.7493 1080.44 40.4337L1075.19 35.1871C1074.32 34.3206 1073.76 33.2637 1073.51 32.1511C1074.53 31.426 1075.78 31 1077.13 31H1083.84Z" fill="#AFA1F7"/>
</g>
</g>
<path d="M1092.48 36.5V26.42H1096.37C1096.94 26.42 1097.43 26.5367 1097.85 26.77C1098.27 27.0033 1098.6 27.3183 1098.83 27.715C1099.06 28.107 1099.18 28.541 1099.18 29.017C1099.18 29.5583 1099.03 30.0413 1098.75 30.466C1098.46 30.886 1098.07 31.1777 1097.58 31.341L1097.57 30.998C1098.22 31.1847 1098.74 31.5113 1099.11 31.978C1099.48 32.4447 1099.67 33.0093 1099.67 33.672C1099.67 34.2553 1099.55 34.7593 1099.3 35.184C1099.05 35.604 1098.7 35.9283 1098.26 36.157C1097.81 36.3857 1097.29 36.5 1096.69 36.5H1092.48ZM1093.52 35.513H1096.44C1096.85 35.513 1097.22 35.4407 1097.55 35.296C1097.87 35.1467 1098.13 34.9367 1098.32 34.666C1098.51 34.3953 1098.61 34.0687 1098.61 33.686C1098.61 33.3127 1098.52 32.9767 1098.35 32.678C1098.17 32.3793 1097.94 32.1413 1097.64 31.964C1097.35 31.782 1097.01 31.691 1096.63 31.691H1093.52V35.513ZM1093.52 30.718H1096.37C1096.69 30.718 1096.98 30.6457 1097.25 30.501C1097.51 30.3517 1097.72 30.1487 1097.88 29.892C1098.04 29.6353 1098.12 29.339 1098.12 29.003C1098.12 28.527 1097.95 28.1397 1097.62 27.841C1097.29 27.5423 1096.87 27.393 1096.37 27.393H1093.52V30.718ZM1101.07 36.5V26.42H1104.96C1105.06 26.42 1105.17 26.4247 1105.29 26.434C1105.41 26.4387 1105.54 26.4527 1105.66 26.476C1106.19 26.5553 1106.64 26.7397 1107 27.029C1107.37 27.3137 1107.65 27.673 1107.83 28.107C1108.03 28.541 1108.12 29.0217 1108.12 29.549C1108.12 30.3097 1107.92 30.97 1107.52 31.53C1107.12 32.09 1106.54 32.4423 1105.8 32.587L1105.44 32.671H1102.09V36.5H1101.07ZM1107.17 36.5L1105.18 32.398L1106.17 32.02L1108.35 36.5H1107.17ZM1102.09 31.691H1104.93C1105.01 31.691 1105.11 31.6863 1105.22 31.677C1105.34 31.6677 1105.45 31.6513 1105.55 31.628C1105.9 31.5533 1106.18 31.411 1106.4 31.201C1106.62 30.991 1106.79 30.7413 1106.9 30.452C1107.01 30.1627 1107.06 29.8617 1107.06 29.549C1107.06 29.2363 1107.01 28.9353 1106.9 28.646C1106.79 28.352 1106.62 28.1 1106.4 27.89C1106.18 27.68 1105.9 27.5377 1105.55 27.463C1105.45 27.4397 1105.34 27.4257 1105.22 27.421C1105.11 27.4117 1105.01 27.407 1104.93 27.407H1102.09V31.691ZM1109.2 36.5L1112.67 26.42H1114.03L1117.51 36.5H1116.44L1113.14 26.994H1113.54L1110.27 36.5H1109.2ZM1110.74 34.057V33.091H1115.95V34.057H1110.74ZM1118.77 36.5V26.42H1119.81L1125.36 34.68V26.42H1126.39V36.5H1125.36L1119.81 28.233V36.5H1118.77ZM1128.36 36.5V26.42H1131.41C1131.52 26.42 1131.7 26.4223 1131.96 26.427C1132.22 26.4317 1132.47 26.4503 1132.71 26.483C1133.47 26.5903 1134.11 26.875 1134.63 27.337C1135.14 27.799 1135.53 28.387 1135.78 29.101C1136.04 29.815 1136.17 30.6013 1136.17 31.46C1136.17 32.3187 1136.04 33.105 1135.78 33.819C1135.53 34.533 1135.14 35.121 1134.63 35.583C1134.11 36.045 1133.47 36.3297 1132.71 36.437C1132.48 36.465 1132.23 36.4837 1131.96 36.493C1131.69 36.4977 1131.51 36.5 1131.41 36.5H1128.36ZM1129.42 35.513H1131.41C1131.61 35.513 1131.81 35.5083 1132.03 35.499C1132.25 35.485 1132.45 35.4617 1132.6 35.429C1133.19 35.3263 1133.67 35.0883 1134.03 34.715C1134.39 34.3417 1134.66 33.875 1134.82 33.315C1134.99 32.7503 1135.08 32.132 1135.08 31.46C1135.08 30.7833 1134.99 30.1627 1134.82 29.598C1134.66 29.0333 1134.39 28.5667 1134.03 28.198C1133.66 27.8293 1133.19 27.5937 1132.6 27.491C1132.45 27.4583 1132.25 27.4373 1132.02 27.428C1131.8 27.414 1131.6 27.407 1131.41 27.407H1129.42V35.513ZM1137.9 36.5V26.42H1138.93V36.5H1137.9ZM1141.03 36.5V26.42H1142.06L1147.62 34.68V26.42H1148.65V36.5H1147.62L1142.06 28.233V36.5H1141.03ZM1154.65 36.71C1153.94 36.71 1153.3 36.5863 1152.73 36.339C1152.16 36.0917 1151.68 35.7393 1151.28 35.282C1150.88 34.8247 1150.58 34.274 1150.37 33.63C1150.16 32.9813 1150.05 32.258 1150.05 31.46C1150.05 30.4053 1150.23 29.486 1150.6 28.702C1150.97 27.9133 1151.49 27.302 1152.18 26.868C1152.87 26.434 1153.69 26.217 1154.65 26.217C1155.73 26.217 1156.6 26.469 1157.27 26.973C1157.95 27.4723 1158.42 28.1443 1158.68 28.989L1157.65 29.241C1157.43 28.625 1157.07 28.1327 1156.56 27.764C1156.06 27.3953 1155.44 27.211 1154.69 27.211C1153.91 27.2063 1153.25 27.3837 1152.73 27.743C1152.2 28.0977 1151.81 28.597 1151.54 29.241C1151.28 29.8803 1151.15 30.62 1151.14 31.46C1151.14 32.3 1151.27 33.0397 1151.53 33.679C1151.8 34.3137 1152.19 34.813 1152.72 35.177C1153.25 35.5363 1153.91 35.7183 1154.69 35.723C1155.42 35.723 1156.01 35.583 1156.49 35.303C1156.96 35.023 1157.31 34.6217 1157.56 34.099C1157.8 33.5763 1157.94 32.958 1157.98 32.244H1155.65V31.362H1159.05C1159.07 31.4693 1159.08 31.5837 1159.08 31.705C1159.08 31.8217 1159.08 31.9057 1159.08 31.957C1159.08 32.867 1158.92 33.6813 1158.59 34.4C1158.27 35.114 1157.77 35.6787 1157.12 36.094C1156.46 36.5047 1155.64 36.71 1154.65 36.71ZM1163.29 36.5V26.42H1167.18C1167.28 26.42 1167.39 26.4247 1167.51 26.434C1167.63 26.4387 1167.76 26.4527 1167.89 26.476C1168.41 26.5553 1168.86 26.7397 1169.22 27.029C1169.59 27.3137 1169.87 27.673 1170.06 28.107C1170.25 28.541 1170.34 29.0217 1170.34 29.549C1170.34 30.0717 1170.25 30.55 1170.06 30.984C1169.86 31.418 1169.58 31.7797 1169.22 32.069C1168.85 32.3537 1168.41 32.5357 1167.89 32.615C1167.76 32.6337 1167.63 32.6477 1167.51 32.657C1167.39 32.6663 1167.28 32.671 1167.18 32.671H1164.32V36.5H1163.29ZM1164.32 31.691H1167.15C1167.23 31.691 1167.33 31.6863 1167.44 31.677C1167.56 31.6677 1167.67 31.6513 1167.77 31.628C1168.12 31.5533 1168.4 31.411 1168.62 31.201C1168.84 30.991 1169.01 30.7413 1169.12 30.452C1169.23 30.1627 1169.29 29.8617 1169.29 29.549C1169.29 29.2363 1169.23 28.9353 1169.12 28.646C1169.01 28.352 1168.84 28.1 1168.62 27.89C1168.4 27.68 1168.12 27.5377 1167.77 27.463C1167.67 27.4397 1167.56 27.4257 1167.44 27.421C1167.33 27.4117 1167.23 27.407 1167.15 27.407H1164.32V31.691ZM1171.74 36.5V26.42H1172.76V30.963H1178.34V26.42H1179.36V36.5H1178.34V31.95H1172.76V36.5H1171.74ZM1185.4 36.71C1184.4 36.71 1183.55 36.4883 1182.86 36.045C1182.17 35.597 1181.65 34.9787 1181.29 34.19C1180.94 33.4013 1180.76 32.4913 1180.76 31.46C1180.76 30.4287 1180.94 29.5187 1181.29 28.73C1181.65 27.9413 1182.17 27.3253 1182.86 26.882C1183.55 26.434 1184.4 26.21 1185.4 26.21C1186.41 26.21 1187.26 26.434 1187.94 26.882C1188.63 27.3253 1189.16 27.9413 1189.51 28.73C1189.87 29.5187 1190.05 30.4287 1190.05 31.46C1190.05 32.4913 1189.87 33.4013 1189.51 34.19C1189.16 34.9787 1188.63 35.597 1187.94 36.045C1187.26 36.4883 1186.41 36.71 1185.4 36.71ZM1185.4 35.723C1186.19 35.723 1186.85 35.5433 1187.37 35.184C1187.9 34.8247 1188.3 34.3253 1188.56 33.686C1188.82 33.042 1188.96 32.3 1188.96 31.46C1188.96 30.62 1188.82 29.8803 1188.56 29.241C1188.3 28.6017 1187.9 28.1023 1187.37 27.743C1186.85 27.3837 1186.19 27.2017 1185.4 27.197C1184.61 27.197 1183.96 27.3767 1183.43 27.736C1182.91 28.0953 1182.52 28.597 1182.25 29.241C1181.99 29.8803 1181.86 30.62 1181.85 31.46C1181.85 32.3 1181.98 33.0397 1182.24 33.679C1182.5 34.3137 1182.9 34.813 1183.43 35.177C1183.95 35.5363 1184.61 35.7183 1185.4 35.723ZM1193.86 36.5V27.407H1190.34V26.42H1198.41V27.407H1194.89V36.5H1193.86ZM1203.61 36.71C1202.61 36.71 1201.76 36.4883 1201.07 36.045C1200.38 35.597 1199.86 34.9787 1199.5 34.19C1199.15 33.4013 1198.97 32.4913 1198.97 31.46C1198.97 30.4287 1199.15 29.5187 1199.5 28.73C1199.86 27.9413 1200.38 27.3253 1201.07 26.882C1201.76 26.434 1202.61 26.21 1203.61 26.21C1204.62 26.21 1205.47 26.434 1206.15 26.882C1206.84 27.3253 1207.37 27.9413 1207.72 28.73C1208.08 29.5187 1208.26 30.4287 1208.26 31.46C1208.26 32.4913 1208.08 33.4013 1207.72 34.19C1207.37 34.9787 1206.84 35.597 1206.15 36.045C1205.47 36.4883 1204.62 36.71 1203.61 36.71ZM1203.61 35.723C1204.4 35.723 1205.06 35.5433 1205.59 35.184C1206.11 34.8247 1206.51 34.3253 1206.77 33.686C1207.03 33.042 1207.17 32.3 1207.17 31.46C1207.17 30.62 1207.03 29.8803 1206.77 29.241C1206.51 28.6017 1206.11 28.1023 1205.59 27.743C1205.06 27.3837 1204.4 27.2017 1203.61 27.197C1202.82 27.197 1202.17 27.3767 1201.64 27.736C1201.12 28.0953 1200.73 28.597 1200.46 29.241C1200.2 29.8803 1200.07 30.62 1200.06 31.46C1200.06 32.3 1200.19 33.0397 1200.45 33.679C1200.71 34.3137 1201.11 34.813 1201.64 35.177C1202.17 35.5363 1202.82 35.7183 1203.61 35.723ZM1213.7 36.71C1212.99 36.71 1212.35 36.5863 1211.78 36.339C1211.21 36.0917 1210.73 35.7393 1210.33 35.282C1209.93 34.8247 1209.63 34.274 1209.42 33.63C1209.21 32.9813 1209.1 32.258 1209.1 31.46C1209.1 30.4053 1209.28 29.486 1209.65 28.702C1210.02 27.9133 1210.54 27.302 1211.23 26.868C1211.92 26.434 1212.74 26.217 1213.7 26.217C1214.77 26.217 1215.65 26.469 1216.32 26.973C1217 27.4723 1217.47 28.1443 1217.73 28.989L1216.7 29.241C1216.48 28.625 1216.12 28.1327 1215.61 27.764C1215.11 27.3953 1214.49 27.211 1213.74 27.211C1212.95 27.2063 1212.3 27.3837 1211.78 27.743C1211.25 28.0977 1210.86 28.597 1210.59 29.241C1210.33 29.8803 1210.2 30.62 1210.19 31.46C1210.19 32.3 1210.32 33.0397 1210.58 33.679C1210.84 34.3137 1211.24 34.813 1211.77 35.177C1212.3 35.5363 1212.95 35.7183 1213.74 35.723C1214.47 35.723 1215.06 35.583 1215.53 35.303C1216.01 35.023 1216.36 34.6217 1216.61 34.099C1216.85 33.5763 1216.99 32.958 1217.03 32.244H1214.7V31.362H1218.1C1218.12 31.4693 1218.12 31.5837 1218.12 31.705C1218.13 31.8217 1218.13 31.9057 1218.13 31.957C1218.13 32.867 1217.97 33.6813 1217.64 34.4C1217.31 35.114 1216.82 35.6787 1216.16 36.094C1215.51 36.5047 1214.69 36.71 1213.7 36.71ZM1219.53 36.5V26.42H1223.42C1223.52 26.42 1223.63 26.4247 1223.75 26.434C1223.88 26.4387 1224.01 26.4527 1224.13 26.476C1224.66 26.5553 1225.1 26.7397 1225.47 27.029C1225.84 27.3137 1226.12 27.673 1226.3 28.107C1226.49 28.541 1226.59 29.0217 1226.59 29.549C1226.59 30.3097 1226.39 30.97 1225.99 31.53C1225.59 32.09 1225.01 32.4423 1224.26 32.587L1223.91 32.671H1220.56V36.5H1219.53ZM1225.64 36.5L1223.65 32.398L1224.64 32.02L1226.82 36.5H1225.64ZM1220.56 31.691H1223.4C1223.48 31.691 1223.58 31.6863 1223.69 31.677C1223.8 31.6677 1223.91 31.6513 1224.02 31.628C1224.37 31.5533 1224.65 31.411 1224.87 31.201C1225.09 30.991 1225.26 30.7413 1225.36 30.452C1225.48 30.1627 1225.53 29.8617 1225.53 29.549C1225.53 29.2363 1225.48 28.9353 1225.36 28.646C1225.26 28.352 1225.09 28.1 1224.87 27.89C1224.65 27.68 1224.37 27.5377 1224.02 27.463C1223.91 27.4397 1223.8 27.4257 1223.69 27.421C1223.58 27.4117 1223.48 27.407 1223.4 27.407H1220.56V31.691ZM1227.66 36.5L1231.14 26.42H1232.5L1235.97 36.5H1234.9L1231.61 26.994H1232.01L1228.74 36.5H1227.66ZM1229.21 34.057V33.091H1234.42V34.057H1229.21ZM1237.24 36.5V26.42H1241.13C1241.23 26.42 1241.34 26.4247 1241.46 26.434C1241.58 26.4387 1241.71 26.4527 1241.84 26.476C1242.36 26.5553 1242.81 26.7397 1243.17 27.029C1243.54 27.3137 1243.82 27.673 1244.01 28.107C1244.2 28.541 1244.29 29.0217 1244.29 29.549C1244.29 30.0717 1244.2 30.55 1244.01 30.984C1243.82 31.418 1243.54 31.7797 1243.17 32.069C1242.8 32.3537 1242.36 32.5357 1241.84 32.615C1241.71 32.6337 1241.58 32.6477 1241.46 32.657C1241.34 32.6663 1241.23 32.671 1241.13 32.671H1238.27V36.5H1237.24ZM1238.27 31.691H1241.1C1241.19 31.691 1241.28 31.6863 1241.4 31.677C1241.51 31.6677 1241.62 31.6513 1241.72 31.628C1242.07 31.5533 1242.35 31.411 1242.57 31.201C1242.8 30.991 1242.96 30.7413 1243.07 30.452C1243.18 30.1627 1243.24 29.8617 1243.24 29.549C1243.24 29.2363 1243.18 28.9353 1243.07 28.646C1242.96 28.352 1242.8 28.1 1242.57 27.89C1242.35 27.68 1242.07 27.5377 1241.72 27.463C1241.62 27.4397 1241.51 27.4257 1241.4 27.421C1241.28 27.4117 1241.19 27.407 1241.1 27.407H1238.27V31.691ZM1245.69 36.5V26.42H1246.72V30.963H1252.29V26.42H1253.31V36.5H1252.29V31.95H1246.72V36.5H1245.69ZM1257.67 36.5V32.279L1254.29 26.42H1255.48L1258.19 31.103L1260.89 26.42H1262.08L1258.71 32.279V36.5H1257.67Z" fill="#D7D0FB"/>
<g clip-path="url(#clip6_157_3711)">
<mask id="mask5_157_3711" style="mask-type:luminance" maskUnits="userSpaceOnUse" x="1278" y="16" width="31" height="30">
<path d="M1308.5 16H1278.5V46H1308.5V16Z" fill="white"/>
</mask>
<g mask="url(#mask5_157_3711)">
<path fill-rule="evenodd" clip-rule="evenodd" d="M1306.84 31C1307.42 31 1307.97 30.9229 1308.5 30.7785C1308.08 30.6899 1307.64 30.6433 1307.2 30.6433H1299.78C1298.55 30.6433 1297.41 30.2922 1296.44 29.685C1296.65 28.4484 1297.24 27.263 1298.19 26.3084L1302.93 21.5664C1303.34 21.1604 1303.68 20.7125 1303.95 20.2368C1303.59 20.4712 1303.25 20.7462 1302.93 21.0619L1297.69 26.3084C1296.82 27.175 1295.76 27.7353 1294.65 27.9893C1293.93 26.9655 1293.5 25.7151 1293.5 24.3651V17.6589C1293.5 17.0847 1293.42 16.5284 1293.28 16C1293.19 16.4201 1293.14 16.8557 1293.14 17.3022V24.7218C1293.14 25.9473 1292.79 27.0908 1292.19 28.0572C1290.95 27.8459 1289.76 27.263 1288.81 26.3084L1284.07 21.5664C1283.66 21.1604 1283.21 20.8216 1282.74 20.55C1282.97 20.9097 1283.25 21.2507 1283.56 21.5664L1288.81 26.8129C1289.67 27.6795 1290.24 28.7363 1290.49 29.8489C1289.47 30.5739 1288.22 31 1286.87 31H1280.16C1279.58 31 1279.03 31.0771 1278.5 31.2215C1278.92 31.3101 1279.36 31.3567 1279.8 31.3567H1287.22C1288.45 31.3567 1289.59 31.7079 1290.56 32.3151C1290.35 33.5515 1289.76 34.7369 1288.81 35.6915L1284.07 40.4337C1283.66 40.8397 1283.32 41.2875 1283.05 41.7633C1283.41 41.5288 1283.75 41.2537 1284.07 40.9381L1289.31 35.6915C1290.18 34.825 1291.24 34.2648 1292.35 34.0107C1293.07 35.0345 1293.5 36.285 1293.5 37.635V44.3412C1293.5 44.9153 1293.58 45.4716 1293.72 46C1293.81 45.5799 1293.86 45.1443 1293.86 44.6979V37.2781C1293.86 36.0526 1294.21 34.9092 1294.82 33.9429C1296.05 34.1541 1297.24 34.7369 1298.19 35.6915L1302.93 40.4337C1303.34 40.8397 1303.79 41.1784 1304.26 41.4501C1304.03 41.0902 1303.75 40.7493 1303.44 40.4337L1298.19 35.1871C1297.32 34.3206 1296.76 33.2637 1296.51 32.1511C1297.53 31.426 1298.78 31 1300.13 31H1306.84Z" fill="#AFA1F7"/>
</g>
</g>
<path d="M1315.48 36.5V26.42H1319.37C1319.47 26.42 1319.58 26.4247 1319.7 26.434C1319.83 26.4387 1319.95 26.4527 1320.08 26.476C1320.61 26.5553 1321.05 26.7397 1321.42 27.029C1321.78 27.3137 1322.06 27.673 1322.25 28.107C1322.44 28.541 1322.54 29.0217 1322.54 29.549C1322.54 30.0717 1322.44 30.55 1322.25 30.984C1322.06 31.418 1321.78 31.7797 1321.41 32.069C1321.05 32.3537 1320.6 32.5357 1320.08 32.615C1319.95 32.6337 1319.83 32.6477 1319.7 32.657C1319.58 32.6663 1319.47 32.671 1319.37 32.671H1316.51V36.5H1315.48ZM1316.51 31.691H1319.34C1319.43 31.691 1319.53 31.6863 1319.64 31.677C1319.75 31.6677 1319.86 31.6513 1319.97 31.628C1320.31 31.5533 1320.59 31.411 1320.81 31.201C1321.04 30.991 1321.2 30.7413 1321.31 30.452C1321.42 30.1627 1321.48 29.8617 1321.48 29.549C1321.48 29.2363 1321.42 28.9353 1321.31 28.646C1321.2 28.352 1321.04 28.1 1320.81 27.89C1320.59 27.68 1320.31 27.5377 1319.97 27.463C1319.86 27.4397 1319.75 27.4257 1319.64 27.421C1319.53 27.4117 1319.43 27.407 1319.34 27.407H1316.51V31.691ZM1328.01 36.71C1327.01 36.71 1326.16 36.4883 1325.47 36.045C1324.78 35.597 1324.26 34.9787 1323.9 34.19C1323.55 33.4013 1323.37 32.4913 1323.37 31.46C1323.37 30.4287 1323.55 29.5187 1323.9 28.73C1324.26 27.9413 1324.78 27.3253 1325.47 26.882C1326.16 26.434 1327.01 26.21 1328.01 26.21C1329.02 26.21 1329.87 26.434 1330.55 26.882C1331.24 27.3253 1331.76 27.9413 1332.12 28.73C1332.48 29.5187 1332.66 30.4287 1332.66 31.46C1332.66 32.4913 1332.48 33.4013 1332.12 34.19C1331.76 34.9787 1331.24 35.597 1330.55 36.045C1329.87 36.4883 1329.02 36.71 1328.01 36.71ZM1328.01 35.723C1328.8 35.723 1329.46 35.5433 1329.98 35.184C1330.51 34.8247 1330.91 34.3253 1331.17 33.686C1331.43 33.042 1331.57 32.3 1331.57 31.46C1331.57 30.62 1331.43 29.8803 1331.17 29.241C1330.91 28.6017 1330.51 28.1023 1329.98 27.743C1329.46 27.3837 1328.8 27.2017 1328.01 27.197C1327.22 27.197 1326.57 27.3767 1326.04 27.736C1325.52 28.0953 1325.13 28.597 1324.86 29.241C1324.6 29.8803 1324.47 30.62 1324.46 31.46C1324.46 32.3 1324.58 33.0397 1324.85 33.679C1325.11 34.3137 1325.51 34.813 1326.04 35.177C1326.56 35.5363 1327.22 35.7183 1328.01 35.723ZM1334.06 36.5V26.42H1337.95C1338.05 26.42 1338.16 26.4247 1338.28 26.434C1338.41 26.4387 1338.53 26.4527 1338.66 26.476C1339.19 26.5553 1339.63 26.7397 1340 27.029C1340.36 27.3137 1340.64 27.673 1340.83 28.107C1341.02 28.541 1341.12 29.0217 1341.12 29.549C1341.12 30.3097 1340.92 30.97 1340.51 31.53C1340.11 32.09 1339.54 32.4423 1338.79 32.587L1338.44 32.671H1335.09V36.5H1334.06ZM1340.16 36.5L1338.18 32.398L1339.16 32.02L1341.35 36.5H1340.16ZM1335.09 31.691H1337.92C1338.01 31.691 1338.11 31.6863 1338.22 31.677C1338.33 31.6677 1338.44 31.6513 1338.55 31.628C1338.89 31.5533 1339.17 31.411 1339.39 31.201C1339.62 30.991 1339.78 30.7413 1339.89 30.452C1340 30.1627 1340.06 29.8617 1340.06 29.549C1340.06 29.2363 1340 28.9353 1339.89 28.646C1339.78 28.352 1339.62 28.1 1339.39 27.89C1339.17 27.68 1338.89 27.5377 1338.55 27.463C1338.44 27.4397 1338.33 27.4257 1338.22 27.421C1338.11 27.4117 1338.01 27.407 1337.92 27.407H1335.09V31.691ZM1345.57 36.5V27.407H1342.05V26.42H1350.12V27.407H1346.6V36.5H1345.57ZM1351.25 36.5V26.42H1355.14C1355.24 26.42 1355.35 26.4247 1355.47 26.434C1355.59 26.4387 1355.72 26.4527 1355.84 26.476C1356.37 26.5553 1356.82 26.7397 1357.18 27.029C1357.55 27.3137 1357.83 27.673 1358.01 28.107C1358.21 28.541 1358.3 29.0217 1358.3 29.549C1358.3 30.3097 1358.1 30.97 1357.7 31.53C1357.3 32.09 1356.72 32.4423 1355.98 32.587L1355.62 32.671H1352.27V36.5H1351.25ZM1357.35 36.5L1355.36 32.398L1356.35 32.02L1358.53 36.5H1357.35ZM1352.27 31.691H1355.11C1355.19 31.691 1355.29 31.6863 1355.4 31.677C1355.52 31.6677 1355.63 31.6513 1355.73 31.628C1356.08 31.5533 1356.36 31.411 1356.58 31.201C1356.8 30.991 1356.97 30.7413 1357.08 30.452C1357.19 30.1627 1357.24 29.8617 1357.24 29.549C1357.24 29.2363 1357.19 28.9353 1357.08 28.646C1356.97 28.352 1356.8 28.1 1356.58 27.89C1356.36 27.68 1356.08 27.5377 1355.73 27.463C1355.63 27.4397 1355.52 27.4257 1355.4 27.421C1355.29 27.4117 1355.19 27.407 1355.11 27.407H1352.27V31.691ZM1359.38 36.5L1362.85 26.42H1364.21L1367.69 36.5H1366.62L1363.32 26.994H1363.72L1360.45 36.5H1359.38ZM1360.92 34.057V33.091H1366.13V34.057H1360.92ZM1369.09 36.5V26.42H1370.12V36.5H1369.09ZM1374.9 36.5V27.407H1371.38V26.42H1379.45V27.407H1375.93V36.5H1374.9ZM1385.75 36.5V26.42H1389.65C1389.74 26.42 1389.85 26.4247 1389.97 26.434C1390.1 26.4387 1390.23 26.4527 1390.35 26.476C1390.88 26.5553 1391.33 26.7397 1391.69 27.029C1392.06 27.3137 1392.34 27.673 1392.52 28.107C1392.71 28.541 1392.81 29.0217 1392.81 29.549C1392.81 30.0717 1392.71 30.55 1392.52 30.984C1392.33 31.418 1392.05 31.7797 1391.68 32.069C1391.32 32.3537 1390.88 32.5357 1390.35 32.615C1390.23 32.6337 1390.1 32.6477 1389.97 32.657C1389.85 32.6663 1389.74 32.671 1389.65 32.671H1386.78V36.5H1385.75ZM1386.78 31.691H1389.62C1389.7 31.691 1389.8 31.6863 1389.91 31.677C1390.02 31.6677 1390.13 31.6513 1390.24 31.628C1390.59 31.5533 1390.87 31.411 1391.09 31.201C1391.31 30.991 1391.48 30.7413 1391.58 30.452C1391.7 30.1627 1391.75 29.8617 1391.75 29.549C1391.75 29.2363 1391.7 28.9353 1391.58 28.646C1391.48 28.352 1391.31 28.1 1391.09 27.89C1390.87 27.68 1390.59 27.5377 1390.24 27.463C1390.13 27.4397 1390.02 27.4257 1389.91 27.421C1389.8 27.4117 1389.7 27.407 1389.62 27.407H1386.78V31.691ZM1394.2 36.5V26.42H1395.23V30.963H1400.8V26.42H1401.83V36.5H1400.8V31.95H1395.23V36.5H1394.2ZM1407.87 36.71C1406.86 36.71 1406.02 36.4883 1405.33 36.045C1404.64 35.597 1404.11 34.9787 1403.76 34.19C1403.4 33.4013 1403.23 32.4913 1403.23 31.46C1403.23 30.4287 1403.4 29.5187 1403.76 28.73C1404.11 27.9413 1404.64 27.3253 1405.33 26.882C1406.02 26.434 1406.86 26.21 1407.87 26.21C1408.88 26.21 1409.72 26.434 1410.41 26.882C1411.1 27.3253 1411.62 27.9413 1411.98 28.73C1412.34 29.5187 1412.52 30.4287 1412.52 31.46C1412.52 32.4913 1412.34 33.4013 1411.98 34.19C1411.62 34.9787 1411.1 35.597 1410.41 36.045C1409.72 36.4883 1408.88 36.71 1407.87 36.71ZM1407.87 35.723C1408.66 35.723 1409.31 35.5433 1409.84 35.184C1410.37 34.8247 1410.76 34.3253 1411.02 33.686C1411.29 33.042 1411.42 32.3 1411.42 31.46C1411.42 30.62 1411.29 29.8803 1411.02 29.241C1410.76 28.6017 1410.37 28.1023 1409.84 27.743C1409.31 27.3837 1408.66 27.2017 1407.87 27.197C1407.08 27.197 1406.42 27.3767 1405.9 27.736C1405.38 28.0953 1404.98 28.597 1404.72 29.241C1404.46 29.8803 1404.32 30.62 1404.32 31.46C1404.31 32.3 1404.44 33.0397 1404.7 33.679C1404.97 34.3137 1405.37 34.813 1405.89 35.177C1406.42 35.5363 1407.08 35.7183 1407.87 35.723ZM1416.33 36.5V27.407H1412.8V26.42H1420.88V27.407H1417.35V36.5H1416.33ZM1426.08 36.71C1425.08 36.71 1424.23 36.4883 1423.54 36.045C1422.85 35.597 1422.32 34.9787 1421.97 34.19C1421.61 33.4013 1421.44 32.4913 1421.44 31.46C1421.44 30.4287 1421.61 29.5187 1421.97 28.73C1422.32 27.9413 1422.85 27.3253 1423.54 26.882C1424.23 26.434 1425.08 26.21 1426.08 26.21C1427.09 26.21 1427.93 26.434 1428.62 26.882C1429.31 27.3253 1429.83 27.9413 1430.19 28.73C1430.55 29.5187 1430.73 30.4287 1430.73 31.46C1430.73 32.4913 1430.55 33.4013 1430.19 34.19C1429.83 34.9787 1429.31 35.597 1428.62 36.045C1427.93 36.4883 1427.09 36.71 1426.08 36.71ZM1426.08 35.723C1426.87 35.723 1427.53 35.5433 1428.05 35.184C1428.58 34.8247 1428.97 34.3253 1429.24 33.686C1429.5 33.042 1429.63 32.3 1429.63 31.46C1429.63 30.62 1429.5 29.8803 1429.24 29.241C1428.97 28.6017 1428.58 28.1023 1428.05 27.743C1427.53 27.3837 1426.87 27.2017 1426.08 27.197C1425.29 27.197 1424.63 27.3767 1424.11 27.736C1423.59 28.0953 1423.19 28.597 1422.93 29.241C1422.67 29.8803 1422.53 30.62 1422.53 31.46C1422.52 32.3 1422.65 33.0397 1422.91 33.679C1423.18 34.3137 1423.58 34.813 1424.1 35.177C1424.63 35.5363 1425.29 35.7183 1426.08 35.723ZM1436.17 36.71C1435.46 36.71 1434.82 36.5863 1434.25 36.339C1433.68 36.0917 1433.19 35.7393 1432.79 35.282C1432.4 34.8247 1432.09 34.274 1431.88 33.63C1431.67 32.9813 1431.57 32.258 1431.57 31.46C1431.57 30.4053 1431.75 29.486 1432.11 28.702C1432.48 27.9133 1433.01 27.302 1433.7 26.868C1434.38 26.434 1435.21 26.217 1436.17 26.217C1437.24 26.217 1438.11 26.469 1438.79 26.973C1439.46 27.4723 1439.93 28.1443 1440.2 28.989L1439.16 29.241C1438.94 28.625 1438.58 28.1327 1438.08 27.764C1437.58 27.3953 1436.96 27.211 1436.21 27.211C1435.42 27.2063 1434.77 27.3837 1434.24 27.743C1433.72 28.0977 1433.33 28.597 1433.06 29.241C1432.8 29.8803 1432.67 30.62 1432.66 31.46C1432.66 32.3 1432.78 33.0397 1433.05 33.679C1433.31 34.3137 1433.71 34.813 1434.24 35.177C1434.76 35.5363 1435.42 35.7183 1436.21 35.723C1436.93 35.723 1437.53 35.583 1438 35.303C1438.47 35.023 1438.83 34.6217 1439.07 34.099C1439.32 33.5763 1439.46 32.958 1439.49 32.244H1437.17V31.362H1440.57C1440.58 31.4693 1440.59 31.5837 1440.59 31.705C1440.6 31.8217 1440.6 31.9057 1440.6 31.957C1440.6 32.867 1440.44 33.6813 1440.11 34.4C1439.78 35.114 1439.29 35.6787 1438.63 36.094C1437.98 36.5047 1437.16 36.71 1436.17 36.71ZM1442 36.5V26.42H1445.89C1445.99 26.42 1446.1 26.4247 1446.22 26.434C1446.35 26.4387 1446.47 26.4527 1446.6 26.476C1447.13 26.5553 1447.57 26.7397 1447.94 27.029C1448.3 27.3137 1448.58 27.673 1448.77 28.107C1448.96 28.541 1449.06 29.0217 1449.06 29.549C1449.06 30.3097 1448.85 30.97 1448.45 31.53C1448.05 32.09 1447.48 32.4423 1446.73 32.587L1446.37 32.671H1443.03V36.5H1442ZM1448.1 36.5L1446.12 32.398L1447.1 32.02L1449.29 36.5H1448.1ZM1443.03 31.691H1445.86C1445.95 31.691 1446.05 31.6863 1446.16 31.677C1446.27 31.6677 1446.38 31.6513 1446.49 31.628C1446.83 31.5533 1447.11 31.411 1447.33 31.201C1447.56 30.991 1447.72 30.7413 1447.83 30.452C1447.94 30.1627 1448 29.8617 1448 29.549C1448 29.2363 1447.94 28.9353 1447.83 28.646C1447.72 28.352 1447.56 28.1 1447.33 27.89C1447.11 27.68 1446.83 27.5377 1446.49 27.463C1446.38 27.4397 1446.27 27.4257 1446.16 27.421C1446.05 27.4117 1445.95 27.407 1445.86 27.407H1443.03V31.691ZM1450.13 36.5L1453.6 26.42H1454.97L1458.44 36.5H1457.37L1454.07 26.994H1454.48L1451.2 36.5H1450.13ZM1451.68 34.057V33.091H1456.89V34.057H1451.68ZM1459.7 36.5V26.42H1463.6C1463.69 26.42 1463.8 26.4247 1463.93 26.434C1464.05 26.4387 1464.18 26.4527 1464.3 26.476C1464.83 26.5553 1465.28 26.7397 1465.64 27.029C1466.01 27.3137 1466.29 27.673 1466.47 28.107C1466.66 28.541 1466.76 29.0217 1466.76 29.549C1466.76 30.0717 1466.66 30.55 1466.47 30.984C1466.28 31.418 1466 31.7797 1465.63 32.069C1465.27 32.3537 1464.83 32.5357 1464.3 32.615C1464.18 32.6337 1464.05 32.6477 1463.93 32.657C1463.8 32.6663 1463.69 32.671 1463.6 32.671H1460.73V36.5H1459.7ZM1460.73 31.691H1463.57C1463.65 31.691 1463.75 31.6863 1463.86 31.677C1463.97 31.6677 1464.08 31.6513 1464.19 31.628C1464.54 31.5533 1464.82 31.411 1465.04 31.201C1465.26 30.991 1465.43 30.7413 1465.54 30.452C1465.65 30.1627 1465.7 29.8617 1465.7 29.549C1465.7 29.2363 1465.65 28.9353 1465.54 28.646C1465.43 28.352 1465.26 28.1 1465.04 27.89C1464.82 27.68 1464.54 27.5377 1464.19 27.463C1464.08 27.4397 1463.97 27.4257 1463.86 27.421C1463.75 27.4117 1463.65 27.407 1463.57 27.407H1460.73V31.691ZM1468.15 36.5V26.42H1469.18V30.963H1474.75V26.42H1475.78V36.5H1474.75V31.95H1469.18V36.5H1468.15ZM1480.14 36.5V32.279L1476.76 26.42H1477.95L1480.66 31.103L1483.35 26.42H1484.54L1481.17 32.279V36.5H1480.14Z" fill="#D7D0FB"/>
</g>
<path d="M0 1H1440V-1H0V1ZM1440 61H0V63H1440V61Z" fill="#1C1C21" mask="url(#path-1-inside-1_157_3711)"/>
<defs>
<clipPath id="clip0_157_3711">
<path d="M0 0H1440V62H0V0Z" fill="white"/>
</clipPath>
<clipPath id="clip1_157_3711">
<rect width="30" height="30" fill="white" transform="translate(151.5 16)"/>
</clipPath>
<clipPath id="clip2_157_3711">
<rect width="30" height="30" fill="white" transform="translate(383.5 16)"/>
</clipPath>
<clipPath id="clip3_157_3711">
<rect width="30" height="30" fill="white" transform="translate(603.5 16)"/>
</clipPath>
<clipPath id="clip4_157_3711">
<rect width="30" height="30" fill="white" transform="translate(821.5 16)"/>
</clipPath>
<clipPath id="clip5_157_3711">
<rect width="30" height="30" fill="white" transform="translate(1055.5 16)"/>
</clipPath>
<clipPath id="clip6_157_3711">
<rect width="30" height="30" fill="white" transform="translate(1278.5 16)"/>
</clipPath>
</defs>
</svg>
