<svg width="41" height="40" viewBox="0 0 41 40" fill="none" xmlns="http://www.w3.org/2000/svg">
<rect x="0.833984" y="0.5" width="39" height="39" rx="19.5" fill="#1C1C21"/>
<rect x="0.833984" y="0.5" width="39" height="39" rx="19.5" stroke="url(#paint0_linear_157_3640)"/>
<g clip-path="url(#clip0_157_3640)">
<path d="M28.0016 11H12.6629C11.9281 11 11.334 11.5801 11.334 12.2973V27.6992C11.334 28.4164 11.9281 29 12.6629 29H28.0016C28.7363 29 29.334 28.4164 29.334 27.7027V12.2973C29.334 11.5801 28.7363 11 28.0016 11ZM16.6742 26.3387H14.0023V17.7465H16.6742V26.3387ZM15.3383 16.5758C14.4805 16.5758 13.7879 15.8832 13.7879 15.0289C13.7879 14.1746 14.4805 13.482 15.3383 13.482C16.1926 13.482 16.8852 14.1746 16.8852 15.0289C16.8852 15.8797 16.1926 16.5758 15.3383 16.5758ZM26.6727 26.3387H24.0043V22.1621C24.0043 21.1672 23.9867 19.884 22.6156 19.884C21.227 19.884 21.016 20.9703 21.016 22.0918V26.3387H18.3512V17.7465H20.9105V18.9207H20.9457C21.3008 18.2457 22.1727 17.532 23.4699 17.532C26.1734 17.532 26.6727 19.3109 26.6727 21.6242V26.3387Z" fill="white"/>
</g>
<defs>
<linearGradient id="paint0_linear_157_3640" x1="20.334" y1="0.999995" x2="20.334" y2="39" gradientUnits="userSpaceOnUse">
<stop offset="0.278527" stop-color="#2F2F37"/>
<stop offset="1" stop-color="#2F2F37" stop-opacity="0"/>
</linearGradient>
<clipPath id="clip0_157_3640">
<rect width="18" height="18" fill="white" transform="translate(11.334 11)"/>
</clipPath>
</defs>
</svg>
