<svg width="41" height="40" viewBox="0 0 41 40" fill="none" xmlns="http://www.w3.org/2000/svg">
<rect x="0.833984" y="0.5" width="39" height="39" rx="19.5" fill="#1C1C21"/>
<rect x="0.833984" y="0.5" width="39" height="39" rx="19.5" stroke="url(#paint0_linear_157_3637)"/>
<g clip-path="url(#clip0_157_3637)">
<path d="M16.9966 27.3125C23.7874 27.3125 27.5027 21.6851 27.5027 16.8065C27.5027 16.6483 27.4992 16.4865 27.4921 16.3283C28.2149 15.8057 28.8386 15.1583 29.334 14.4165C28.6609 14.716 27.9462 14.9116 27.2144 14.9966C27.9849 14.5347 28.5619 13.8092 28.8383 12.9544C28.1134 13.384 27.3207 13.687 26.4941 13.8505C25.9371 13.2587 25.2007 12.8669 24.3987 12.7356C23.5968 12.6043 22.7739 12.7408 22.0573 13.1241C21.3407 13.5074 20.7703 14.1161 20.4344 14.856C20.0984 15.596 20.0156 16.426 20.1986 17.2178C18.7309 17.1441 17.2949 16.7628 15.984 16.0986C14.673 15.4344 13.5163 14.5021 12.5887 13.3622C12.1173 14.175 11.973 15.1368 12.1853 16.0521C12.3975 16.9675 12.9503 17.7676 13.7313 18.2901C13.145 18.2714 12.5715 18.1136 12.0582 17.8295V17.8752C12.0577 18.7282 12.3526 19.555 12.8927 20.2151C13.4329 20.8753 14.185 21.328 15.0212 21.4963C14.478 21.6449 13.908 21.6666 13.3551 21.5596C13.5911 22.2931 14.0502 22.9347 14.6683 23.3948C15.2865 23.8549 16.0328 24.1105 16.8032 24.126C15.4953 25.1534 13.8796 25.7107 12.2164 25.708C11.9214 25.7076 11.6268 25.6895 11.334 25.6539C13.0236 26.7379 14.9891 27.3136 16.9966 27.3125Z" fill="white"/>
</g>
<defs>
<linearGradient id="paint0_linear_157_3637" x1="20.334" y1="0.999995" x2="20.334" y2="39" gradientUnits="userSpaceOnUse">
<stop offset="0.278527" stop-color="#2F2F37"/>
<stop offset="1" stop-color="#2F2F37" stop-opacity="0"/>
</linearGradient>
<clipPath id="clip0_157_3637">
<rect width="18" height="18" fill="white" transform="translate(11.334 11)"/>
</clipPath>
</defs>
</svg>
