<svg width="850" height="171" viewBox="0 0 850 171" fill="none" xmlns="http://www.w3.org/2000/svg">
<path d="M715.887 170.502V1.5022H740.964L824.831 127.079V1.5022H849.908V170.502H824.831L740.964 44.8084V170.502H715.887Z" fill="#232329"/>
<path d="M578.652 170.502V1.5022H687.478V24.6223H603.375V72.0362H673.283V95.1564H603.375V147.382H687.478V170.502H578.652Z" fill="#232329"/>
<path d="M518.41 170.502V1.5022H543.132V170.502H518.41Z" fill="#232329"/>
<path d="M314.814 170.502V1.5022H337.171L398.918 128.604L460.309 1.5022H482.903V170.385H459.481V54.7841L404.477 170.502H393.24L338.117 54.7841V170.502H314.814Z" fill="#232329"/>
<path d="M147.27 170.502L202.629 1.5022H238.233L293.593 170.502H267.924L216.942 16.2897H223.329L172.938 170.502H147.27ZM176.014 132.36V109.357H264.967V132.36H176.014Z" fill="#232329"/>
<path d="M0.378906 170.502V1.5022H53.7271C55.3042 1.5022 58.222 1.54132 62.4804 1.61956C66.8177 1.6978 70.9578 2.01076 74.9007 2.55844C88.2279 4.2015 99.4259 8.93507 108.495 16.7591C117.642 24.5832 124.542 34.5198 129.195 46.5689C133.848 58.5397 136.174 71.6841 136.174 86.0022C136.174 100.398 133.848 113.621 129.195 125.67C124.542 137.641 117.642 147.539 108.495 155.363C99.4259 163.108 88.2279 167.803 74.9007 169.446C70.9578 169.994 66.8177 170.307 62.4804 170.385C58.222 170.463 55.3042 170.502 53.7271 170.502H0.378906ZM25.6927 147.147H53.7271C56.4083 147.147 59.6021 147.069 63.3084 146.913C67.0148 146.756 70.2875 146.443 73.1264 145.974C81.8009 144.331 88.8193 140.614 94.1818 134.824C99.623 128.956 103.605 121.758 106.129 113.23C108.652 104.702 109.914 95.6258 109.914 86.0022C109.914 76.0656 108.613 66.8723 106.011 58.4223C103.408 49.8941 99.3865 42.7742 93.9452 37.0626C88.5828 31.2728 81.6432 27.5955 73.1264 26.0307C70.2875 25.483 66.9754 25.17 63.1901 25.0918C59.4838 24.9353 56.3294 24.8571 53.7271 24.8571H25.6927V147.147Z" fill="#232329"/>
</svg>
