<svg width="317" height="64" viewBox="0 0 317 64" fill="none" xmlns="http://www.w3.org/2000/svg">
<path d="M266.553 63.5601V0.560059H275.89L307.117 47.3726V0.560059H316.454V63.5601H307.117L275.89 16.7038V63.5601H266.553Z" fill="#232329"/>
<path d="M215.455 63.5601V0.560059H255.975V9.17881H224.66V26.8538H250.69V35.4726H224.66V54.9413H255.975V63.5601H215.455Z" fill="#232329"/>
<path d="M193.023 63.5601V0.560059H202.229V63.5601H193.023Z" fill="#232329"/>
<path d="M117.217 63.5601V0.560059H125.541L148.532 47.9413L171.39 0.560059H179.803V63.5163H171.082V20.4226L150.602 63.5601H146.418L125.893 20.4226V63.5601H117.217Z" fill="#232329"/>
<path d="M54.834 63.5601L75.4464 0.560059H88.7035L109.316 63.5601H99.7585L80.7757 6.07256H83.154L64.3914 63.5601H54.834ZM65.5366 49.3413V40.7663H98.6574V49.3413H65.5366Z" fill="#232329"/>
<path d="M0.140625 63.5601V0.560059H20.0043C20.5915 0.560059 21.678 0.574643 23.2635 0.603811C24.8785 0.632975 26.42 0.74964 27.8881 0.953806C32.8504 1.56631 37.0198 3.33089 40.3965 6.24756C43.8025 9.16423 46.3717 12.8684 48.1041 17.3601C49.8365 21.8226 50.7027 26.7226 50.7027 32.0601C50.7027 37.4267 49.8365 42.3559 48.1041 46.8476C46.3717 51.3101 43.8025 54.9996 40.3965 57.9163C37.0198 60.8038 32.8504 62.5538 27.8881 63.1663C26.42 63.3705 24.8785 63.4871 23.2635 63.5163C21.678 63.5455 20.5915 63.5601 20.0043 63.5601H0.140625ZM9.56596 54.8538H20.0043C21.0026 54.8538 22.1918 54.8246 23.5718 54.7663C24.9519 54.708 26.1704 54.5913 27.2275 54.4163C30.4573 53.8038 33.0706 52.4184 35.0672 50.2601C37.0932 48.0726 38.576 45.3892 39.5156 42.2101C40.4552 39.0309 40.925 35.6476 40.925 32.0601C40.925 28.3559 40.4405 24.9288 39.4716 21.7788C38.5026 18.5996 37.0051 15.9455 34.9791 13.8163C32.9825 11.658 30.3986 10.2871 27.2275 9.70381C26.1704 9.49964 24.9372 9.38297 23.5278 9.35381C22.1478 9.29547 20.9733 9.26631 20.0043 9.26631H9.56596V54.8538Z" fill="#232329"/>
</svg>
