<svg width="53" height="52" viewBox="0 0 53 52" fill="none" xmlns="http://www.w3.org/2000/svg">
<rect x="1" y="0.5" width="51" height="51" rx="25.5" fill="#1C1C21"/>
<rect x="1" y="0.5" width="51" height="51" rx="25.5" stroke="url(#paint0_linear_163_8445)"/>
<g clip-path="url(#clip0_163_8445)">
<path d="M34.1676 17H18.8289C18.0941 17 17.5 17.5801 17.5 18.2973V33.6992C17.5 34.4164 18.0941 35 18.8289 35H34.1676C34.9023 35 35.5 34.4164 35.5 33.7027V18.2973C35.5 17.5801 34.9023 17 34.1676 17ZM22.8402 32.3387H20.1684V23.7465H22.8402V32.3387ZM21.5043 22.5758C20.6465 22.5758 19.9539 21.8832 19.9539 21.0289C19.9539 20.1746 20.6465 19.482 21.5043 19.482C22.3586 19.482 23.0512 20.1746 23.0512 21.0289C23.0512 21.8797 22.3586 22.5758 21.5043 22.5758ZM32.8387 32.3387H30.1703V28.1621C30.1703 27.1672 30.1527 25.884 28.7816 25.884C27.393 25.884 27.182 26.9703 27.182 28.0918V32.3387H24.5172V23.7465H27.0766V24.9207H27.1117C27.4668 24.2457 28.3387 23.532 29.6359 23.532C32.3395 23.532 32.8387 25.3109 32.8387 27.6242V32.3387Z" fill="white"/>
</g>
<defs>
<linearGradient id="paint0_linear_163_8445" x1="26.5" y1="0.999994" x2="26.5" y2="51" gradientUnits="userSpaceOnUse">
<stop offset="0.278527" stop-color="#2F2F37"/>
<stop offset="1" stop-color="#2F2F37" stop-opacity="0"/>
</linearGradient>
<clipPath id="clip0_163_8445">
<rect width="18" height="18" fill="white" transform="translate(17.5 17)"/>
</clipPath>
</defs>
</svg>
