<svg width="202" height="40" viewBox="0 0 202 40" fill="none" xmlns="http://www.w3.org/2000/svg">
<path d="M62.4008 24.8519V14.5247C62.4008 14.2892 62.3593 14.1229 62.2762 14.026C62.2069 13.929 62.0753 13.8736 61.8814 13.8597L60.5723 13.6727V13.1325C60.7108 13.174 62.1653 13.1948 64.9359 13.1948C65.7532 13.1948 66.4043 13.174 66.8891 13.1325V13.6935L65.5801 13.8805C65.3861 13.8944 65.2476 13.9429 65.1645 14.026C65.0952 14.1091 65.0606 14.2753 65.0606 14.5247V24.8519C65.0606 25.1013 65.0952 25.2606 65.1645 25.3299C65.2337 25.3991 65.3723 25.4407 65.5801 25.4545L66.8891 25.5584V26.2649C66.6121 26.2372 66.2104 26.2164 65.684 26.2026C65.1714 26.1887 64.5203 26.1818 63.7307 26.1818C62.9411 26.1818 62.2831 26.1887 61.7567 26.2026C61.2441 26.2164 60.8493 26.2372 60.5723 26.2649V25.5584L61.8814 25.4545C62.0891 25.4268 62.2277 25.3784 62.2969 25.3091C62.3662 25.2398 62.4008 25.0874 62.4008 24.8519Z" fill="#474752"/>
<path d="M78.2038 26.2442C77.4834 26.2026 76.6799 26.1818 75.7934 26.1818C74.9206 26.1818 74.1241 26.2026 73.4038 26.2442V25.7247L74.131 25.5584C74.4358 25.5169 74.5882 25.2468 74.5882 24.748V21.2571C74.5882 20.9524 74.5743 20.6892 74.5466 20.4675C74.5328 20.232 74.4843 20.0381 74.4012 19.8857C74.3319 19.7195 74.2141 19.6017 74.0479 19.5325C73.8955 19.4493 73.6808 19.4078 73.4038 19.4078C73.0851 19.4078 72.7458 19.5117 72.3856 19.7195C72.0393 19.9134 71.7483 20.1489 71.5128 20.426V24.9766C71.5128 25.1983 71.6791 25.3506 72.0116 25.4338L72.6141 25.7247V26.2442C72.4202 26.2164 72.2332 26.2026 72.0531 26.2026C71.873 26.1887 71.6583 26.1818 71.409 26.1818H70.1414C69.6981 26.1818 69.2479 26.1887 68.7908 26.2026C68.3475 26.2026 68.0219 26.2164 67.8141 26.2442V25.7247L68.7077 25.5169C68.8462 25.4892 68.9501 25.4268 69.0193 25.3299C69.0886 25.2329 69.1232 25.0874 69.1232 24.8935V20.8C69.1232 20.3706 69.0332 20.0797 68.8531 19.9273C68.6869 19.7749 68.3821 19.6641 67.9388 19.5948V19.2C68.1605 19.1446 68.4167 19.0753 68.7077 18.9922C69.0124 18.9091 69.3103 18.8052 69.6012 18.6805C69.8921 18.542 70.1622 18.3827 70.4116 18.2026C70.6609 18.0087 70.8479 17.7801 70.9726 17.5169H71.5128V19.5325C71.9284 19.0199 72.3787 18.6182 72.8635 18.3273C73.3483 18.0364 73.8332 17.8909 74.318 17.8909C75.1215 17.8909 75.7657 18.1264 76.2505 18.5974C76.7354 19.0684 76.9778 19.7818 76.9778 20.7377V24.6857C76.9778 24.9628 77.0124 25.1636 77.0817 25.2883C77.1509 25.413 77.2895 25.503 77.4973 25.5584L78.2038 25.7247V26.2442Z" fill="#474752"/>
<path d="M90.531 26.2649C90.3094 26.2372 89.9769 26.2164 89.5336 26.2026C89.1042 26.1887 88.6124 26.1818 88.0583 26.1818C87.5042 26.1818 87.0055 26.1887 86.5622 26.2026C86.1189 26.2164 85.7934 26.2372 85.5856 26.2649V25.7455L86.3752 25.5169C86.8046 25.4338 87.0193 25.1844 87.0193 24.7688V20.0104C87.0193 19.6779 86.9362 19.4355 86.77 19.2831C86.6315 19.1584 86.3752 19.0476 86.0012 18.9506V19.013L82.9882 19.0961V24.1247C82.9882 24.9558 83.2791 25.4199 83.8609 25.5169L85.0038 25.7247V26.2442C84.131 26.2026 83.2098 26.1818 82.2401 26.1818H81.596C81.125 26.1818 80.654 26.1887 80.183 26.2026C79.712 26.2026 79.3726 26.2164 79.1648 26.2442V25.7455L79.809 25.6C80.0167 25.5584 80.1761 25.5169 80.2869 25.4753C80.3977 25.4199 80.4808 25.3506 80.5362 25.2675C80.5916 25.1706 80.6263 25.0459 80.6401 24.8935C80.654 24.7411 80.6609 24.5403 80.6609 24.2909V19.3455C80.3977 19.29 79.8921 19.2485 79.144 19.2208V18.9091C79.4765 18.7706 79.7397 18.6528 79.9336 18.5558C80.1276 18.445 80.273 18.348 80.37 18.2649C80.4808 18.1818 80.5501 18.0987 80.5778 18.0156C80.6055 17.9325 80.6193 17.8424 80.6193 17.7455C80.6193 17.6208 80.6332 17.4061 80.6609 17.1013C80.6886 16.7827 80.7509 16.4294 80.8479 16.0416C80.9587 15.6398 81.1111 15.2312 81.3051 14.8156C81.499 14.4 81.7553 14.019 82.0739 13.6727C82.4064 13.3264 82.8081 13.0424 83.2791 12.8208C83.7501 12.5853 84.318 12.4675 84.983 12.4675C85.0938 12.4675 85.1977 12.4745 85.2947 12.4883C85.4055 12.4883 85.5163 12.4952 85.6271 12.5091C86.0704 12.5784 86.4514 12.703 86.77 12.8831C87.0886 13.0632 87.2479 13.3472 87.2479 13.7351C87.2479 14.1229 87.144 14.4346 86.9362 14.6701C86.7423 14.9056 86.4514 15.0234 86.0635 15.0234C85.7587 15.0234 85.5094 14.9472 85.3154 14.7948C85.1354 14.6286 84.9761 14.4554 84.8375 14.2753C84.7128 14.0814 84.602 13.9082 84.5051 13.7558C84.4081 13.5896 84.3111 13.5065 84.2141 13.5065C83.854 13.5065 83.5838 13.6104 83.4038 13.8182C83.2375 14.0121 83.1128 14.2684 83.0297 14.587C82.9605 14.8918 82.9258 15.2381 82.9258 15.626V17.7039C82.9258 17.9394 82.9328 18.1126 82.9466 18.2234L86.0012 18.2857V18.3688L86.5622 18.1818C86.867 18.071 87.1648 17.9532 87.4557 17.8286C87.7466 17.69 88.0098 17.5446 88.2453 17.3922C88.4947 17.226 88.6886 17.0597 88.8271 16.8935C88.9241 16.8935 89.0141 16.9004 89.0973 16.9143C89.1804 16.9143 89.2704 16.9143 89.3674 16.9143V24.8312C89.3674 25.039 89.3951 25.1913 89.4505 25.2883C89.5198 25.3853 89.6444 25.4545 89.8245 25.4961L90.531 25.7455V26.2649Z" fill="#474752"/>
<path d="M101.864 26.2442C101.144 26.2026 100.341 26.1818 99.4541 26.1818C98.5814 26.1818 97.7848 26.2026 97.0645 26.2442V25.7247L97.7917 25.5584C98.0965 25.5169 98.2489 25.2468 98.2489 24.748V21.2571C98.2489 20.9524 98.235 20.6892 98.2073 20.4675C98.1935 20.232 98.145 20.0381 98.0619 19.8857C97.9926 19.7195 97.8749 19.6017 97.7086 19.5325C97.5562 19.4493 97.3415 19.4078 97.0645 19.4078C96.7459 19.4078 96.4065 19.5117 96.0463 19.7195C95.7 19.9134 95.4091 20.1489 95.1736 20.426V24.9766C95.1736 25.1983 95.3398 25.3506 95.6723 25.4338L96.2749 25.7247V26.2442C96.0809 26.2164 95.8939 26.2026 95.7138 26.2026C95.5337 26.1887 95.319 26.1818 95.0697 26.1818H93.8021C93.3588 26.1818 92.9086 26.1887 92.4515 26.2026C92.0082 26.2026 91.6827 26.2164 91.4749 26.2442V25.7247L92.3684 25.5169C92.5069 25.4892 92.6108 25.4268 92.6801 25.3299C92.7493 25.2329 92.784 25.0874 92.784 24.8935V20.8C92.784 20.3706 92.6939 20.0797 92.5138 19.9273C92.3476 19.7749 92.0428 19.6641 91.5995 19.5948V19.2C91.8212 19.1446 92.0775 19.0753 92.3684 18.9922C92.6731 18.9091 92.971 18.8052 93.2619 18.6805C93.5528 18.542 93.8229 18.3827 94.0723 18.2026C94.3216 18.0087 94.5086 17.7801 94.6333 17.5169H95.1736V19.5325C95.5891 19.0199 96.0394 18.6182 96.5242 18.3273C97.0091 18.0364 97.4939 17.8909 97.9788 17.8909C98.7822 17.8909 99.4264 18.1264 99.9112 18.5974C100.396 19.0684 100.639 19.7818 100.639 20.7377V24.6857C100.639 24.9628 100.673 25.1636 100.742 25.2883C100.812 25.413 100.95 25.503 101.158 25.5584L101.864 25.7247V26.2442Z" fill="#474752"/>
<path d="M105.361 13.4026C105.721 13.4026 106.026 13.5411 106.275 13.8182C106.538 14.0814 106.67 14.3931 106.67 14.7532C106.67 15.0719 106.538 15.3628 106.275 15.626C106.026 15.8892 105.714 16.0208 105.34 16.0208C104.98 16.0208 104.675 15.903 104.426 15.6675C104.19 15.4182 104.072 15.1134 104.072 14.7532C104.072 14.3931 104.197 14.0814 104.446 13.8182C104.696 13.5411 105 13.4026 105.361 13.4026ZM107.459 26.2649C107.238 26.2372 106.905 26.2164 106.462 26.2026C106.019 26.1887 105.52 26.1818 104.966 26.1818C104.412 26.1818 103.913 26.1887 103.47 26.2026C103.026 26.2164 102.694 26.2372 102.472 26.2649V25.7247L103.262 25.5169C103.691 25.4338 103.906 25.1775 103.906 24.748V21.0078C103.906 20.6753 103.823 20.4329 103.657 20.2805C103.49 20.1281 103.158 19.9965 102.659 19.8857V19.387C102.895 19.3316 103.165 19.2554 103.47 19.1584C103.774 19.0476 104.072 18.9299 104.363 18.8052C104.654 18.6667 104.924 18.5212 105.174 18.3688C105.423 18.2026 105.617 18.0364 105.755 17.8701C105.852 17.8701 105.942 17.8771 106.026 17.8909C106.109 17.8909 106.199 17.8909 106.296 17.8909V24.8104C106.296 25.0182 106.323 25.1775 106.379 25.2883C106.448 25.3853 106.573 25.4545 106.753 25.4961L107.459 25.7247V26.2649Z" fill="#474752"/>
<path d="M111.684 16.1662H112.141C112.141 16.5403 112.141 16.9143 112.141 17.2883C112.155 17.6485 112.162 18.0156 112.162 18.3896L114.759 18.3273V19.3039L112.162 19.387V23.1273C112.162 23.7506 112.238 24.2078 112.391 24.4987C112.543 24.7758 112.862 24.9143 113.346 24.9143C113.554 24.9143 113.783 24.8935 114.032 24.8519C114.282 24.7965 114.552 24.6442 114.843 24.3948L115.03 24.6857C114.933 24.8797 114.801 25.0874 114.635 25.3091C114.469 25.5169 114.261 25.7108 114.011 25.8909C113.776 26.071 113.506 26.2234 113.201 26.3481C112.896 26.4589 112.55 26.5143 112.162 26.5143C111.372 26.5143 110.784 26.3203 110.396 25.9325C110.008 25.5307 109.814 24.8519 109.814 23.8961V19.4286C109.62 19.4286 109.433 19.4355 109.253 19.4493C109.073 19.4493 108.886 19.4493 108.692 19.4493C108.498 19.4493 108.394 19.3593 108.38 19.1792C108.38 18.9991 108.477 18.8675 108.671 18.7844C108.976 18.6597 109.253 18.5281 109.502 18.3896C109.766 18.2511 109.98 18.1126 110.146 17.974C110.34 17.8216 110.597 17.5931 110.915 17.2883C111.248 16.9835 111.504 16.6095 111.684 16.1662Z" fill="#474752"/>
<path d="M119.756 28.5714C119.507 29.1948 119.14 29.645 118.655 29.9221C118.184 30.1991 117.678 30.3377 117.138 30.3377C116.986 30.3377 116.833 30.3169 116.681 30.2753C116.528 30.2476 116.397 30.1922 116.286 30.1091C116.189 30.0398 116.106 29.9498 116.037 29.839C115.981 29.742 115.954 29.6242 115.954 29.4857C115.954 29.0978 116.057 28.8416 116.265 28.7169C116.473 28.6061 116.722 28.5506 117.013 28.5506C117.304 28.5506 117.602 28.5853 117.907 28.6545C118.212 28.7377 118.44 28.7792 118.593 28.7792C118.662 28.7792 118.745 28.7446 118.842 28.6753C118.939 28.6061 119.036 28.5091 119.133 28.3844C119.23 28.2736 119.306 28.1351 119.361 27.9688C119.431 27.8026 119.465 27.6225 119.465 27.4286C119.465 27.2623 119.431 27.0407 119.361 26.7636C119.292 26.5281 119.209 26.2926 119.112 26.0571C119.029 25.8216 118.946 25.6069 118.863 25.413L116.141 19.4286C115.988 19.0961 115.808 18.8952 115.6 18.826L115.185 18.6805V18.161C116.944 18.2996 118.406 18.2996 119.569 18.161V18.6805C119.195 18.6805 118.994 18.7151 118.967 18.7844C118.939 18.8537 118.953 18.9576 119.008 19.0961L120.899 23.8961L122.541 19.8442C122.61 19.6502 122.638 19.4493 122.624 19.2416C122.624 19.0338 122.506 18.9022 122.27 18.8468L121.107 18.5766V18.161C122.326 18.2996 123.6 18.2996 124.93 18.161V18.5766L124.265 18.7429C124.154 18.7706 124.057 18.8121 123.974 18.8675C123.905 18.9091 123.829 18.9784 123.746 19.0753C123.677 19.1584 123.6 19.2831 123.517 19.4493C123.448 19.6017 123.365 19.8026 123.268 20.0519L119.756 28.5714Z" fill="#474752"/>
<path d="M130.457 13.1948C131.136 13.1948 131.704 13.1948 132.161 13.1948C132.618 13.1809 132.965 13.1671 133.2 13.1532L136.213 12.987C136.476 12.9732 136.656 12.9662 136.753 12.9662C136.864 12.9662 136.947 12.9662 137.003 12.9662C137.654 12.9662 138.263 13.0424 138.831 13.1948C139.399 13.3333 139.891 13.5619 140.307 13.8805C140.722 14.1853 141.048 14.5801 141.283 15.0649C141.532 15.5498 141.657 16.1247 141.657 16.7896C141.657 17.3991 141.532 17.9325 141.283 18.3896C141.048 18.8468 140.729 19.2346 140.327 19.5532C139.939 19.858 139.489 20.0866 138.977 20.239C138.478 20.3913 137.972 20.4675 137.46 20.4675C137.058 20.4675 136.705 20.4121 136.4 20.3013C136.095 20.1905 135.811 20.0035 135.548 19.7403L135.59 19.5532C135.77 19.6225 135.964 19.671 136.171 19.6987C136.379 19.7126 136.559 19.7195 136.712 19.7195C137.058 19.7195 137.37 19.671 137.647 19.574C137.938 19.4771 138.187 19.3247 138.395 19.1169C138.603 18.8952 138.762 18.6043 138.873 18.2442C138.997 17.884 139.06 17.4338 139.06 16.8935C139.06 15.9792 138.831 15.2381 138.374 14.6701C137.931 14.0883 137.231 13.7974 136.275 13.7974C136.081 13.7974 135.915 13.8043 135.777 13.8182C135.652 13.8182 135.534 13.8251 135.423 13.839C135.313 13.8528 135.216 13.8736 135.132 13.9013C135.063 13.9151 134.994 13.9359 134.925 13.9636V24.6234C134.925 24.8312 134.966 25.0113 135.049 25.1636C135.146 25.3022 135.347 25.3991 135.652 25.4545L136.899 25.6831V26.2649C136.317 26.2372 135.763 26.2164 135.236 26.2026C134.724 26.1887 134.281 26.1818 133.907 26.1818C133.477 26.1818 133.034 26.1887 132.577 26.2026C132.133 26.2164 131.565 26.2303 130.873 26.2442V25.6623L132.036 25.4338C132.244 25.3922 132.383 25.316 132.452 25.2052C132.521 25.0944 132.556 24.9074 132.556 24.6442V15.2727C132.556 14.7463 132.39 14.3931 132.057 14.213C131.739 14.0329 131.205 13.9013 130.457 13.8182V13.1948Z" fill="#474752"/>
<path d="M145.943 26.4935C145.375 26.4935 144.883 26.3965 144.467 26.2026C144.066 25.9948 143.733 25.7177 143.47 25.3714C143.221 25.0251 143.034 24.6164 142.909 24.1455C142.784 23.6745 142.722 23.1688 142.722 22.6286C142.722 21.8944 142.833 21.2433 143.054 20.6753C143.276 20.1074 143.574 19.6294 143.948 19.2416C144.322 18.8537 144.758 18.5628 145.257 18.3688C145.756 18.161 146.282 18.0571 146.836 18.0571C147.224 18.0571 147.563 18.0848 147.854 18.1403C148.145 18.1957 148.388 18.258 148.582 18.3273C148.831 18.3965 149.025 18.4797 149.163 18.5766L150.535 17.8078L150.722 17.8701V24.2701C150.722 24.8104 150.957 25.0736 151.428 25.0597C151.539 25.0597 151.622 25.0459 151.678 25.0182C151.747 24.9766 151.809 24.942 151.865 24.9143C151.906 24.8866 151.955 24.845 152.01 24.7896L152.135 25.0805C152.038 25.3437 151.893 25.5792 151.699 25.787C151.546 25.9671 151.338 26.1333 151.075 26.2857C150.826 26.4242 150.514 26.4935 150.14 26.4935C149.517 26.4935 149.08 26.3134 148.831 25.9532C148.582 25.5792 148.457 25.129 148.457 24.6026V24.1039C148.388 24.4087 148.291 24.7065 148.166 24.9974C148.041 25.2745 147.875 25.5238 147.667 25.7455C147.473 25.9671 147.231 26.1472 146.94 26.2857C146.663 26.4242 146.331 26.4935 145.943 26.4935ZM148.457 21.7143C148.457 21.4234 148.443 21.1186 148.415 20.8C148.388 20.4814 148.325 20.1905 148.228 19.9273C148.131 19.6502 147.979 19.4216 147.771 19.2416C147.577 19.0615 147.307 18.9714 146.961 18.9714C146.767 18.9714 146.559 19.0268 146.338 19.1377C146.13 19.2346 145.936 19.4009 145.756 19.6364C145.576 19.8719 145.423 20.1974 145.299 20.613C145.188 21.0147 145.132 21.5134 145.132 22.1091C145.132 22.5247 145.16 22.9195 145.215 23.2935C145.285 23.6675 145.389 23.9931 145.527 24.2701C145.666 24.5472 145.832 24.7688 146.026 24.9351C146.234 25.0874 146.476 25.1636 146.753 25.1636C147.016 25.1636 147.252 25.0736 147.46 24.8935C147.681 24.7134 147.861 24.4779 148 24.187C148.152 23.8822 148.263 23.5359 148.332 23.1481C148.415 22.7602 148.457 22.3584 148.457 21.9429V21.7143Z" fill="#474752"/>
<path d="M153.065 26.2649V25.9325L153.688 25.7455C153.965 25.6623 154.138 25.5584 154.207 25.4338C154.291 25.2952 154.332 25.0459 154.332 24.6857V20.6961C154.332 20.419 154.277 20.2113 154.166 20.0727C154.055 19.9342 153.792 19.8372 153.376 19.7818L153.023 19.7403V19.3455C153.286 19.2762 153.57 19.1861 153.875 19.0753C154.194 18.9506 154.498 18.8121 154.789 18.6597C155.094 18.4935 155.371 18.3065 155.62 18.0987C155.884 17.8909 156.098 17.6623 156.265 17.413H156.639C156.639 17.8147 156.646 18.1887 156.659 18.5351C156.673 18.8814 156.694 19.2831 156.722 19.7403C156.833 19.5048 156.936 19.297 157.033 19.1169C157.144 18.9368 157.311 18.7151 157.532 18.4519C157.74 18.2026 157.955 18.0502 158.176 17.9948C158.398 17.9255 158.599 17.8909 158.779 17.8909C159.125 17.8909 159.43 17.9948 159.693 18.2026C159.956 18.4104 160.088 18.7567 160.088 19.2416C160.088 19.6848 159.991 20.045 159.797 20.3221C159.603 20.5853 159.312 20.7169 158.924 20.7169C158.73 20.7169 158.564 20.6615 158.426 20.5506C158.301 20.4398 158.19 20.3221 158.093 20.1974C157.996 20.0727 157.906 19.955 157.823 19.8442C157.754 19.7333 157.678 19.6779 157.595 19.6779C157.401 19.6779 157.227 19.8095 157.075 20.0727C156.936 20.3359 156.84 20.6615 156.784 21.0493C156.715 21.3818 156.694 21.645 156.722 21.839V24.7273C156.722 25.0459 156.784 25.2606 156.909 25.3714C157.033 25.4822 157.283 25.5931 157.657 25.7039L158.343 25.9117V26.2442C158.038 26.2164 157.691 26.2026 157.304 26.2026C156.916 26.1887 156.549 26.1818 156.202 26.1818H155.724C155.267 26.1818 154.81 26.1887 154.353 26.2026C153.896 26.2164 153.466 26.2372 153.065 26.2649Z" fill="#474752"/>
<path d="M171.531 26.2649C171.268 26.2372 170.894 26.2164 170.409 26.2026C169.938 26.1887 169.46 26.1818 168.975 26.1818C168.49 26.1818 168.026 26.1887 167.583 26.2026C167.154 26.2164 166.807 26.2372 166.544 26.2649V25.7247L167.105 25.6416C167.41 25.6 167.562 25.5377 167.562 25.4545C167.562 25.3437 167.444 25.129 167.209 24.8104C166.987 24.4918 166.655 24.0416 166.212 23.4597C165.99 23.1827 165.768 22.9403 165.547 22.7325C165.339 22.5108 165.131 22.4 164.923 22.4H164.736V24.7273C164.736 25.0736 164.771 25.2952 164.84 25.3922C164.923 25.4753 165.062 25.5377 165.256 25.5792L165.838 25.7247V26.2649C165.727 26.2511 165.574 26.2372 165.38 26.2234C165.2 26.2095 164.992 26.2026 164.757 26.2026C164.535 26.1887 164.3 26.1818 164.051 26.1818C163.815 26.1818 163.586 26.1818 163.365 26.1818C162.922 26.1818 162.471 26.1887 162.014 26.2026C161.557 26.2164 161.218 26.2372 160.996 26.2649V25.7247L161.765 25.6C162.014 25.5584 162.173 25.4961 162.243 25.413C162.312 25.316 162.347 25.0874 162.347 24.7273V14.8156C162.347 14.6493 162.333 14.5177 162.305 14.4208C162.277 14.3238 162.215 14.2476 162.118 14.1922C162.035 14.1229 161.91 14.0675 161.744 14.026C161.578 13.9844 161.349 13.9429 161.058 13.9013V13.4026C161.238 13.361 161.474 13.3126 161.765 13.2571C162.07 13.2017 162.381 13.1394 162.7 13.0701C163.032 12.987 163.351 12.897 163.656 12.8C163.96 12.703 164.21 12.5922 164.404 12.4675H164.736V21.6312C164.875 21.6312 164.999 21.6173 165.11 21.5896C165.235 21.548 165.36 21.4857 165.484 21.4026C165.609 21.3195 165.747 21.2156 165.9 21.0909C166.052 20.9524 166.246 20.7861 166.482 20.5922C166.953 20.2182 167.278 19.955 167.458 19.8026C167.638 19.6364 167.728 19.4909 167.728 19.3662C167.728 19.0753 167.285 18.8675 166.399 18.7429V18.2649H170.825V18.7429C170.34 18.7983 169.876 18.916 169.432 19.0961C169.003 19.2623 168.608 19.5117 168.248 19.8442L166.939 20.8623C167.23 21.2364 167.548 21.6589 167.895 22.1299C168.241 22.6009 168.58 23.058 168.913 23.5013C169.259 23.9446 169.592 24.3463 169.91 24.7065C170.243 25.0528 170.534 25.2952 170.783 25.4338C170.852 25.4753 170.915 25.51 170.97 25.5377C171.039 25.5515 171.102 25.5723 171.157 25.6L171.531 25.7247V26.2649Z" fill="#474752"/>
<path d="M179.646 21.2987H174.493C174.465 21.4372 174.445 21.5203 174.431 21.548C174.431 21.5758 174.431 21.6589 174.431 21.7974C174.431 22.2407 174.493 22.6493 174.618 23.0234C174.743 23.3835 174.916 23.7022 175.137 23.9792C175.373 24.2424 175.65 24.4502 175.969 24.6026C176.287 24.755 176.647 24.8312 177.049 24.8312C177.534 24.8312 177.977 24.7688 178.379 24.6442C178.795 24.5056 179.231 24.2147 179.688 23.7714L179.771 24.0831C179.605 24.4017 179.411 24.7065 179.189 24.9974C178.982 25.2883 178.725 25.5446 178.42 25.7662C178.116 25.9879 177.756 26.168 177.34 26.3065C176.938 26.445 176.46 26.5143 175.906 26.5143C175.324 26.5143 174.791 26.4173 174.306 26.2234C173.821 26.0156 173.406 25.7247 173.059 25.3506C172.727 24.9766 172.464 24.5264 172.27 24C172.09 23.4736 172 22.8848 172 22.2338C172 21.5827 172.097 20.9939 172.291 20.4675C172.498 19.9273 172.782 19.4701 173.143 19.0961C173.517 18.7082 173.967 18.4104 174.493 18.2026C175.02 17.9948 175.608 17.8909 176.259 17.8909C176.855 17.8909 177.361 17.9809 177.776 18.161C178.192 18.3411 178.531 18.5905 178.794 18.9091C179.072 19.2139 179.272 19.574 179.397 19.9896C179.536 20.4052 179.619 20.8416 179.646 21.2987ZM174.597 20.5299H176.55C176.924 20.5299 177.111 20.3498 177.111 19.9896C177.111 19.5879 177.049 19.2485 176.924 18.9714C176.8 18.6805 176.55 18.5351 176.176 18.5351C175.387 18.5351 174.86 19.2 174.597 20.5299Z" fill="#474752"/>
<path d="M180.804 26.2649V25.9325L181.427 25.7455C181.705 25.6623 181.878 25.5584 181.947 25.4338C182.03 25.2952 182.072 25.0459 182.072 24.6857V20.6961C182.072 20.419 182.016 20.2113 181.905 20.0727C181.795 19.9342 181.531 19.8372 181.116 19.7818L180.763 19.7403V19.3455C181.026 19.2762 181.31 19.1861 181.614 19.0753C181.933 18.9506 182.238 18.8121 182.529 18.6597C182.834 18.4935 183.111 18.3065 183.36 18.0987C183.623 17.8909 183.838 17.6623 184.004 17.413H184.378C184.378 17.8147 184.385 18.1887 184.399 18.5351C184.413 18.8814 184.434 19.2831 184.461 19.7403C184.572 19.5048 184.676 19.297 184.773 19.1169C184.884 18.9368 185.05 18.7151 185.272 18.4519C185.479 18.2026 185.694 18.0502 185.916 17.9948C186.137 17.9255 186.338 17.8909 186.518 17.8909C186.865 17.8909 187.169 17.9948 187.433 18.2026C187.696 18.4104 187.827 18.7567 187.827 19.2416C187.827 19.6848 187.73 20.045 187.537 20.3221C187.343 20.5853 187.052 20.7169 186.664 20.7169C186.47 20.7169 186.304 20.6615 186.165 20.5506C186.04 20.4398 185.93 20.3221 185.833 20.1974C185.736 20.0727 185.646 19.955 185.563 19.8442C185.493 19.7333 185.417 19.6779 185.334 19.6779C185.14 19.6779 184.967 19.8095 184.814 20.0727C184.676 20.3359 184.579 20.6615 184.524 21.0493C184.454 21.3818 184.434 21.645 184.461 21.839V24.7273C184.461 25.0459 184.524 25.2606 184.648 25.3714C184.773 25.4822 185.022 25.5931 185.396 25.7039L186.082 25.9117V26.2442C185.777 26.2164 185.431 26.2026 185.043 26.2026C184.655 26.1887 184.288 26.1818 183.942 26.1818H183.464C183.007 26.1818 182.55 26.1887 182.092 26.2026C181.635 26.2164 181.206 26.2372 180.804 26.2649Z" fill="#474752"/>
<path d="M23.7148 10.2857C17.1648 10.2857 13.7148 15.3357 13.7148 20.2857C13.7148 25.2357 17.1648 30.2857 23.7148 30.2857C27.6648 30.2857 30.8148 27.4857 33.7148 24.1857C36.6148 27.4857 39.6648 30.2857 43.7148 30.2857C50.2648 30.2857 53.7148 25.2357 53.7148 20.2857C53.7148 15.3357 50.2648 10.2857 43.7148 10.2857C39.6648 10.2857 36.6148 13.0857 33.7148 16.3857C30.8148 13.0857 27.6648 10.2857 23.7148 10.2857ZM23.7148 15.2857C25.8148 15.2857 28.1148 17.6357 30.4148 20.2857C28.1148 22.9357 25.8148 25.2857 23.7148 25.2857C20.0148 25.2857 18.7148 22.5857 18.7148 20.2857C18.7148 17.9857 20.0148 15.2857 23.7148 15.2857ZM43.7148 15.2857C47.4148 15.2857 48.7148 17.9857 48.7148 20.2857C48.7148 22.5857 47.4148 25.2857 43.7148 25.2857C41.5648 25.2857 39.2648 22.9357 37.0148 20.2857C39.3148 17.6357 41.5648 15.2857 43.7148 15.2857Z" fill="#474752"/>
<path d="M26.2863 20C26.2863 20 25.2629 21.7143 24.0006 21.7143C22.7382 21.7143 21.7148 20.9468 21.7148 20C21.7148 19.0532 22.7382 18.2857 24.0006 18.2857C25.2629 18.2857 26.2863 20 26.2863 20Z" fill="#474752"/>
<path d="M41.1434 20C41.1434 20 42.1668 18.2857 43.4291 18.2857C44.6915 18.2857 45.7148 19.0532 45.7148 20C45.7148 20.9468 44.6915 21.7143 43.4291 21.7143C42.1668 21.7143 41.1434 20 41.1434 20Z" fill="#474752"/>
</svg>
