<svg width="165" height="40" viewBox="0 0 165 40" fill="none" xmlns="http://www.w3.org/2000/svg">
<path d="M59.7915 25.5163C59.3902 25.5163 59.0641 25.4223 58.8133 25.2341C58.5624 25.0335 58.3618 24.7325 58.2113 24.3311L54.4112 13.6456C54.2481 13.1691 54.2795 12.7615 54.5052 12.4228C54.7435 12.0842 55.1511 11.9149 55.728 11.9149C56.1294 11.9149 56.4366 12.009 56.6498 12.1971C56.8756 12.3852 57.0574 12.6799 57.1954 13.0813L60.2995 22.3182H59.4905L62.7639 13.1001C62.9144 12.6987 63.0963 12.404 63.3095 12.2159C63.5352 12.0152 63.8299 11.9149 64.1937 11.9149C64.5448 11.9149 64.827 12.0152 65.0402 12.2159C65.2534 12.404 65.4353 12.705 65.5858 13.1189L68.7087 22.3182H68.0126L71.1731 13.0813C71.2985 12.6925 71.4741 12.404 71.6998 12.2159C71.9256 12.0152 72.2329 11.9149 72.6217 11.9149C73.1108 11.9149 73.4682 12.0842 73.694 12.4228C73.9197 12.7615 73.9448 13.1691 73.7692 13.6456L69.9315 24.35C69.7935 24.7387 69.6054 25.0335 69.3671 25.2341C69.1288 25.4223 68.8027 25.5163 68.3888 25.5163C67.9875 25.5163 67.6677 25.4223 67.4294 25.2341C67.1911 25.0335 66.9967 24.7325 66.8462 24.3311L63.8738 15.922H64.3253L61.3153 24.35C61.1648 24.7387 60.9704 25.0335 60.7322 25.2341C60.5064 25.4223 60.1929 25.5163 59.7915 25.5163Z" fill="#474752"/>
<path d="M78.3969 25.5163C77.9329 25.5163 77.5755 25.3909 77.3246 25.1401C77.0863 24.8892 76.9672 24.5318 76.9672 24.0678V13.3635C76.9672 12.8869 77.0863 12.5294 77.3246 12.2911C77.5755 12.0403 77.9329 11.9149 78.3969 11.9149C78.8484 11.9149 79.1933 12.0403 79.4316 12.2911C79.6825 12.5294 79.8079 12.8869 79.8079 13.3635V17.8408H79.5445C79.833 17.2263 80.2594 16.756 80.8238 16.4299C81.4007 16.0913 82.0528 15.922 82.7803 15.922C83.5202 15.922 84.1285 16.0662 84.6051 16.3546C85.0816 16.6306 85.4391 17.057 85.6774 17.6339C85.9157 18.1983 86.0348 18.9194 86.0348 19.7973V24.0678C86.0348 24.5318 85.9094 24.8892 85.6586 25.1401C85.4203 25.3909 85.0691 25.5163 84.6051 25.5163C84.1536 25.5163 83.8024 25.3909 83.5516 25.1401C83.3133 24.8892 83.1941 24.5318 83.1941 24.0678V19.929C83.1941 19.2894 83.075 18.8316 82.8367 18.5557C82.6109 18.2672 82.2598 18.123 81.7832 18.123C81.1812 18.123 80.6983 18.3111 80.3346 18.6874C79.9835 19.0636 79.8079 19.5653 79.8079 20.1924V24.0678C79.8079 25.0335 79.3376 25.5163 78.3969 25.5163Z" fill="#474752"/>
<path d="M93.3289 25.554C92.2378 25.554 91.2972 25.3596 90.507 24.9708C89.7295 24.5694 89.1275 24.0113 88.701 23.2965C88.2872 22.569 88.0802 21.7162 88.0802 20.738C88.0802 19.7848 88.2809 18.9508 88.6822 18.2359C89.0836 17.5085 89.6417 16.9441 90.3565 16.5428C91.084 16.1289 91.9054 15.922 92.821 15.922C93.4857 15.922 94.0877 16.0348 94.627 16.2606C95.1663 16.4738 95.6303 16.7873 96.0191 17.2012C96.4079 17.6025 96.7026 18.0979 96.9033 18.6874C97.104 19.2643 97.2043 19.9102 97.2043 20.6251C97.2043 20.8634 97.129 21.0452 96.9785 21.1706C96.828 21.2835 96.6086 21.34 96.3201 21.34H90.413V19.8726H95.1537L94.8527 20.136C94.8527 19.6217 94.7775 19.1953 94.627 18.8567C94.4765 18.5055 94.257 18.2422 93.9685 18.0666C93.6926 17.891 93.3477 17.8032 92.9339 17.8032C92.4698 17.8032 92.0748 17.9098 91.7487 18.123C91.4226 18.3362 91.1717 18.6435 90.9962 19.0448C90.8206 19.4462 90.7328 19.929 90.7328 20.4934V20.6439C90.7328 21.5971 90.9523 22.2994 91.3912 22.7509C91.8427 23.2024 92.5074 23.4281 93.3854 23.4281C93.6864 23.4281 94.0312 23.3905 94.42 23.3153C94.8088 23.24 95.1725 23.1209 95.5112 22.9578C95.7996 22.8199 96.0567 22.776 96.2825 22.8261C96.5082 22.8638 96.6838 22.9641 96.8092 23.1271C96.9346 23.2902 97.0036 23.4783 97.0162 23.6915C97.0412 23.9047 96.9974 24.1179 96.8845 24.3311C96.7716 24.5318 96.5835 24.7011 96.3201 24.8391C95.8937 25.0774 95.4108 25.253 94.8715 25.3658C94.3448 25.4912 93.8306 25.554 93.3289 25.554Z" fill="#474752"/>
<path d="M104.03 25.554C102.939 25.554 101.998 25.3596 101.208 24.9708C100.431 24.5694 99.8285 24.0113 99.4021 23.2965C98.9883 22.569 98.7813 21.7162 98.7813 20.738C98.7813 19.7848 98.982 18.9508 99.3833 18.2359C99.7846 17.5085 100.343 16.9441 101.058 16.5428C101.785 16.1289 102.607 15.922 103.522 15.922C104.187 15.922 104.789 16.0348 105.328 16.2606C105.867 16.4738 106.331 16.7873 106.72 17.2012C107.109 17.6025 107.404 18.0979 107.604 18.6874C107.805 19.2643 107.905 19.9102 107.905 20.6251C107.905 20.8634 107.83 21.0452 107.68 21.1706C107.529 21.2835 107.31 21.34 107.021 21.34H101.114V19.8726H105.855L105.554 20.136C105.554 19.6217 105.479 19.1953 105.328 18.8567C105.178 18.5055 104.958 18.2422 104.67 18.0666C104.394 17.891 104.049 17.8032 103.635 17.8032C103.171 17.8032 102.776 17.9098 102.45 18.123C102.124 18.3362 101.873 18.6435 101.697 19.0448C101.522 19.4462 101.434 19.929 101.434 20.4934V20.6439C101.434 21.5971 101.653 22.2994 102.092 22.7509C102.544 23.2024 103.209 23.4281 104.086 23.4281C104.387 23.4281 104.732 23.3905 105.121 23.3153C105.51 23.24 105.874 23.1209 106.212 22.9578C106.501 22.8199 106.758 22.776 106.984 22.8261C107.209 22.8638 107.385 22.9641 107.51 23.1271C107.636 23.2902 107.705 23.4783 107.717 23.6915C107.742 23.9047 107.698 24.1179 107.586 24.3311C107.473 24.5318 107.285 24.7011 107.021 24.8391C106.595 25.0774 106.112 25.253 105.573 25.3658C105.046 25.4912 104.532 25.554 104.03 25.554Z" fill="#474752"/>
<path d="M113.264 25.554C112.147 25.554 111.313 25.2467 110.762 24.6321C110.21 24.0051 109.934 23.077 109.934 21.8479V13.3635C109.934 12.8869 110.053 12.5294 110.291 12.2911C110.542 12.0403 110.9 11.9149 111.364 11.9149C111.815 11.9149 112.16 12.0403 112.398 12.2911C112.649 12.5294 112.775 12.8869 112.775 13.3635V21.735C112.775 22.2492 112.881 22.6317 113.094 22.8826C113.32 23.1209 113.615 23.24 113.979 23.24C114.079 23.24 114.173 23.2337 114.261 23.2212C114.349 23.2087 114.443 23.2024 114.543 23.2024C114.744 23.1773 114.882 23.24 114.957 23.3905C115.045 23.5285 115.089 23.8107 115.089 24.2371C115.089 24.6133 115.013 24.9018 114.863 25.1025C114.712 25.2906 114.48 25.416 114.167 25.4787C114.041 25.4912 113.897 25.5038 113.734 25.5163C113.571 25.5414 113.414 25.554 113.264 25.554Z" fill="#474752"/>
<path d="M117.196 25.5163C116.844 25.5163 116.556 25.4348 116.33 25.2718C116.117 25.1087 115.979 24.8892 115.916 24.6133C115.866 24.3374 115.923 24.0301 116.086 23.6915L120.902 13.1377C121.102 12.7113 121.341 12.404 121.617 12.2159C121.893 12.0152 122.212 11.9149 122.576 11.9149C122.94 11.9149 123.26 12.0152 123.535 12.2159C123.811 12.404 124.043 12.7113 124.232 13.1377L129.085 23.6915C129.248 24.0301 129.305 24.3437 129.254 24.6321C129.217 24.9081 129.091 25.1275 128.878 25.2906C128.665 25.4411 128.389 25.5163 128.05 25.5163C127.624 25.5163 127.292 25.416 127.053 25.2153C126.828 25.0147 126.627 24.7011 126.451 24.2747L125.323 21.6598L126.489 22.4687H118.644L119.811 21.6598L118.701 24.2747C118.513 24.7137 118.312 25.0335 118.099 25.2341C117.898 25.4223 117.597 25.5163 117.196 25.5163ZM122.538 15.1883L120.13 20.9261L119.622 20.1924H125.511L125.003 20.9261L122.576 15.1883H122.538Z" fill="#474752"/>
<path d="M132.545 28.9026C132.081 28.9026 131.724 28.7772 131.473 28.5263C131.235 28.288 131.116 27.9306 131.116 27.454V17.3893C131.116 16.9253 131.235 16.5741 131.473 16.3358C131.724 16.085 132.069 15.9596 132.508 15.9596C132.972 15.9596 133.323 16.085 133.561 16.3358C133.799 16.5741 133.919 16.9253 133.919 17.3893V18.6686L133.712 17.9349C133.9 17.3329 134.276 16.85 134.84 16.4863C135.417 16.1101 136.076 15.922 136.816 15.922C137.618 15.922 138.321 16.1164 138.923 16.5051C139.537 16.8939 140.014 17.4458 140.353 18.1606C140.691 18.8755 140.86 19.7284 140.86 20.7191C140.86 21.7099 140.691 22.569 140.353 23.2965C140.014 24.0239 139.544 24.582 138.942 24.9708C138.34 25.3596 137.631 25.554 136.816 25.554C136.088 25.554 135.442 25.3784 134.878 25.0272C134.314 24.6635 133.931 24.1932 133.731 23.6163H133.956V27.454C133.956 27.9306 133.831 28.288 133.58 28.5263C133.342 28.7772 132.997 28.9026 132.545 28.9026ZM135.969 23.4281C136.371 23.4281 136.722 23.3278 137.023 23.1271C137.336 22.9265 137.575 22.6317 137.738 22.243C137.913 21.8416 138.001 21.3337 138.001 20.7191C138.001 19.8036 137.813 19.1326 137.437 18.7062C137.06 18.2672 136.571 18.0478 135.969 18.0478C135.568 18.0478 135.21 18.1418 134.897 18.33C134.596 18.5181 134.358 18.8128 134.182 19.2141C134.006 19.6029 133.919 20.1046 133.919 20.7191C133.919 21.6347 134.107 22.3182 134.483 22.7697C134.859 23.2087 135.355 23.4281 135.969 23.4281Z" fill="#474752"/>
<path d="M144.404 28.9026C143.94 28.9026 143.582 28.7772 143.332 28.5263C143.093 28.288 142.974 27.9306 142.974 27.454V17.3893C142.974 16.9253 143.093 16.5741 143.332 16.3358C143.582 16.085 143.927 15.9596 144.366 15.9596C144.83 15.9596 145.181 16.085 145.42 16.3358C145.658 16.5741 145.777 16.9253 145.777 17.3893V18.6686L145.57 17.9349C145.758 17.3329 146.135 16.85 146.699 16.4863C147.276 16.1101 147.934 15.922 148.674 15.922C149.477 15.922 150.179 16.1164 150.781 16.5051C151.396 16.8939 151.872 17.4458 152.211 18.1606C152.55 18.8755 152.719 19.7284 152.719 20.7191C152.719 21.7099 152.55 22.569 152.211 23.2965C151.872 24.0239 151.402 24.582 150.8 24.9708C150.198 25.3596 149.489 25.554 148.674 25.554C147.947 25.554 147.301 25.3784 146.737 25.0272C146.172 24.6635 145.79 24.1932 145.589 23.6163H145.815V27.454C145.815 27.9306 145.689 28.288 145.439 28.5263C145.2 28.7772 144.855 28.9026 144.404 28.9026ZM147.828 23.4281C148.229 23.4281 148.58 23.3278 148.881 23.1271C149.195 22.9265 149.433 22.6317 149.596 22.243C149.772 21.8416 149.859 21.3337 149.859 20.7191C149.859 19.8036 149.671 19.1326 149.295 18.7062C148.919 18.2672 148.43 18.0478 147.828 18.0478C147.426 18.0478 147.069 18.1418 146.755 18.33C146.454 18.5181 146.216 18.8128 146.041 19.2141C145.865 19.6029 145.777 20.1046 145.777 20.7191C145.777 21.6347 145.965 22.3182 146.342 22.7697C146.718 23.2087 147.213 23.4281 147.828 23.4281Z" fill="#474752"/>
<line x1="12.85" y1="24.3321" x2="47.1092" y2="31.9452" stroke="#474752" stroke-width="2.23636"/>
<path d="M31.041 23.8404C29.6862 24.8793 28.047 25.4806 26.3418 25.5642C24.6367 25.6478 22.9465 25.2098 21.4966 24.3084C20.0467 23.4071 18.9059 22.0853 18.2263 20.5191C17.5467 18.953 17.3606 17.217 17.6927 15.5423C18.0248 13.8677 18.8594 12.3341 20.0852 11.1458C21.311 9.95759 22.8699 9.17115 24.554 8.89133C26.2382 8.61151 27.9676 8.85161 29.5118 9.57963C31.056 10.3076 32.3417 11.489 33.1975 12.9662" stroke="#474752" stroke-width="2.23636"/>
<path d="M46.3835 19.7137C46.3835 24.352 42.6234 28.112 37.9852 28.112C33.347 28.112 29.5869 24.352 29.5869 19.7137C29.5869 15.0755 33.347 11.3155 37.9852 11.3155C42.6234 11.3155 46.3835 15.0755 46.3835 19.7137Z" fill="#474752" stroke="#474752" stroke-width="2.23636"/>
</svg>
