<svg width="148" height="40" viewBox="0 0 148 40" fill="none" xmlns="http://www.w3.org/2000/svg">
<path d="M48.0996 25.6658V11.7636H56.858V13.7099H50.2445V17.7018H56.3019V19.6481H50.2445V23.7195H56.9573V25.6658H48.0996Z" fill="#474752"/>
<path d="M63.3045 25.9439C62.4969 25.9439 61.7488 25.7453 61.0603 25.3481C60.3718 24.9509 59.8157 24.3815 59.392 23.6401C58.9816 22.8854 58.7764 21.9784 58.7764 20.9192V20.6213C58.7764 19.5753 58.9816 18.675 59.392 17.9203C59.8025 17.1656 60.352 16.5897 61.0405 16.1925C61.7289 15.7953 62.4836 15.5966 63.3045 15.5966C63.9401 15.5966 64.4697 15.6761 64.8934 15.835C65.3303 15.9939 65.6878 16.1991 65.9658 16.4506C66.2439 16.689 66.4557 16.9405 66.6013 17.2053H66.9191V11.7636H68.9647V25.6658H66.9588V24.2756H66.6411C66.3895 24.6993 66.0055 25.0833 65.4892 25.4275C64.986 25.7717 64.2578 25.9439 63.3045 25.9439ZM63.8805 24.1564C64.7676 24.1564 65.4958 23.8718 66.0651 23.3024C66.6477 22.7331 66.939 21.9188 66.939 20.8596V20.6809C66.939 19.6349 66.6543 18.8273 66.085 18.2579C65.5156 17.6886 64.7808 17.4039 63.8805 17.4039C63.0066 17.4039 62.2784 17.6886 61.6958 18.2579C61.1265 18.8273 60.8419 19.6349 60.8419 20.6809V20.8596C60.8419 21.9188 61.1265 22.7331 61.6958 23.3024C62.2784 23.8718 63.0066 24.1564 63.8805 24.1564Z" fill="#474752"/>
<path d="M71.4994 20.8199V20.522C71.4994 19.4893 71.7046 18.6088 72.1151 17.8806C72.5387 17.1524 73.0948 16.5897 73.7833 16.1925C74.4718 15.7953 75.2265 15.5966 76.0474 15.5966C77.0007 15.5966 77.7289 15.7754 78.232 16.1329C78.7484 16.4904 79.1257 16.8743 79.3641 17.2848H79.6818V15.8747H81.6679V27.6717C81.6679 28.2675 81.4891 28.7442 81.1316 29.1017C80.7874 29.4591 80.3107 29.6379 79.7017 29.6379H73.1081V27.8505H79.0662C79.4501 27.8505 79.6421 27.6518 79.6421 27.2546V24.1366H79.3243C79.1787 24.3749 78.9735 24.6198 78.7087 24.8714C78.4439 25.123 78.093 25.3282 77.6561 25.4871C77.2324 25.646 76.6962 25.7254 76.0474 25.7254C75.2265 25.7254 74.4652 25.5334 73.7635 25.1495C73.075 24.7522 72.5255 24.1895 72.1151 23.4613C71.7046 22.7199 71.4994 21.8394 71.4994 20.8199ZM76.6035 23.938C77.4906 23.938 78.2188 23.6599 78.7881 23.1038C79.3707 22.5345 79.662 21.7533 79.662 20.7603V20.5816C79.662 19.5621 79.3773 18.7809 78.808 18.2381C78.2386 17.682 77.5038 17.4039 76.6035 17.4039C75.7296 17.4039 75.0014 17.682 74.4188 18.2381C73.8495 18.7809 73.5649 19.5621 73.5649 20.5816V20.7603C73.5649 21.7533 73.8495 22.5345 74.4188 23.1038C75.0014 23.6599 75.7296 23.938 76.6035 23.938Z" fill="#474752"/>
<path d="M89.1681 25.9439C88.1751 25.9439 87.3078 25.7386 86.5664 25.3282C85.8249 24.9045 85.2423 24.3153 84.8187 23.5606C84.4082 22.7927 84.203 21.9056 84.203 20.8993V20.661C84.203 19.6415 84.4082 18.7544 84.8187 17.9997C85.2291 17.2318 85.7984 16.6426 86.5266 16.2322C87.2681 15.8085 88.1221 15.5966 89.0886 15.5966C90.0287 15.5966 90.8496 15.8085 91.5513 16.2322C92.2663 16.6426 92.8224 17.2186 93.2196 17.96C93.6168 18.7015 93.8154 19.5687 93.8154 20.5617V21.3363H86.2883C86.3148 22.1969 86.5995 22.8854 87.1423 23.4017C87.6984 23.9049 88.3869 24.1564 89.2078 24.1564C89.9757 24.1564 90.5517 23.9843 90.9356 23.6401C91.3328 23.2958 91.6374 22.8986 91.8492 22.4485L93.5373 23.3223C93.352 23.693 93.0805 24.0836 92.7231 24.4941C92.3788 24.9045 91.922 25.2488 91.3527 25.5268C90.7834 25.8048 90.0552 25.9439 89.1681 25.9439ZM86.3082 19.7673H91.73C91.6771 19.0259 91.4123 18.4499 90.9356 18.0395C90.459 17.6158 89.8367 17.4039 89.0688 17.4039C88.3008 17.4039 87.6719 17.6158 87.182 18.0395C86.7054 18.4499 86.4141 19.0259 86.3082 19.7673Z" fill="#474752"/>
<path d="M96.2182 25.6658V11.7636H98.3631V17.543H98.6808L103.864 11.7636H106.665L100.389 18.6154L106.883 25.6658H104.003L98.6808 19.7673H98.3631V25.6658H96.2182Z" fill="#474752"/>
<path d="M111.593 25.9439C110.892 25.9439 110.263 25.8247 109.707 25.5864C109.164 25.3481 108.727 24.9972 108.396 24.5338C108.078 24.0704 107.919 23.5077 107.919 22.8457C107.919 22.1704 108.078 21.6143 108.396 21.1774C108.727 20.7272 109.17 20.3896 109.726 20.1645C110.296 19.9394 110.938 19.8269 111.653 19.8269H114.632V19.1914C114.632 18.622 114.46 18.1652 114.116 17.821C113.771 17.4768 113.242 17.3046 112.527 17.3046C111.825 17.3046 111.289 17.4701 110.918 17.8011C110.547 18.1321 110.302 18.5625 110.183 19.0921L108.277 18.4764C108.436 17.9468 108.687 17.4701 109.031 17.0465C109.389 16.6095 109.859 16.2587 110.441 15.9939C111.024 15.7291 111.726 15.5966 112.547 15.5966C113.818 15.5966 114.817 15.921 115.545 16.5698C116.274 17.2186 116.638 18.1388 116.638 19.3304V23.362C116.638 23.7592 116.823 23.9578 117.194 23.9578H118.028V25.6658H116.499C116.035 25.6658 115.658 25.5467 115.367 25.3083C115.075 25.07 114.93 24.7456 114.93 24.3352V24.2756H114.632C114.526 24.4742 114.367 24.7059 114.155 24.9707C113.943 25.2355 113.632 25.4672 113.222 25.6658C112.811 25.8512 112.269 25.9439 111.593 25.9439ZM111.891 24.2557C112.712 24.2557 113.374 24.024 113.877 23.5606C114.38 23.084 114.632 22.4352 114.632 21.6143V21.4157H111.772C111.229 21.4157 110.792 21.5349 110.461 21.7732C110.13 21.9983 109.965 22.3359 109.965 22.7861C109.965 23.2362 110.137 23.5937 110.481 23.8585C110.825 24.1233 111.295 24.2557 111.891 24.2557Z" fill="#474752"/>
<path d="M120.017 25.6658V15.8747H122.023V17.0266H122.341C122.5 16.6161 122.751 16.3182 123.095 16.1329C123.453 15.9343 123.89 15.835 124.406 15.835H125.578V17.682H124.327C123.665 17.682 123.122 17.8673 122.698 18.2381C122.274 18.5956 122.063 19.1516 122.063 19.9063V25.6658H120.017Z" fill="#474752"/>
<path d="M131.372 25.6658C130.776 25.6658 130.299 25.4871 129.942 25.1296C129.597 24.7721 129.425 24.2955 129.425 23.6997V17.6025H126.724V15.8747H129.425V12.6375H131.471V15.8747H134.39V17.6025H131.471V23.3422C131.471 23.7394 131.656 23.938 132.027 23.938H134.073V25.6658H131.372Z" fill="#474752"/>
<rect x="19.0557" y="22.2703" width="14.1781" height="14.1781" transform="rotate(-45 19.0557 22.2703)" fill="#474752" stroke="#474752" stroke-width="1.72226"/>
<rect x="19.0557" y="16.6486" width="14.1781" height="14.1781" transform="rotate(-45 19.0557 16.6486)" fill="#474752" stroke="#474752" stroke-width="1.72226"/>
</svg>
