<svg width="260" height="40" viewBox="0 0 260 40" fill="none" xmlns="http://www.w3.org/2000/svg">
<path d="M54.1022 18.1099C54.0845 17.8268 54.0756 17.4021 54.0756 16.836V15.8275C54.0756 15.1552 54.0579 14.6509 54.0226 14.3148C53.9872 14.0317 53.9695 13.2974 53.9695 12.112C53.9695 11.6874 54.0933 11.3601 54.341 11.1301C54.6064 10.8824 54.9603 10.7585 55.4026 10.7585C55.9688 10.7585 56.3491 10.8824 56.5438 11.1301C56.7384 11.3778 56.8357 11.7847 56.8357 12.3509V13.3594L56.8092 16.2787C56.7915 16.8448 56.7826 17.6941 56.7826 18.8264L56.8092 21.0026C56.8268 21.3388 56.8357 21.8076 56.8357 22.4092C56.8357 22.8869 56.8534 23.5681 56.8888 24.4527C56.9242 25.2666 56.9418 25.877 56.9418 26.2839C56.9418 26.6201 56.8445 26.9297 56.6499 27.2128C56.473 27.4958 56.2253 27.6374 55.9068 27.6374C54.6683 27.6374 54.0491 27.2216 54.0491 26.39C54.0491 25.93 54.0668 25.4169 54.1022 24.8508C54.1376 24.4438 54.1552 23.8246 54.1552 22.993C54.1552 22.4092 54.1376 21.5688 54.1022 20.4718C53.2706 20.5426 51.8375 20.578 49.8028 20.578C48.529 20.578 47.5382 20.578 46.8305 20.578C46.1228 20.5603 45.6097 20.5161 45.2912 20.4453L45.2647 23.4973C45.2647 23.6919 45.3089 24.2138 45.3974 25.0631C45.4858 25.6293 45.53 26.1247 45.53 26.5493C45.53 26.8147 45.3708 27.0712 45.0523 27.3189C44.7516 27.5489 44.4685 27.6639 44.2031 27.6639C43.5662 27.6639 43.1327 27.5135 42.9027 27.2128C42.6727 26.8943 42.5577 26.4166 42.5577 25.7796L42.5311 23.6831C42.5134 23.4354 42.5046 23.0904 42.5046 22.648C42.5046 21.9934 42.4869 21.0999 42.4515 19.9676C42.4161 18.9414 42.3984 18.1983 42.3984 17.7383C42.3984 17.0483 42.4161 16.084 42.4515 14.8455C42.4869 13.6778 42.5046 12.8109 42.5046 12.2447C42.5046 11.6786 42.6461 11.2982 42.9292 11.1035C43.2123 10.9089 43.5308 10.8116 43.8846 10.8116C44.8754 10.8116 45.3708 11.1389 45.3708 11.7936C45.3708 12.9613 45.3443 14.0759 45.2912 15.1375C45.2558 16.4821 45.2381 17.4641 45.2381 18.0833C45.7512 18.2072 46.2908 18.2868 46.857 18.3222C47.4232 18.3576 48.2193 18.3752 49.2455 18.3752C51.3333 18.3752 52.9521 18.2868 54.1022 18.1099Z" fill="#474752"/>
<path d="M61.6229 10.5728C62.2421 10.6258 62.7818 10.7939 63.2418 11.077C63.7018 11.3424 63.9318 11.7493 63.9318 12.2978C63.9318 12.7047 63.7372 13.032 63.3479 13.2797C62.9764 13.5097 62.5252 13.6248 61.9944 13.6248C61.4813 13.6248 61.1275 13.4921 60.9329 13.2267C60.7383 12.9613 60.6409 12.687 60.6409 12.404C60.6409 11.8732 60.694 11.4309 60.8002 11.077C60.924 10.7231 61.1983 10.5551 61.6229 10.5728ZM63.746 23.0992C63.746 23.7892 63.7637 24.4438 63.7991 25.0631C63.8522 25.6646 63.9141 26.275 63.9849 26.8943C63.9672 27.0712 63.8345 27.257 63.5868 27.4516C63.3391 27.6285 63.1179 27.717 62.9233 27.717C62.5871 27.717 62.2421 27.6551 61.8883 27.5312C61.5521 27.3897 61.3486 27.2216 61.2779 27.027C61.1717 26.4608 61.1186 25.9566 61.1186 25.5143C61.1186 24.0635 61.0744 22.4357 60.9859 20.6311C60.9152 19.0387 60.8798 17.9241 60.8798 17.2871C60.8798 16.9687 61.039 16.6944 61.3575 16.4644C61.676 16.2344 62.0121 16.1194 62.366 16.1194C62.8791 16.1194 63.2329 16.2344 63.4275 16.4644C63.6399 16.6944 63.746 17.0571 63.746 17.5525V23.0992Z" fill="#474752"/>
<path d="M76.6403 27.5578C77.118 27.8939 77.4364 28.2655 77.5957 28.6724C77.7726 29.0793 77.8611 29.6455 77.8611 30.3709C77.8611 30.7248 77.7549 31.0786 77.5426 31.4325C77.348 31.7863 77.1445 32.0429 76.9322 32.2021C75.2514 33.1221 73.5706 33.5821 71.8898 33.5821C71.0582 33.5821 70.3417 33.476 69.7401 33.2637C69.1386 33.0514 68.5724 32.7683 68.0416 32.4144C67.6878 32.149 67.3958 31.7775 67.1658 31.2998C66.9535 30.8398 66.8474 30.3798 66.8474 29.9197C66.8474 29.2828 67.042 28.7255 67.4312 28.2478C67.8381 27.7701 68.3778 27.4251 69.0501 27.2128C68.9262 26.9474 68.8643 26.6377 68.8643 26.2839C68.8643 25.9477 69.112 25.4435 69.6074 24.7712C68.7582 24.4881 68.0858 23.9838 67.5904 23.2584C67.1127 22.533 66.8739 21.6838 66.8739 20.7107C66.8739 20.1091 67.0154 19.5783 67.2985 19.1183C67.5816 18.6406 68.0062 18.0922 68.5724 17.4729C68.9616 17.0483 69.457 16.7387 70.0586 16.544C70.6601 16.3494 71.4121 16.2521 72.3144 16.2521C72.9513 16.2521 73.7387 16.3937 74.6764 16.6767C75.791 15.8983 76.773 15.509 77.6222 15.509C77.8345 15.509 78.0734 15.5621 78.3388 15.6683C78.6219 15.7744 78.8342 15.8806 78.9757 15.9867C79.0819 16.1813 79.1349 16.5087 79.1349 16.9687C79.1349 17.1456 79.0553 17.3225 78.8961 17.4995C78.7546 17.6587 78.5688 17.7383 78.3388 17.7383L77.7018 17.7118C77.3834 17.6764 77.1357 17.6587 76.9587 17.6587C76.7641 17.6587 76.4722 17.6764 76.083 17.7118C76.4545 18.1541 76.7376 18.6229 76.9322 19.1183C77.1445 19.6137 77.2507 20.2595 77.2507 21.0557C77.2507 21.6572 77.0295 22.2853 76.5872 22.94C76.1449 23.5946 75.6229 24.1077 75.0214 24.4792C74.1014 24.9746 73.031 25.2312 71.8102 25.2489C71.6686 25.3904 71.5448 25.5231 71.4386 25.647C71.3502 25.7531 71.3059 25.8416 71.3059 25.9123C71.3059 26.107 71.474 26.2573 71.8102 26.3635C72.1463 26.4697 72.6594 26.5493 73.3494 26.6024C73.8802 26.6377 74.4641 26.7527 75.101 26.9474C75.7556 27.1243 76.2687 27.3278 76.6403 27.5578ZM71.9694 23.0727C72.7833 23.0727 73.4379 22.8515 73.9333 22.4092C74.4287 21.9669 74.6764 21.3388 74.6764 20.5249C74.6764 19.9057 74.4552 19.4014 74.0129 19.0122C73.5706 18.6229 73.0044 18.4283 72.3144 18.4283C71.8721 18.4283 71.3944 18.5079 70.8813 18.6672C70.3859 18.8087 70.032 19.0387 69.8197 19.3572C69.7136 19.4987 69.6074 19.773 69.5013 20.1799C69.3951 20.5691 69.342 20.8699 69.342 21.0822C69.342 21.383 69.4659 21.6926 69.7136 22.0111C69.979 22.3119 70.3151 22.5684 70.7221 22.7807C71.1467 22.9754 71.5625 23.0727 71.9694 23.0727ZM73.6414 28.8316C72.6683 28.7432 71.9782 28.6547 71.5713 28.5662C71.1821 28.4955 70.8636 28.407 70.6159 28.3009C69.7136 28.7786 69.2624 29.3005 69.2624 29.8667C69.2624 30.3974 69.5366 30.7955 70.0851 31.0609C70.6336 31.344 71.2617 31.4855 71.9694 31.4855C72.2879 31.4855 72.7213 31.4502 73.2698 31.3794C73.8183 31.3086 74.2783 31.1848 74.6498 31.0078C74.8975 30.884 75.0833 30.7601 75.2072 30.6363C75.331 30.5301 75.3929 30.3267 75.3929 30.0259C75.3929 29.6544 75.1983 29.3713 74.8091 29.1766C74.4198 28.982 74.0306 28.867 73.6414 28.8316Z" fill="#474752"/>
<path d="M91.4941 27.6905C90.1671 27.6905 89.2736 27.1774 88.8136 26.1512C88.5836 25.6381 88.4332 24.9746 88.3625 24.1608C88.2917 23.3292 88.2563 22.3561 88.2563 21.2415V20.4188C88.2563 19.1449 87.8317 18.5079 86.9824 18.5079C86.487 18.5079 85.9916 18.7645 85.4962 19.2776C85.0008 19.773 84.5851 20.4364 84.2489 21.268C83.9304 22.0819 83.7712 22.9311 83.7712 23.8158C83.7712 24.3996 83.7977 24.9304 83.8508 25.4081C83.8862 26.0097 83.9039 26.4697 83.9039 26.7881C83.9039 27.3897 83.4881 27.6905 82.6566 27.6905C82.2496 27.6905 81.8869 27.602 81.5685 27.4251C81.2677 27.2481 81.1173 27.0181 81.1173 26.7351C81.1881 25.8327 81.2234 24.7181 81.2234 23.3911L81.1969 19.888C81.1969 19.3218 81.1527 17.2252 81.0642 13.5982L80.9846 11.1566C80.9846 10.7674 81.1615 10.4312 81.5154 10.1481C81.8692 9.84736 82.2673 9.69697 82.7096 9.69697C83.0989 9.69697 83.382 9.78543 83.5589 9.96236C83.7358 10.1393 83.8243 10.4135 83.8243 10.7851C83.8243 11.2451 83.8154 11.7847 83.7977 12.404C83.78 13.0055 83.7623 13.4655 83.7447 13.784C83.6916 14.6863 83.665 15.5886 83.665 16.491C83.665 17.3756 83.6473 18.0745 83.612 18.5876C84.1427 17.8091 84.7443 17.2341 85.4166 16.8625C86.1066 16.4733 86.9117 16.2787 87.8317 16.2787C88.504 16.2787 89.1232 16.5794 89.6894 17.181C90.2733 17.7648 90.6271 18.4372 90.751 19.198C90.7864 19.5872 90.804 20.1622 90.804 20.923L90.7775 22.8603C90.7775 23.1611 90.7952 23.63 90.8306 24.2669C90.8483 24.5677 90.9456 24.8862 91.1225 25.2223C91.3171 25.5585 91.5383 25.8062 91.786 25.9654C92.016 26.107 92.1664 26.2485 92.2372 26.39C92.3079 26.5316 92.3433 26.6908 92.3433 26.8677C92.3433 27.0447 92.2637 27.2304 92.1045 27.4251C91.9452 27.602 91.7418 27.6905 91.4941 27.6905Z" fill="#474752"/>
<path d="M113.637 13.3594C113.902 13.6778 114.088 13.9344 114.194 14.129C114.3 14.3236 114.354 14.5094 114.354 14.6863C114.354 14.8986 114.212 15.1463 113.929 15.4294C113.664 15.7125 113.398 15.854 113.133 15.854C112.779 15.854 112.496 15.801 112.283 15.6948C112.071 15.5886 111.894 15.4206 111.753 15.1906C111.417 14.6598 111.027 14.1909 110.585 13.784C110.143 13.3594 109.55 13.147 108.807 13.147C108.081 13.147 107.268 13.3151 106.365 13.6513C105.463 13.9875 104.799 14.4032 104.375 14.8986C103.419 16.0663 102.942 17.6145 102.942 19.543C102.942 21.0822 103.419 22.4003 104.375 23.4973C105.383 24.6296 106.657 25.1958 108.196 25.1958C108.904 25.1958 109.674 25.0719 110.505 24.8242C111.355 24.5588 112.027 24.1342 112.522 23.5504H112.496C112.814 23.2142 113.212 23.0461 113.69 23.0461C113.973 23.0461 114.239 23.17 114.486 23.4177C114.752 23.6654 114.884 23.9131 114.884 24.1608C114.884 24.4262 114.84 24.665 114.752 24.8773C114.681 25.0719 114.539 25.2931 114.327 25.5408C113.602 26.337 112.673 26.8943 111.54 27.2128C110.426 27.5135 109.152 27.6639 107.719 27.6639C106.533 27.6639 105.392 27.3808 104.295 26.8147C103.216 26.2485 102.322 25.5319 101.615 24.665C101.261 24.1519 100.916 23.4177 100.58 22.4623C100.261 21.4892 100.102 20.7018 100.102 20.1003C100.102 18.561 100.332 17.1014 100.792 15.7213C101.27 14.3236 101.977 13.209 102.915 12.3774C103.534 11.8112 104.428 11.3866 105.596 11.1035C106.763 10.8205 107.834 10.6789 108.807 10.6789C109.585 10.6789 110.249 10.7939 110.797 11.0239C111.363 11.2362 111.85 11.5282 112.257 11.8997C112.664 12.2536 113.124 12.7401 113.637 13.3594Z" fill="#474752"/>
<path d="M127.691 19.0918C127.833 19.3395 127.948 19.7022 128.037 20.1799C128.125 20.6399 128.169 21.0557 128.169 21.4272C128.169 21.9049 128.116 22.4357 128.01 23.0196C127.904 23.6034 127.806 24.0546 127.718 24.3731C126.497 26.6024 124.693 27.717 122.304 27.717C121.419 27.717 120.517 27.4251 119.597 26.8412C118.677 26.2573 118.04 25.585 117.686 24.8242C117.209 23.3204 116.97 22.3561 116.97 21.9315C116.97 21.2238 117.12 20.4718 117.421 19.6757C117.739 18.8795 118.137 18.1895 118.615 17.6056C118.934 17.1987 119.482 16.8537 120.261 16.5706C121.039 16.2698 121.747 16.1194 122.384 16.1194C123.622 16.1194 124.666 16.3583 125.515 16.836C126.382 17.296 127.108 18.0479 127.691 19.0918ZM125.383 23.3646C125.471 23.1877 125.515 22.595 125.515 21.5865C125.515 21.0734 125.418 20.5691 125.223 20.0737C125.046 19.5783 124.781 19.1537 124.427 18.7999C124.392 18.7645 124.294 18.7114 124.135 18.6406C123.976 18.5522 123.755 18.4726 123.472 18.4018C123.206 18.3133 122.897 18.2691 122.543 18.2691C121.552 18.2691 120.827 18.6672 120.367 19.4633C119.907 20.2595 119.677 21.1618 119.677 22.1703C119.677 22.3296 119.73 22.6569 119.836 23.1523C119.942 23.6477 120.022 23.9661 120.075 24.1077C120.216 24.3554 120.499 24.6473 120.924 24.9835C121.366 25.3019 121.844 25.4612 122.357 25.4612C123.153 25.4612 123.781 25.2754 124.241 24.9039C124.719 24.5146 125.1 24.0015 125.383 23.3646Z" fill="#474752"/>
<path d="M130.42 18.6672C130.278 18.6672 130.155 18.6141 130.048 18.5079C129.942 18.3841 129.889 18.2425 129.889 18.0833C129.889 17.5702 130.057 17.181 130.394 16.9156C130.73 16.6325 131.145 16.491 131.641 16.491C132.331 16.491 132.924 16.6767 133.419 17.0483C133.932 17.4021 134.189 17.9152 134.189 18.5876C134.189 18.7645 134.153 19.4368 134.082 20.6045C134.012 21.9492 133.976 22.8427 133.976 23.285C133.976 23.9042 134.091 24.4085 134.321 24.7977C134.569 25.1692 134.949 25.355 135.462 25.355C136.453 25.355 137.214 24.8065 137.745 23.7096C138.293 22.595 138.656 21.2326 138.833 19.6226C138.904 18.9149 139.01 18.1718 139.151 17.3933C139.222 16.9687 139.319 16.6591 139.443 16.4644C139.567 16.2698 139.806 16.1725 140.16 16.1725C140.39 16.1725 140.655 16.2256 140.956 16.3317C141.275 16.4379 141.478 16.5794 141.566 16.7564C141.673 17.0218 141.726 17.3137 141.726 17.6322C141.726 18.0745 141.664 18.6495 141.54 19.3572C141.398 20.0649 141.301 20.8345 141.248 21.6661C141.213 22.4092 141.328 23.1877 141.593 24.0015C141.858 24.8154 142.239 25.3462 142.734 25.5939C143.3 25.877 143.583 26.1335 143.583 26.3635C143.583 26.7351 143.451 27.027 143.185 27.2393C142.92 27.4516 142.663 27.5578 142.416 27.5578C141.761 27.5578 141.168 27.3189 140.638 26.8412C140.124 26.3635 139.753 25.7708 139.523 25.0631C139.151 25.6293 138.789 26.0981 138.435 26.4697C138.099 26.8235 137.665 27.1243 137.134 27.372C136.604 27.602 135.949 27.717 135.171 27.717C134.251 27.717 133.41 27.3897 132.649 26.7351C131.906 26.0804 131.535 24.9569 131.535 23.3646C131.535 22.9223 131.544 22.4534 131.561 21.958C131.597 21.4626 131.614 21.1088 131.614 20.8965C131.667 20.2595 131.694 19.6757 131.694 19.1449C131.694 18.9856 131.632 18.8529 131.508 18.7468C131.402 18.6406 131.278 18.5876 131.137 18.5876C131.03 18.5876 130.907 18.6052 130.765 18.6406C130.641 18.6583 130.526 18.6672 130.42 18.6672Z" fill="#474752"/>
<path d="M157.561 25.5673C157.649 25.6027 157.791 25.6469 157.985 25.7C158.18 25.7531 158.321 25.8062 158.41 25.8593C158.498 25.9123 158.543 25.992 158.543 26.0981C158.56 26.5227 158.401 26.8766 158.065 27.1597C157.746 27.4251 157.366 27.5578 156.924 27.5578C156.234 27.5578 155.694 27.372 155.305 27.0004C154.916 26.6289 154.632 26.0627 154.456 25.3019C154.385 25.0012 154.349 24.5854 154.349 24.0546C154.349 23.7538 154.367 23.2673 154.402 22.595C154.438 21.8872 154.456 21.3211 154.456 20.8965C154.456 20.1357 154.376 19.5607 154.217 19.1714C154.057 18.7645 153.677 18.561 153.075 18.561C152.456 18.561 151.899 18.8087 151.404 19.3041C150.926 19.7995 150.519 20.5426 150.183 21.5334C149.723 22.9134 149.466 24.7446 149.413 27.027C149.413 27.1508 149.28 27.3012 149.015 27.4781C148.767 27.6374 148.467 27.717 148.113 27.717C147.458 27.717 147.051 27.372 146.892 26.682L146.865 26.2308C146.865 26.0716 146.883 25.8858 146.918 25.6735C147.131 24.435 147.237 23.3557 147.237 22.4357C147.237 22.0288 147.228 21.7103 147.21 21.4803L147.184 20.233C147.184 19.8084 147.078 19.4014 146.865 19.0122C146.653 18.6053 146.405 18.4018 146.122 18.4018C146.034 18.4018 145.91 18.4372 145.751 18.5079C145.591 18.561 145.459 18.5876 145.353 18.5876C145.176 18.5876 144.981 18.4991 144.769 18.3222C144.574 18.1452 144.477 17.9595 144.477 17.7648C144.477 17.3933 144.601 17.0925 144.848 16.8625C145.114 16.6502 145.37 16.4821 145.618 16.3583C145.883 16.2344 146.184 16.1725 146.52 16.1725C146.803 16.1725 147.033 16.199 147.21 16.2521C147.387 16.3052 147.626 16.4202 147.927 16.5971C148.104 16.6856 148.307 16.9333 148.537 17.3402C148.767 17.7472 148.944 18.3222 149.068 19.0653C149.422 18.4106 150.015 17.7206 150.846 16.9952C151.465 16.429 152.359 16.146 153.527 16.146C154.588 16.146 155.429 16.5352 156.048 17.3137C156.667 18.0745 156.977 19.1272 156.977 20.4718C156.977 20.7372 156.959 21.1707 156.924 21.7722C156.871 22.2499 156.844 22.7542 156.844 23.285C156.844 24.5235 157.083 25.2842 157.561 25.5673Z" fill="#474752"/>
<path d="M160.517 18.4283C160.269 18.3929 160.065 18.2868 159.906 18.1099C159.765 17.9329 159.694 17.7206 159.694 17.4729C159.694 17.3491 159.72 17.2164 159.774 17.0748C159.844 16.9333 159.942 16.8094 160.065 16.7033C160.295 16.4733 160.915 16.3583 161.923 16.3583C162.065 15.6683 162.135 14.9694 162.135 14.2617C162.135 13.9963 162.127 13.7663 162.109 13.5717C162.091 13.3771 162.082 13.2267 162.082 13.1205C162.082 12.7313 162.224 12.4393 162.507 12.2447C162.808 12.0501 163.144 11.9528 163.516 11.9528C163.976 11.9528 164.285 12.0678 164.444 12.2978C164.621 12.5278 164.71 12.9524 164.71 13.5717C164.71 14.4917 164.63 15.394 164.471 16.2787C164.754 16.2787 165.143 16.261 165.639 16.2256C166.311 16.1902 166.798 16.1725 167.098 16.1725C167.399 16.1725 167.656 16.2521 167.868 16.4114C168.098 16.5529 168.213 16.7564 168.213 17.0218C168.213 17.7118 167.903 18.1187 167.284 18.2425C166.629 18.4018 165.612 18.4991 164.232 18.5345C164.179 19.2245 164.152 19.9764 164.152 20.7903C164.152 22.0642 164.232 23.108 164.391 23.9219C164.497 24.4881 164.674 24.9039 164.922 25.1692C165.187 25.4169 165.577 25.5408 166.09 25.5408C166.391 25.5408 166.7 25.4612 167.019 25.3019C167.231 25.1781 167.426 25.1162 167.603 25.1162C167.85 25.1162 168.027 25.1958 168.133 25.355C168.257 25.5143 168.319 25.7266 168.319 25.992C168.319 26.4874 168.054 26.9031 167.523 27.2393C166.992 27.5578 166.311 27.717 165.479 27.717C164.966 27.717 164.444 27.5931 163.914 27.3455C163.401 27.0978 162.967 26.7881 162.613 26.4166C162.56 26.3635 162.463 26.16 162.321 25.8062C162.18 25.4523 162.056 25.0719 161.95 24.665C161.773 23.8334 161.684 22.6657 161.684 21.1618C161.684 20.5072 161.72 19.6314 161.79 18.5345L160.517 18.4283Z" fill="#474752"/>
<path d="M170.601 18.2956C170.141 17.9772 169.911 17.641 169.911 17.2871C169.911 17.0394 170.017 16.8094 170.229 16.5971C170.442 16.3848 170.76 16.2787 171.185 16.2787C171.68 16.2787 172.122 16.4114 172.512 16.6767C172.919 16.9244 173.202 17.2871 173.361 17.7648C173.768 17.2871 174.228 16.9067 174.741 16.6237C175.272 16.3406 175.811 16.199 176.36 16.199C177.014 16.199 177.607 16.376 178.138 16.7298C178.669 17.0837 178.934 17.5614 178.934 18.1629C178.934 18.4991 178.784 18.8441 178.483 19.198C178.2 19.5518 177.908 19.7287 177.607 19.7287C177.448 19.7287 177.306 19.6934 177.183 19.6226C177.076 19.5341 176.944 19.4103 176.784 19.251C176.608 19.0741 176.457 18.9503 176.333 18.8795C176.209 18.791 176.068 18.7468 175.909 18.7468C175.626 18.7468 175.36 18.791 175.112 18.8795C174.865 18.968 174.697 19.0741 174.608 19.198C174.325 19.6403 174.113 20.0384 173.971 20.3922C173.847 20.7461 173.786 21.1265 173.786 21.5334C173.786 21.8342 173.777 22.073 173.759 22.2499L173.732 23.7627C173.732 23.9927 173.741 24.2492 173.759 24.5323C173.777 24.8154 173.794 25.0277 173.812 25.1692C173.865 25.647 173.892 26.107 173.892 26.5493C173.892 26.8501 173.777 27.1154 173.547 27.3455C173.317 27.5755 173.034 27.6905 172.697 27.6905C172.167 27.6905 171.777 27.5931 171.53 27.3985C171.282 27.1862 171.158 26.8058 171.158 26.2573L171.132 24.5588C171.114 24.2227 171.105 23.745 171.105 23.1257L171.132 21.3742C171.167 20.5249 171.185 19.8349 171.185 19.3041C171.185 19.1095 171.14 18.9326 171.052 18.7733C170.981 18.6141 170.831 18.4549 170.601 18.2956Z" fill="#474752"/>
<path d="M183.498 33.0248C182.843 33.0248 182.286 32.9098 181.826 32.6798C181.366 32.4675 181.021 32.2021 180.791 31.8836C180.578 31.5829 180.472 31.3175 180.472 31.0875C180.472 30.769 180.587 30.4859 180.817 30.2382C181.047 30.0082 181.304 29.8932 181.587 29.8932C181.746 29.8932 181.896 29.9463 182.038 30.0524C182.197 30.1586 182.294 30.2205 182.33 30.2382C182.418 30.309 182.533 30.4151 182.675 30.5567C182.816 30.7159 182.958 30.7955 183.099 30.7955C183.506 30.7955 183.834 30.539 184.081 30.0259C184.329 29.5128 184.568 28.6813 184.798 27.5312C183.63 25.6027 182.524 23.6388 181.481 21.6396C180.437 19.6403 179.915 18.2868 179.915 17.5791C179.915 17.1368 180.074 16.8094 180.393 16.5971C180.711 16.3848 181.074 16.2787 181.481 16.2787C181.781 16.2787 182.02 16.3406 182.197 16.4644C182.374 16.5706 182.516 16.7741 182.622 17.0748C183.117 18.5787 183.621 19.9234 184.135 21.1088C184.648 22.2765 185.24 23.4531 185.913 24.6385C186.231 23.9308 186.611 22.7719 187.054 21.1618C187.319 20.2241 187.549 19.4633 187.744 18.8795C187.938 18.2779 188.16 17.7295 188.407 17.2341C188.567 16.9156 188.761 16.6591 188.991 16.4644C189.239 16.2698 189.504 16.1725 189.787 16.1725C190.106 16.1725 190.433 16.2875 190.769 16.5175C191.123 16.7298 191.3 16.9864 191.3 17.2871C191.3 17.3756 191.238 17.5879 191.114 17.9241C190.424 19.4633 189.814 20.9495 189.283 22.3826C188.752 23.7981 188.257 25.355 187.797 27.0535C187.514 27.9559 187.213 28.8316 186.895 29.6809C186.576 30.5478 186.355 31.0875 186.231 31.2998C185.86 31.7952 185.461 32.2021 185.037 32.5206C184.612 32.8567 184.099 33.0248 183.498 33.0248Z" fill="#474752"/>
<path d="M212.459 12.8817C212.724 13.2001 212.91 13.4567 213.016 13.6513C213.122 13.8459 213.175 14.0317 213.175 14.2086C213.175 14.4209 213.034 14.6686 212.751 14.9517C212.485 15.2348 212.22 15.3763 211.955 15.3763C211.601 15.3763 211.318 15.3233 211.105 15.2171C210.893 15.1109 210.716 14.9429 210.574 14.7129C210.291 14.2882 209.946 13.9255 209.539 13.6248C209.133 13.3063 208.496 13.147 207.629 13.147C206.886 13.147 206.036 13.3151 205.081 13.6513C204.143 13.9875 203.471 14.4032 203.064 14.8986C202.71 15.3409 202.4 16.0133 202.135 16.9156C201.887 17.8179 201.764 18.6937 201.764 19.543C201.764 20.5691 201.985 21.5157 202.427 22.3826C202.887 23.2319 203.542 23.9131 204.391 24.4262C205.258 24.9392 206.293 25.1958 207.496 25.1958C208.151 25.1958 208.823 25.0719 209.513 24.8242C210.221 24.5588 210.831 24.1342 211.344 23.5504H211.318C211.636 23.2142 212.034 23.0461 212.512 23.0461C212.795 23.0461 213.06 23.17 213.308 23.4177C213.573 23.6654 213.706 23.9131 213.706 24.1608C213.706 24.4262 213.662 24.665 213.573 24.8773C213.503 25.0719 213.361 25.2931 213.149 25.5408C212.423 26.3547 211.565 26.912 210.574 27.2128C209.584 27.5135 208.398 27.6639 207.018 27.6639C205.797 27.6639 204.559 27.372 203.303 26.7881C202.064 26.2043 201.109 25.4966 200.437 24.665C200.083 24.1519 199.738 23.4177 199.402 22.4623C199.083 21.4892 198.924 20.7018 198.924 20.1003C198.924 18.561 199.154 17.1014 199.614 15.7213C200.092 14.3236 200.799 13.209 201.737 12.3774C202.356 11.8112 203.25 11.3866 204.417 11.1035C205.585 10.8205 206.656 10.6789 207.629 10.6789C208.814 10.6789 209.743 10.847 210.415 11.1832C211.105 11.5016 211.786 12.0678 212.459 12.8817Z" fill="#474752"/>
<path d="M219.029 23.4973C219.029 24.1696 219.127 24.6915 219.321 25.0631C219.533 25.4169 219.799 25.5939 220.117 25.5939C220.294 25.5939 220.462 25.585 220.622 25.5673C220.781 25.5319 220.94 25.5143 221.099 25.5143C221.276 25.5143 221.427 25.6027 221.55 25.7796C221.692 25.9566 221.763 26.1512 221.763 26.3635C221.763 26.7881 221.559 27.1243 221.152 27.372C220.763 27.602 220.232 27.717 219.56 27.717C219.082 27.717 218.596 27.5755 218.1 27.2924C217.623 26.9916 217.225 26.5316 216.906 25.9123C216.588 25.2754 216.428 24.4881 216.428 23.5504C216.428 21.5334 216.464 19.826 216.535 18.4283C216.623 16.7652 216.667 14.6686 216.667 12.1386C216.667 11.3424 216.712 10.7851 216.8 10.4666C216.906 10.2189 217.074 10.0331 217.304 9.90928C217.552 9.76774 217.808 9.69697 218.074 9.69697C218.339 9.69697 218.569 9.7412 218.764 9.82966C218.976 9.91813 219.118 10.0597 219.188 10.2543C219.259 10.4666 219.303 10.6789 219.321 10.8912C219.357 11.0858 219.374 11.3689 219.374 11.7405C219.374 12.4659 219.348 13.1647 219.295 13.8371C219.259 14.6509 219.242 15.2436 219.242 15.6152C219.1 18.7291 219.029 21.3565 219.029 23.4973Z" fill="#474752"/>
<path d="M223.069 18.6672C222.927 18.6672 222.794 18.6141 222.67 18.5079C222.564 18.3841 222.511 18.2425 222.511 18.0833C222.511 17.6764 222.688 17.296 223.042 16.9421C223.148 16.8891 223.361 16.8006 223.679 16.6767C223.997 16.5529 224.281 16.491 224.528 16.491C225.201 16.491 225.749 16.6767 226.174 17.0483C226.598 17.4021 226.811 17.9152 226.811 18.5876C226.811 18.7822 226.775 19.198 226.704 19.8349C226.634 20.578 226.598 21.153 226.598 21.5599C226.598 22.7984 226.766 23.7981 227.103 24.5588C227.226 24.8065 227.421 25.0012 227.686 25.1427C227.952 25.2842 228.191 25.355 228.403 25.355C228.916 25.355 229.332 25.2666 229.65 25.0896C229.969 24.9127 230.314 24.6296 230.685 24.2404C231.057 23.8511 231.296 23.4088 231.402 22.9134C231.526 22.418 231.614 21.7369 231.667 20.8699C231.703 20.3038 231.738 19.888 231.773 19.6226C231.862 18.7733 231.906 18.0479 231.906 17.4464C231.906 17.0571 232.012 16.7387 232.225 16.491C232.437 16.2256 232.729 16.0929 233.1 16.0929C233.313 16.0929 233.552 16.1637 233.817 16.3052C234.1 16.429 234.286 16.5794 234.374 16.7564C234.48 16.9333 234.533 17.2252 234.533 17.6322C234.533 17.8445 234.507 18.0479 234.454 18.2425C234.33 18.6849 234.268 19.2156 234.268 19.8349L234.295 21.2149C234.295 22.4711 234.383 23.4 234.56 24.0015C234.648 24.2846 234.772 24.5765 234.932 24.8773C235.091 25.1604 235.241 25.3993 235.383 25.5939C235.737 25.9831 235.967 26.2573 236.073 26.4166C236.179 26.5581 236.232 26.6997 236.232 26.8412C236.232 27.0535 236.126 27.257 235.913 27.4516C235.719 27.6285 235.507 27.717 235.277 27.717C234.622 27.717 234.056 27.4958 233.578 27.0535C233.1 26.6112 232.746 26.0362 232.516 25.3285C231.915 26.0185 231.358 26.5758 230.845 27.0004C230.491 27.2481 230.057 27.4339 229.544 27.5578C229.031 27.6639 228.518 27.717 228.005 27.717C227.315 27.717 226.616 27.4339 225.908 26.8677C225.201 26.3016 224.723 25.647 224.475 24.9039C224.457 24.8685 224.404 24.7269 224.316 24.4792C224.245 24.2315 224.21 23.86 224.21 23.3646C224.21 22.71 224.245 21.8872 224.316 20.8965C224.369 20.2595 224.396 19.6757 224.396 19.1449C224.396 18.9856 224.334 18.8529 224.21 18.7468C224.104 18.6406 223.98 18.5876 223.838 18.5876C223.732 18.5876 223.608 18.6052 223.467 18.6406C223.343 18.6583 223.21 18.6672 223.069 18.6672Z" fill="#474752"/>
<path d="M238.879 22.8338C238.879 21.843 238.888 21.0911 238.905 20.578L238.932 18.0568C238.932 17.0306 238.905 15.9071 238.852 14.6863C238.835 14.3148 238.773 13.8017 238.666 13.147C238.525 12.1563 238.454 11.4132 238.454 10.9178C238.454 10.1039 238.861 9.69697 239.675 9.69697C240.188 9.69697 240.551 9.83851 240.763 10.1216C240.993 10.387 241.152 10.8116 241.241 11.3955C241.418 12.6163 241.506 14.0494 241.506 15.6948C241.506 16.1902 241.488 16.9333 241.453 17.9241C241.789 17.3933 242.223 16.9775 242.754 16.6767C243.302 16.376 243.842 16.2256 244.372 16.2256C245.912 16.2256 247.239 16.8625 248.353 18.1364C248.654 18.5787 248.919 19.1095 249.149 19.7287C249.397 20.3303 249.521 20.8522 249.521 21.2945C249.521 22.073 249.433 22.7896 249.256 23.4442C249.096 24.0988 248.804 24.7358 248.38 25.355C247.955 25.9743 247.416 26.4785 246.761 26.8677C246.124 27.257 245.381 27.4516 244.532 27.4516C243.789 27.4516 243.116 27.3012 242.515 27.0004C241.931 26.6997 241.462 26.3016 241.108 25.8062C241.02 26.2485 240.825 26.6908 240.524 27.1331C240.223 27.5578 239.878 27.7701 239.489 27.7701C239.171 27.7701 238.905 27.6905 238.693 27.5312C238.481 27.3543 238.375 27.0978 238.375 26.7616C238.375 26.5139 238.428 26.2043 238.534 25.8327C238.64 25.3196 238.72 24.8508 238.773 24.4262C238.843 23.9838 238.879 23.4531 238.879 22.8338ZM243.868 25.2489C244.735 25.2489 245.461 24.9481 246.044 24.3465C246.628 23.7273 246.92 22.8957 246.92 21.8519C246.92 20.8965 246.664 20.0737 246.151 19.3837C245.974 19.1537 245.717 18.9679 245.381 18.8264C245.062 18.6849 244.744 18.6141 244.425 18.6141C243.682 18.6141 243.054 18.8353 242.541 19.2776C242.028 19.7022 241.736 20.2949 241.665 21.0557C241.595 22.0819 241.559 22.9665 241.559 23.7096C241.772 24.1165 242.09 24.4792 242.515 24.7977C242.957 25.0985 243.408 25.2489 243.868 25.2489Z" fill="#474752"/>
<path d="M16.2168 7.27273C16.2168 7.27273 9.42893 14.6603 9.42893 19.3939C9.42893 24.1276 16.2168 31.5152 16.2168 31.5152" stroke="#474752" stroke-width="2.4" stroke-linecap="round"/>
<path d="M24.4609 7.27273C24.4609 7.27273 17.6731 14.6603 17.6731 19.3939C17.6731 24.1276 24.4609 31.5152 24.4609 31.5152" stroke="#474752" stroke-width="2.4" stroke-linecap="round"/>
<path d="M32.7031 7.27273C32.7031 7.27273 25.9153 14.6603 25.9153 19.3939C25.9153 24.1276 32.7031 31.5152 32.7031 31.5152" stroke="#474752" stroke-width="2.4" stroke-linecap="round"/>
<path d="M9.42969 18.9091H17.6721" stroke="#474752" stroke-width="2.4"/>
</svg>
