<svg width="283" height="40" viewBox="0 0 283 40" fill="none" xmlns="http://www.w3.org/2000/svg">
<path d="M71.0932 31.4286C69.5838 31.4286 68.1624 31.1339 66.8288 30.5447C65.5055 29.9451 64.2908 29.0664 63.1847 27.9085C62.7091 27.4226 62.2749 26.8696 61.8821 26.2493C61.4892 25.6187 61.1533 24.9209 60.8741 24.1558C60.595 23.3908 60.3779 22.5535 60.2228 21.6437C60.0678 20.7237 59.9902 19.7261 59.9902 18.6509C59.9902 17.8859 60.1298 17.1054 60.4089 16.3094C60.6984 15.503 61.0912 14.7328 61.5874 13.9988C62.0837 13.2545 62.6678 12.567 63.3397 11.9364C64.0117 11.2955 64.7353 10.7476 65.5107 10.2927C66.5652 9.65175 67.6145 9.21239 68.6586 8.97461C69.713 8.7265 70.6848 8.60245 71.5739 8.60245C72.0184 8.60245 72.4836 8.63863 72.9695 8.711C73.4554 8.78336 73.9154 8.8764 74.3496 8.99012C74.7941 9.10384 75.1973 9.22789 75.5591 9.36228C75.9313 9.49668 76.2208 9.6259 76.4275 9.74996C76.9237 10.0498 77.4303 10.4219 77.9472 10.8665C78.4641 11.311 78.95 11.7917 79.4048 12.3086C79.8597 12.8255 80.2681 13.3579 80.6299 13.9058C81.0021 14.4434 81.2915 14.9551 81.4983 15.441C81.8498 16.2473 82.0875 17.0537 82.2116 17.8601C82.3356 18.6664 82.3977 19.5038 82.3977 20.3722C82.3977 21.3026 82.2995 22.1761 82.103 22.9928C81.917 23.7992 81.643 24.559 81.2812 25.2723C80.9194 25.9857 80.4748 26.6576 79.9476 27.2882C79.4307 27.9085 78.8414 28.5029 78.1798 29.0715C77.6939 29.4747 77.1977 29.8262 76.6911 30.126C76.1846 30.4155 75.6418 30.6584 75.0629 30.8548C74.4943 31.0512 73.8844 31.196 73.2331 31.289C72.5818 31.3821 71.8685 31.4286 71.0932 31.4286ZM64.0375 20.2481C64.0375 20.7443 64.0634 21.2509 64.1151 21.7678C64.1668 22.2743 64.2495 22.7809 64.3632 23.2875C64.4769 23.7837 64.6216 24.2644 64.7974 24.7296C64.9834 25.1948 65.2057 25.629 65.4642 26.0322C65.795 26.5801 66.162 27.1177 66.5652 27.6449C66.9787 28.1618 67.4335 28.6322 67.9298 29.056C68.4363 29.4695 68.9894 29.8055 69.589 30.064C70.1989 30.3121 70.8606 30.4361 71.5739 30.4361C72.2458 30.4361 72.8971 30.2759 73.5277 29.9554C74.1584 29.6246 74.7424 29.1956 75.28 28.6684C75.8176 28.1308 76.2983 27.526 76.7222 26.854C77.1564 26.1821 77.5078 25.4998 77.7766 24.8071C77.8076 24.7038 77.8697 24.5177 77.9627 24.2489C78.0661 23.9698 78.1695 23.6338 78.2728 23.2409C78.3762 22.8481 78.4641 22.4036 78.5365 21.9074C78.6192 21.4111 78.6605 20.8839 78.6605 20.3257C78.6605 19.8294 78.6192 19.2919 78.5365 18.7129C78.4641 18.134 78.3452 17.5396 78.1798 16.9296C78.0247 16.3094 77.8283 15.6891 77.5905 15.0688C77.3528 14.4485 77.0736 13.8541 76.7532 13.2855C76.474 12.7996 76.1484 12.3241 75.7762 11.8589C75.4041 11.3833 74.9802 10.9647 74.5047 10.6028C74.0395 10.2307 73.5226 9.93604 72.954 9.71894C72.3854 9.49151 71.7651 9.37779 71.0932 9.37779C70.4522 9.37779 69.8423 9.51218 69.2633 9.78097C68.6844 10.0498 68.1572 10.3857 67.6816 10.7889C67.2061 11.1818 66.7874 11.6056 66.4256 12.0605C66.0741 12.505 65.7898 12.9134 65.5727 13.2855C65.4073 13.575 65.2316 13.9368 65.0455 14.371C64.8697 14.8052 64.7043 15.3118 64.5493 15.8907C64.4045 16.4696 64.2805 17.1261 64.1771 17.8601C64.0841 18.5837 64.0375 19.3797 64.0375 20.2481Z" fill="#474752"/>
<path d="M100.029 31.0564C100.008 31.0564 99.967 31.0564 99.9049 31.0564C99.8429 31.0667 99.7705 31.0719 99.6878 31.0719C99.6155 31.0823 99.5483 31.0874 99.4863 31.0874C99.4242 31.0978 99.3829 31.1029 99.3622 31.1029C99.2485 31.1029 99.1554 31.0667 99.0831 30.9944C99.0211 30.9117 98.99 30.8135 98.99 30.6998C98.99 30.524 99.0469 30.4103 99.1606 30.3586C99.2847 30.3069 99.4501 30.2811 99.6568 30.2811C99.8016 30.2811 99.9618 30.2914 100.138 30.3121C100.313 30.3224 100.474 30.3276 100.618 30.3276C100.794 30.3276 100.944 30.3069 101.068 30.2656C101.202 30.2242 101.275 30.1208 101.285 29.9554V19.0076C101.275 18.8835 101.249 18.8215 101.208 18.8215C101.145 18.8215 101.021 19.0282 100.835 19.4418C100.763 19.5968 100.675 19.7726 100.572 19.969C100.468 20.1654 100.365 20.3618 100.262 20.5583C100.169 20.7547 100.076 20.9459 99.9825 21.132C99.8894 21.3078 99.8171 21.4577 99.7654 21.5817C99.1865 22.8119 98.6385 24.0266 98.1217 25.2258C97.6048 26.4147 97.0258 27.6035 96.3849 28.7924C96.3539 28.8441 96.297 28.9475 96.2143 29.1025C96.1419 29.2473 96.0644 29.4075 95.9817 29.5833C95.899 29.759 95.8111 29.9399 95.7181 30.126C95.6354 30.3017 95.5682 30.4516 95.5165 30.5757C95.4545 30.6894 95.4028 30.7618 95.3614 30.7928C95.3201 30.8238 95.2736 30.8393 95.2219 30.8393C95.1288 30.8393 95.0254 30.7514 94.9117 30.5757C94.86 30.5137 94.798 30.4258 94.7256 30.3121C94.6636 30.1984 94.5602 30.0071 94.4155 29.7383C94.2811 29.4695 94.095 29.1025 93.8573 28.6373C93.6195 28.1618 93.3094 27.5364 92.9268 26.761C92.5443 25.9753 92.0688 25.0087 91.5002 23.8612C90.942 22.7137 90.27 21.3388 89.4843 19.7364C89.3396 19.4986 89.2155 19.266 89.1122 19.0386C89.0088 18.8008 88.8485 18.594 88.6314 18.4183C88.5384 19.1936 88.4764 19.9483 88.4454 20.6823C88.4143 21.406 88.3782 22.1451 88.3368 22.8998C88.2851 23.7785 88.2334 24.6624 88.1817 25.5515C88.1404 26.4302 88.1197 27.3089 88.1197 28.1876C88.1197 28.353 88.1249 28.5288 88.1352 28.7149C88.1456 28.901 88.1766 29.0767 88.2283 29.2421C88.28 29.4075 88.3523 29.5574 88.4454 29.6918C88.5487 29.8159 88.6883 29.9037 88.864 29.9554L90.6473 30.3276C90.699 30.3483 90.73 30.3948 90.7404 30.4671C90.7507 30.5292 90.7559 30.5809 90.7559 30.6222C90.7559 30.8497 90.6525 30.9737 90.4457 30.9944H89.6704C89.2569 30.9944 88.8589 30.984 88.4764 30.9634C88.0939 30.9324 87.7062 30.9168 87.3134 30.9168C86.8895 30.9168 86.4708 30.9324 86.0573 30.9634C85.6541 30.984 85.2406 30.9944 84.8167 30.9944H84.4136C84.3619 30.9737 84.336 30.922 84.336 30.8393C84.336 30.6532 84.4291 30.5033 84.6152 30.3896C84.8012 30.2759 85.0183 30.1777 85.2664 30.095C85.5249 30.0019 85.7782 29.9141 86.0263 29.8314C86.2744 29.7383 86.4605 29.6194 86.5845 29.4747C86.6983 29.33 86.7913 29.0767 86.8637 28.7149C86.9464 28.353 87.0084 27.9499 87.0497 27.5053C87.0704 27.2572 87.0963 26.9471 87.1273 26.5749C87.1583 26.2028 87.1945 25.7324 87.2358 25.1638C87.2875 24.5952 87.3444 23.9181 87.4064 23.1324C87.4684 22.3467 87.546 21.4163 87.639 20.3412C87.6804 20.0414 87.7372 19.6278 87.8096 19.1006C87.8923 18.563 87.9336 17.9428 87.9336 17.2398C87.9336 17.0227 87.8199 16.8624 87.5925 16.7591C87.3754 16.6454 87.1273 16.5575 86.8482 16.4955C86.5794 16.4231 86.3313 16.3507 86.1038 16.2784C85.8867 16.1957 85.7782 16.0768 85.7782 15.9217C85.7782 15.8183 85.8144 15.7356 85.8867 15.6736C85.9694 15.6116 86.0625 15.5702 86.1658 15.5495C86.2796 15.5185 86.3933 15.503 86.507 15.503C86.6207 15.4927 86.7189 15.4875 86.8016 15.4875C86.8326 15.4875 86.9102 15.4978 87.0342 15.5185C87.1686 15.5392 87.3082 15.5599 87.4529 15.5805C87.608 15.6012 87.7476 15.6219 87.8716 15.6426C88.006 15.6632 88.0887 15.6736 88.1197 15.6736H90.0581C90.2648 15.7253 90.4199 15.808 90.5233 15.9217C90.637 16.0251 90.73 16.1595 90.8024 16.3249C90.8438 16.4283 90.8903 16.542 90.942 16.666C91.004 16.7797 91.0712 16.9193 91.1436 17.0847C91.2263 17.2398 91.3193 17.431 91.4227 17.6585C91.5364 17.8859 91.6708 18.1547 91.8259 18.4648C92.074 18.9817 92.3272 19.5193 92.5857 20.0775C92.8441 20.6358 93.1026 21.194 93.361 21.7523C93.6195 22.3105 93.8728 22.8688 94.1209 23.427C94.369 23.9749 94.6119 24.5022 94.8497 25.0087C94.8704 25.0604 94.9169 25.1793 94.9893 25.3654C95.0616 25.5515 95.1495 25.7582 95.2529 25.9857C95.3563 26.2028 95.4596 26.4199 95.563 26.637C95.6767 26.8437 95.7801 26.9988 95.8732 27.1022C95.9455 27.1952 96.0179 27.2417 96.0903 27.2417C96.1523 27.2417 96.2246 27.1797 96.3073 27.0556C96.4831 26.6731 96.6847 26.2338 96.9121 25.7376C97.1499 25.231 97.398 24.6986 97.6564 24.1403C97.9149 23.5718 98.1785 22.9928 98.4473 22.4036C98.7264 21.8143 98.9952 21.2406 99.2537 20.6823C99.5224 20.1137 99.7757 19.5762 100.013 19.0696C100.262 18.563 100.484 18.1133 100.68 17.7205C100.722 17.6378 100.768 17.4931 100.82 17.2863C100.882 17.0692 100.949 16.8521 101.021 16.635C101.104 16.4076 101.192 16.2112 101.285 16.0458C101.378 15.87 101.476 15.7821 101.58 15.7821H104.914C104.986 15.7821 105.069 15.7666 105.162 15.7356C105.265 15.6943 105.343 15.6736 105.394 15.6736C105.518 15.6736 105.663 15.6891 105.829 15.7201C105.994 15.7408 106.103 15.8235 106.154 15.9682C106.185 16.0716 106.154 16.1491 106.061 16.2008C105.968 16.2422 105.844 16.2784 105.689 16.3094C105.534 16.33 105.358 16.3559 105.162 16.3869C104.976 16.4179 104.795 16.4696 104.619 16.542C104.454 16.6143 104.314 16.7229 104.2 16.8676C104.087 17.0123 104.03 17.2088 104.03 17.4569V30.033C104.03 30.1467 104.056 30.219 104.107 30.2501C104.231 30.2811 104.386 30.3069 104.573 30.3276C104.759 30.3483 104.95 30.3741 105.146 30.4051C105.343 30.4258 105.539 30.4568 105.736 30.4982C105.932 30.5292 106.103 30.5705 106.247 30.6222C106.299 30.6636 106.345 30.7153 106.387 30.7773C106.428 30.829 106.449 30.8755 106.449 30.9168C106.449 30.9789 106.423 31.0306 106.371 31.0719C106.32 31.1133 106.258 31.1443 106.185 31.165C106.123 31.196 106.051 31.2167 105.968 31.227C105.896 31.2373 105.839 31.2425 105.798 31.2425C105.115 31.2425 104.433 31.2115 103.751 31.1495C103.079 31.0874 102.402 31.0564 101.719 31.0564H100.029Z" fill="#474752"/>
<path d="M113.939 23.272L116.59 23.1634C117.004 23.1324 117.319 23.0342 117.536 22.8688C117.753 22.693 117.914 22.4863 118.017 22.2485C118.131 22.0004 118.213 21.7316 118.265 21.4421C118.327 21.1527 118.415 20.8684 118.529 20.5893C118.56 20.4652 118.611 20.4032 118.684 20.4032C118.829 20.4032 118.901 20.4394 118.901 20.5117V21.132C118.901 21.5455 118.88 21.9952 118.839 22.4811C118.808 22.9567 118.792 23.365 118.792 23.7062C118.792 24.037 118.818 24.3885 118.87 24.7606C118.932 25.1328 118.963 25.5153 118.963 25.9081C118.963 25.9598 118.958 26.0425 118.947 26.1562C118.937 26.27 118.922 26.3888 118.901 26.5129C118.88 26.637 118.849 26.7455 118.808 26.8385C118.777 26.9316 118.73 26.9781 118.668 26.9781C118.555 26.9781 118.482 26.9264 118.451 26.823C118.43 26.7093 118.41 26.6059 118.389 26.5129C118.368 26.3888 118.332 26.2389 118.281 26.0632C118.229 25.8875 118.172 25.7117 118.11 25.536C118.048 25.3499 117.991 25.1845 117.939 25.0397C117.888 24.895 117.852 24.7968 117.831 24.7451C117.738 24.559 117.557 24.4143 117.288 24.3109C117.019 24.1972 116.714 24.1145 116.373 24.0628C116.042 24.0008 115.696 23.9646 115.334 23.9543C114.983 23.9336 114.673 23.9232 114.404 23.9232H113.939C113.773 23.9232 113.67 23.9594 113.629 24.0318C113.587 24.0938 113.567 24.1972 113.567 24.3419V29.7848C113.567 30.095 113.665 30.2914 113.861 30.3741H118.575C118.782 30.3741 118.994 30.3741 119.211 30.3741C119.438 30.3638 119.588 30.3379 119.661 30.2966C119.816 30.2552 119.945 30.1674 120.048 30.033C120.162 29.8882 120.255 29.7538 120.328 29.6298C120.359 29.5781 120.415 29.4695 120.498 29.3041C120.591 29.1387 120.684 28.963 120.777 28.7769C120.881 28.5805 120.974 28.3996 121.056 28.2342C121.149 28.0688 121.217 27.9602 121.258 27.9085C121.32 27.7845 121.423 27.7224 121.568 27.7224C121.661 27.7224 121.728 27.7586 121.77 27.831V30.1415C121.77 30.2345 121.759 30.3224 121.739 30.4051C121.728 30.4775 121.713 30.5705 121.692 30.6842C121.651 30.829 121.599 30.9272 121.537 30.9789C121.475 31.0202 121.356 31.0616 121.18 31.1029C120.136 31.1029 119.144 31.0978 118.203 31.0874C117.273 31.0771 116.327 31.0667 115.365 31.0564C114.404 31.0564 113.391 31.0512 112.326 31.0409C111.261 31.0306 110.072 31.0254 108.759 31.0254C108.584 31.0254 108.496 30.9375 108.496 30.7618C108.496 30.6481 108.553 30.5602 108.666 30.4982C108.78 30.4361 108.883 30.3948 108.976 30.3741C109.038 30.3741 109.137 30.3689 109.271 30.3586C109.416 30.3483 109.571 30.3431 109.736 30.3431C109.902 30.3328 110.062 30.3224 110.217 30.3121C110.372 30.3017 110.506 30.2966 110.62 30.2966C110.868 30.2966 110.992 30.1002 110.992 29.7073V18.2632C110.992 18.0875 110.972 17.8704 110.93 17.6119C110.899 17.3535 110.832 17.1364 110.729 16.9607C110.656 16.909 110.62 16.8831 110.62 16.8831L108.449 16.666C108.253 16.666 108.155 16.5678 108.155 16.3714C108.155 16.3197 108.165 16.2577 108.186 16.1853C108.206 16.1026 108.273 16.0613 108.387 16.0613H110.93C111.923 16.0613 112.9 16.0561 113.861 16.0458C114.823 16.0354 115.706 16.0302 116.513 16.0302H118.715C118.88 16.0302 119.051 16.0354 119.227 16.0458C119.413 16.0458 119.588 16.0509 119.754 16.0613C119.919 16.0613 120.069 16.0664 120.203 16.0768C120.338 16.0768 120.441 16.0768 120.514 16.0768C120.586 16.0871 120.643 16.1233 120.684 16.1853C120.726 16.2473 120.751 16.3249 120.762 16.4179C120.782 16.5006 120.793 16.5885 120.793 16.6815C120.803 16.7642 120.808 16.8314 120.808 16.8831V19.4107C120.808 19.5038 120.772 19.5503 120.7 19.5503C120.586 19.5503 120.498 19.4779 120.436 19.3332C120.384 19.1781 120.302 18.9972 120.188 18.7905C120.095 18.563 119.981 18.3356 119.847 18.1082C119.712 17.8807 119.614 17.705 119.552 17.5809C119.459 17.4052 119.314 17.2708 119.118 17.1778C118.932 17.0744 118.72 16.9968 118.482 16.9452C118.244 16.8831 118.001 16.8366 117.753 16.8056C117.505 16.7746 117.288 16.7384 117.102 16.697C117.04 16.697 116.88 16.6919 116.621 16.6815C116.363 16.6712 116.068 16.666 115.737 16.666C115.417 16.6557 115.097 16.6454 114.776 16.635C114.466 16.6247 114.223 16.6195 114.047 16.6195C113.83 16.6195 113.696 16.6815 113.644 16.8056C113.592 16.9296 113.567 17.1157 113.567 17.3638V22.8998C113.567 22.9928 113.598 23.0807 113.66 23.1634C113.732 23.2358 113.825 23.272 113.939 23.272Z" fill="#474752"/>
<path d="M123.91 23.4891C123.91 22.9205 123.977 22.3674 124.111 21.8298C124.256 21.2819 124.447 20.7702 124.685 20.2946C124.933 19.8088 125.223 19.3642 125.553 18.961C125.884 18.5579 126.241 18.2064 126.623 17.9066C126.975 17.6378 127.373 17.3897 127.817 17.1622C128.262 16.9245 128.737 16.7177 129.244 16.542C129.761 16.3662 130.304 16.2267 130.872 16.1233C131.441 16.0199 132.02 15.9682 132.609 15.9682C133.312 15.9682 133.968 16.0302 134.578 16.1543C135.199 16.2784 135.829 16.4955 136.47 16.8056C136.584 16.878 136.692 16.9141 136.796 16.9141C136.889 16.8831 136.977 16.8108 137.059 16.697L137.323 16.4799C137.395 16.4283 137.457 16.4024 137.509 16.4024C137.757 16.4024 137.881 16.5575 137.881 16.8676V18.2012C137.881 18.3459 137.907 18.501 137.959 18.6664C138.021 18.8215 138.062 18.9869 138.083 19.1626C138.093 19.204 138.098 19.297 138.098 19.4418V20.3257C138.098 20.3877 138.057 20.4342 137.974 20.4652C137.892 20.4962 137.83 20.5117 137.788 20.5117C137.561 20.5117 137.432 20.4394 137.401 20.2946C137.204 19.7777 136.966 19.297 136.687 18.8525C136.408 18.408 136.082 18.0203 135.71 17.6895C135.338 17.3587 134.909 17.1002 134.423 16.9141C133.948 16.7177 133.41 16.6195 132.811 16.6195C132.066 16.6195 131.425 16.7229 130.888 16.9296C130.36 17.1261 129.849 17.4362 129.353 17.8601C129.187 17.9841 129.037 18.1082 128.903 18.2322C128.779 18.3459 128.66 18.4752 128.546 18.6199C128.432 18.7646 128.319 18.9249 128.205 19.1006C128.102 19.2764 127.993 19.4883 127.879 19.7364C127.6 20.274 127.388 20.8529 127.244 21.4732C127.099 22.0831 127.026 22.6569 127.026 23.1944C127.026 23.5873 127.032 23.9439 127.042 24.2644C127.063 24.5849 127.104 24.9053 127.166 25.2258C127.228 25.536 127.326 25.8616 127.461 26.2028C127.595 26.5336 127.781 26.9161 128.019 27.3503C128.484 28.2703 129.104 28.9992 129.88 29.5367C130.655 30.064 131.529 30.3276 132.5 30.3276C132.811 30.3276 133.085 30.3173 133.322 30.2966C133.56 30.2656 133.777 30.2139 133.974 30.1415C134.17 30.0691 134.356 29.9658 134.532 29.8314C134.718 29.6866 134.914 29.4954 135.121 29.2576C135.142 29.2369 135.173 29.1852 135.214 29.1025C135.266 29.0198 135.292 28.9526 135.292 28.901L135.447 25.2103C135.447 25.0863 135.395 24.9725 135.292 24.8692C135.188 24.7554 135.08 24.6727 134.966 24.6211C134.873 24.59 134.708 24.5487 134.47 24.497C134.242 24.4453 134.01 24.3936 133.772 24.3419C133.545 24.2799 133.348 24.223 133.183 24.1714C133.017 24.1093 132.96 24.0525 133.012 24.0008C133.012 23.8871 133.048 23.8302 133.121 23.8302H139.416C139.675 23.8302 139.83 23.8767 139.882 23.9698C139.944 24.0628 139.975 24.1352 139.975 24.1869C139.975 24.2799 139.918 24.3471 139.804 24.3885C139.701 24.4298 139.566 24.466 139.401 24.497C139.246 24.5177 139.075 24.5384 138.889 24.559C138.713 24.5694 138.558 24.59 138.424 24.6211C138.124 24.6727 137.974 24.7968 137.974 24.9932V28.8854C137.974 28.9578 138.036 28.994 138.16 28.994C138.274 28.994 138.388 28.9682 138.502 28.9165C138.626 28.8544 138.77 28.8234 138.936 28.8234H139.122C139.205 28.8234 139.267 28.8441 139.308 28.8854C139.422 28.9682 139.479 29.0353 139.479 29.087C139.479 29.1904 139.422 29.268 139.308 29.3196C139.205 29.3713 139.106 29.423 139.013 29.4747C138.341 29.7228 137.69 29.9451 137.059 30.1415C136.439 30.3276 135.824 30.4878 135.214 30.6222C134.615 30.7566 134.015 30.86 133.415 30.9324C132.816 30.9944 132.206 31.0254 131.586 31.0254C131.203 31.0254 130.805 30.9944 130.391 30.9324C129.988 30.86 129.59 30.767 129.197 30.6532C128.805 30.5395 128.427 30.4051 128.065 30.2501C127.714 30.095 127.393 29.9244 127.104 29.7383C126.711 29.4695 126.324 29.1077 125.941 28.6528C125.569 28.198 125.228 27.6914 124.918 27.1332C124.618 26.5749 124.375 25.9857 124.189 25.3654C124.003 24.7348 123.91 24.1093 123.91 23.4891Z" fill="#474752"/>
<path d="M140.502 30.5912C140.502 30.5499 140.533 30.4878 140.595 30.4051C140.647 30.3224 140.729 30.2811 140.843 30.2811C141.009 30.2811 141.184 30.2552 141.37 30.2035C141.567 30.1518 141.753 30.0743 141.929 29.9709C142.115 29.8572 142.285 29.7177 142.44 29.5522C142.606 29.3765 142.745 29.1697 142.859 28.932L146.968 19.1936C146.979 19.173 146.999 19.1265 147.03 19.0541C147.072 18.9714 147.092 18.9042 147.092 18.8525C147.092 18.7388 147.067 18.6251 147.015 18.5113C146.963 18.3976 146.901 18.2942 146.829 18.2012C146.767 18.0978 146.71 18.01 146.658 17.9376C146.606 17.8549 146.581 17.7825 146.581 17.7205C146.581 17.6171 146.617 17.5344 146.689 17.4724C146.762 17.4104 146.844 17.3638 146.937 17.3328C147.041 17.2915 147.149 17.2656 147.263 17.2553C147.377 17.2449 147.475 17.2294 147.558 17.2088C147.651 17.1674 147.754 17.1002 147.868 17.0072C147.981 16.9038 148.074 16.8211 148.147 16.7591C148.178 16.7074 148.204 16.6402 148.224 16.5575C148.245 16.4748 148.266 16.3972 148.286 16.3249C148.317 16.2525 148.354 16.1905 148.395 16.1388C148.447 16.0871 148.514 16.0613 148.597 16.0613C148.803 16.0613 148.927 16.1491 148.969 16.3249L153.404 29.5988C153.466 29.7952 153.533 29.9503 153.605 30.064C153.688 30.1674 153.786 30.2449 153.9 30.2966C154.014 30.3483 154.138 30.3793 154.272 30.3896C154.417 30.4 154.582 30.4051 154.768 30.4051H155.327C155.42 30.4051 155.492 30.4155 155.544 30.4361C155.595 30.4361 155.652 30.4723 155.714 30.5447C155.787 30.6171 155.823 30.6791 155.823 30.7308C155.823 30.8962 155.73 30.984 155.544 30.9944C155.523 31.0151 155.451 31.0254 155.327 31.0254H154.443C154.143 31.0254 153.797 31.0099 153.404 30.9789C153.011 30.9375 152.618 30.9168 152.225 30.9168C151.584 30.9168 150.964 30.9375 150.364 30.9789C149.765 31.0099 149.232 31.0254 148.767 31.0254C148.715 31.0254 148.659 31.0151 148.597 30.9944C148.545 30.9737 148.519 30.9324 148.519 30.8703C148.519 30.8083 148.545 30.7463 148.597 30.6842C148.648 30.6222 148.71 30.5654 148.783 30.5137C148.855 30.4516 148.933 30.4051 149.015 30.3741C149.108 30.3431 149.191 30.3276 149.263 30.3276C149.367 30.3276 149.47 30.3328 149.573 30.3431C149.677 30.3534 149.791 30.3586 149.915 30.3586C150.245 30.3586 150.514 30.3224 150.721 30.2501C150.897 30.188 150.985 30.064 150.985 29.8779C150.985 29.8572 150.979 29.8314 150.969 29.8004C150.959 29.7693 150.948 29.7228 150.938 29.6608C150.897 29.5678 150.83 29.3972 150.736 29.1491C150.643 28.8906 150.545 28.6115 150.442 28.3117C150.338 28.0119 150.235 27.7224 150.132 27.4433C150.039 27.1642 149.966 26.9471 149.915 26.792C149.873 26.699 149.827 26.6111 149.775 26.5284C149.734 26.4354 149.656 26.3888 149.542 26.3888H145.185C144.927 26.3888 144.761 26.5129 144.689 26.761L144.069 29.0095C144.048 29.0819 144.032 29.1439 144.022 29.1956C144.012 29.2473 144.007 29.3196 144.007 29.4127C144.007 29.5781 144.017 29.7125 144.038 29.8159C144.069 29.9089 144.11 29.9864 144.162 30.0485C144.224 30.1105 144.301 30.157 144.394 30.188C144.498 30.2087 144.627 30.2294 144.782 30.2501C144.834 30.2501 144.916 30.2604 145.03 30.2811C145.154 30.2914 145.283 30.3069 145.418 30.3276C145.552 30.3483 145.676 30.3689 145.79 30.3896C145.914 30.4 146.002 30.4051 146.053 30.4051C146.105 30.4258 146.177 30.4775 146.271 30.5602C146.374 30.6326 146.426 30.7153 146.426 30.8083C146.426 30.86 146.405 30.9117 146.364 30.9634C146.322 31.0047 146.245 31.0254 146.131 31.0254H145.65C145.485 31.0254 145.257 31.0202 144.968 31.0099C144.689 30.9996 144.405 30.9944 144.115 30.9944C143.836 30.9944 143.5 30.9996 143.107 31.0099C142.714 31.0202 142.311 31.0254 141.898 31.0254C141.846 31.0254 141.743 31.0202 141.587 31.0099C141.432 30.9892 141.272 30.9634 141.107 30.9324C140.952 30.891 140.812 30.8445 140.688 30.7928C140.564 30.7308 140.502 30.6636 140.502 30.5912ZM145.294 25.0087C145.283 25.0294 145.278 25.0863 145.278 25.1793V25.2568C145.278 25.3706 145.309 25.4688 145.371 25.5515C145.443 25.6238 145.537 25.66 145.65 25.66C146.281 25.66 146.875 25.6859 147.434 25.7376C148.002 25.7789 148.55 25.7996 149.077 25.7996C149.191 25.7996 149.279 25.7686 149.341 25.7065C149.403 25.6342 149.434 25.567 149.434 25.5049V25.3344C149.434 25.3137 149.429 25.293 149.418 25.2723C149.398 25.2413 149.382 25.1896 149.372 25.1173L147.713 20.4032C147.63 20.1861 147.532 20.0775 147.418 20.0775C147.366 20.0775 147.309 20.0982 147.247 20.1396C147.185 20.1809 147.144 20.2223 147.123 20.2636L145.294 25.0087Z" fill="#474752"/>
<path d="M167.205 30.8858C166.647 30.8858 166.114 30.9117 165.608 30.9634C165.101 31.0047 164.543 31.0254 163.933 31.0254H163.313C163.22 31.0254 163.152 30.9685 163.111 30.8548C163.07 30.7308 163.049 30.6377 163.049 30.5757C163.049 30.4723 163.059 30.3844 163.08 30.3121C163.111 30.2294 163.163 30.1829 163.235 30.1725C163.349 30.1415 163.483 30.1157 163.638 30.095C163.793 30.0743 163.954 30.0588 164.119 30.0485C164.284 30.0278 164.439 30.0175 164.584 30.0175C164.739 30.0071 164.874 30.0019 164.987 30.0019C165.235 30.0019 165.473 29.9451 165.701 29.8314C165.938 29.7177 166.13 29.5781 166.274 29.4127C166.378 29.2783 166.466 29.1491 166.538 29.025C166.61 28.8906 166.672 28.7097 166.724 28.4823C166.786 28.2548 166.833 27.9602 166.864 27.5984C166.905 27.2365 166.946 26.761 166.988 26.1717L167.717 12.8668C167.717 12.5464 167.68 12.2259 167.608 11.9054C167.536 11.5746 167.417 11.2696 167.251 10.9905C167.096 10.701 166.889 10.4529 166.631 10.2462C166.373 10.0394 166.057 9.89469 165.685 9.81198C165.654 9.80165 165.571 9.79131 165.437 9.78097C165.303 9.76029 165.158 9.73962 165.003 9.71894C164.848 9.69827 164.703 9.68276 164.569 9.67242C164.434 9.65175 164.346 9.64141 164.305 9.64141C164.098 9.60006 163.933 9.55871 163.809 9.51735C163.695 9.476 163.638 9.34678 163.638 9.12968C163.638 9.03664 163.643 8.94877 163.654 8.86606C163.664 8.77302 163.705 8.7265 163.778 8.7265H164.414C164.682 8.7265 164.93 8.73684 165.158 8.75752C165.396 8.77819 165.633 8.80404 165.871 8.83505C166.109 8.86606 166.357 8.89191 166.616 8.91259C166.884 8.93326 167.179 8.9436 167.499 8.9436H168.973C169.148 8.9436 169.309 8.93326 169.453 8.91259C169.608 8.88157 169.81 8.86606 170.058 8.86606C170.244 8.86606 170.441 8.89191 170.647 8.9436C170.854 8.98495 171.004 9.07799 171.097 9.22272C171.273 9.42948 171.423 9.66208 171.547 9.92053C171.671 10.1686 171.779 10.4323 171.872 10.7114L177.083 24.4195C177.124 24.5228 177.165 24.6107 177.207 24.6831C177.248 24.7451 177.295 24.7761 177.346 24.7761C177.419 24.7761 177.476 24.7348 177.517 24.6521C177.558 24.5694 177.589 24.4918 177.61 24.4195L183.472 9.05215C183.534 8.93843 183.621 8.86606 183.735 8.83505C183.859 8.80404 183.994 8.78853 184.138 8.78853C184.655 8.78853 185.151 8.77819 185.627 8.75752C186.113 8.73684 186.594 8.711 187.069 8.67998C187.555 8.64897 188.041 8.62312 188.527 8.60245C189.023 8.58177 189.545 8.57143 190.093 8.57143C190.124 8.57143 190.165 8.57143 190.217 8.57143C190.279 8.57143 190.336 8.58177 190.388 8.60245C190.45 8.61279 190.501 8.63346 190.543 8.66448C190.584 8.69549 190.605 8.73684 190.605 8.78853C190.605 8.93326 190.543 9.08316 190.419 9.23823C190.295 9.38296 190.139 9.45533 189.953 9.45533C189.437 9.45533 189.007 9.51735 188.666 9.64141C188.325 9.76546 187.979 10.0187 187.627 10.4012C187.472 10.5563 187.348 10.7321 187.255 10.9285C187.162 11.1249 187.085 11.3368 187.023 11.5643C186.971 11.7814 186.935 12.0088 186.914 12.2466C186.904 12.474 186.899 12.6963 186.899 12.9134L187.147 29.4747C187.219 29.6918 187.395 29.8417 187.674 29.9244C187.953 30.0071 188.263 30.064 188.604 30.095C188.945 30.1157 189.276 30.1363 189.597 30.157C189.928 30.1674 190.181 30.2139 190.357 30.2966C190.481 30.3483 190.553 30.4155 190.574 30.4982C190.594 30.5705 190.605 30.6377 190.605 30.6998C190.605 30.8652 190.517 30.9685 190.341 31.0099C190.176 31.0409 189.948 31.0564 189.659 31.0564C189.328 31.0564 189.018 31.0512 188.728 31.0409C188.439 31.0306 188.149 31.0254 187.86 31.0254C187.581 31.0151 187.286 31.0047 186.976 30.9944C186.666 30.984 186.32 30.9789 185.937 30.9789H183.565C183.265 30.9789 182.975 30.984 182.696 30.9944C182.417 30.9944 182.138 31.0047 181.859 31.0254C181.528 31.0564 181.197 31.0719 180.866 31.0719C180.784 31.0719 180.696 31.0667 180.603 31.0564C180.52 31.0564 180.437 31.0409 180.355 31.0099C180.282 30.9789 180.22 30.9324 180.169 30.8703C180.127 30.798 180.107 30.7049 180.107 30.5912C180.107 30.3844 180.236 30.2501 180.494 30.188C180.753 30.1157 181.063 30.0795 181.425 30.0795H182.076C182.293 30.0795 182.495 30.0743 182.681 30.064C182.877 30.0536 183.048 30.0226 183.192 29.9709C183.337 29.9192 183.451 29.8469 183.534 29.7538C183.627 29.6505 183.673 29.5109 183.673 29.3351L183.472 12.8668C183.472 12.8152 183.461 12.7428 183.441 12.6497C183.42 12.5567 183.384 12.5102 183.332 12.5102C183.26 12.5102 183.203 12.5257 183.161 12.5567C183.13 12.5774 183.105 12.5981 183.084 12.6187L176.137 30.6998C176.095 30.8652 176.033 30.9479 175.951 30.9479C175.868 30.9479 175.796 30.8652 175.734 30.6998L168.818 12.4637C168.787 12.3396 168.724 12.2776 168.631 12.2776C168.59 12.2776 168.554 12.2879 168.523 12.3086C168.502 12.3293 168.492 12.381 168.492 12.4637L168.089 27.2727C168.089 27.3968 168.094 27.5622 168.104 27.769C168.125 27.9654 168.151 28.1721 168.182 28.3892C168.223 28.6063 168.27 28.8183 168.321 29.025C168.383 29.2318 168.461 29.4075 168.554 29.5522C168.688 29.7693 168.89 29.9296 169.159 30.033C169.438 30.126 169.732 30.1932 170.043 30.2345C170.363 30.2656 170.678 30.2862 170.988 30.2966C171.309 30.3069 171.578 30.3276 171.795 30.3586C171.919 30.3689 172.002 30.4155 172.043 30.4982C172.095 30.5809 172.12 30.6687 172.12 30.7618C172.12 30.8238 172.084 30.8755 172.012 30.9168C171.95 30.9582 171.867 30.9944 171.764 31.0254C171.671 31.0461 171.562 31.0564 171.438 31.0564C171.314 31.0667 171.2 31.0719 171.097 31.0719C170.715 31.0719 170.358 31.0616 170.027 31.0409C169.696 31.0202 169.376 30.9996 169.066 30.9789C168.755 30.9582 168.451 30.9375 168.151 30.9168C167.851 30.8962 167.536 30.8858 167.205 30.8858Z" fill="#474752"/>
<path d="M197.66 17.0227V29.1801C197.66 29.2318 197.665 29.3093 197.676 29.4127C197.686 29.5161 197.702 29.6246 197.722 29.7383C197.753 29.8417 197.795 29.9347 197.846 30.0175C197.898 30.1002 197.97 30.1415 198.063 30.1415H199.769C199.883 30.1415 199.976 30.188 200.048 30.2811C200.131 30.3741 200.172 30.4775 200.172 30.5912C200.172 30.6842 200.126 30.7825 200.033 30.8858C199.94 30.9789 199.847 31.0254 199.754 31.0254H194.885C194.678 31.0254 194.471 31.0306 194.264 31.0409C194.058 31.0616 193.83 31.0719 193.582 31.0719C193.437 31.0719 193.298 31.0667 193.163 31.0564C193.029 31.0461 192.905 31.0254 192.791 30.9944C192.729 30.953 192.698 30.8548 192.698 30.6998C192.698 30.4827 192.75 30.3586 192.853 30.3276C193.112 30.2862 193.334 30.2552 193.52 30.2345C193.706 30.2035 193.902 30.188 194.109 30.188C194.275 30.188 194.388 30.188 194.45 30.188C194.523 30.1777 194.605 30.1622 194.699 30.1415C194.843 30.0795 194.916 29.8624 194.916 29.4902V17.1312C194.916 17.0072 194.854 16.8986 194.73 16.8056C194.616 16.7022 194.502 16.6505 194.388 16.6505C194.151 16.6505 193.965 16.6712 193.83 16.7125C193.706 16.7436 193.541 16.7591 193.334 16.7591C193.2 16.7591 193.065 16.7487 192.931 16.7281C192.796 16.697 192.662 16.6609 192.528 16.6195C192.455 16.5885 192.419 16.5265 192.419 16.4334C192.388 16.299 192.398 16.1905 192.45 16.1078C192.512 16.0251 192.595 15.963 192.698 15.9217C192.801 15.87 192.915 15.839 193.039 15.8287C193.174 15.8183 193.298 15.8131 193.411 15.8131H198.994C199.263 15.8131 199.433 15.8131 199.506 15.8131C199.578 15.8131 199.625 15.8235 199.645 15.8442C199.842 15.8752 199.94 15.9889 199.94 16.1853C199.94 16.4024 199.821 16.542 199.583 16.604C199.345 16.666 199.082 16.7022 198.792 16.7125C198.513 16.7229 198.255 16.7436 198.017 16.7746C197.779 16.7952 197.66 16.878 197.66 17.0227Z" fill="#474752"/>
<path d="M202.281 30.7308C202.281 30.493 202.385 30.3586 202.592 30.3276H203.181C203.367 30.3276 203.537 30.3276 203.692 30.3276C203.848 30.3173 203.982 30.2966 204.096 30.2656C204.209 30.2345 204.297 30.1829 204.359 30.1105C204.432 30.0381 204.468 29.9399 204.468 29.8159V17.3173C204.468 17.2036 204.421 17.1106 204.328 17.0382C204.235 16.9555 204.132 16.9141 204.018 16.9141H202.623C202.571 16.9141 202.509 16.909 202.436 16.8986C202.364 16.8883 202.281 16.878 202.188 16.8676C202.137 16.8469 202.09 16.8056 202.049 16.7436C202.018 16.6815 202.002 16.6247 202.002 16.573C202.002 16.3766 202.126 16.2784 202.374 16.2784H206.189C206.22 16.2784 206.298 16.2732 206.422 16.2628C206.556 16.2525 206.696 16.2422 206.84 16.2318C206.985 16.2215 207.114 16.2112 207.228 16.2008C207.342 16.1905 207.409 16.1853 207.43 16.1853C207.574 16.175 207.735 16.1646 207.91 16.1543C208.096 16.144 208.246 16.1388 208.36 16.1388C208.391 16.1388 208.448 16.144 208.531 16.1543C208.613 16.1543 208.701 16.1595 208.794 16.1698C208.887 16.1698 208.975 16.175 209.058 16.1853C209.151 16.1853 209.213 16.1853 209.244 16.1853C209.389 16.2163 209.461 16.299 209.461 16.4334C209.461 16.5471 209.425 16.6609 209.353 16.7746C209.29 16.8469 209.192 16.8831 209.058 16.8831H207.352C207.28 16.8831 207.223 16.9245 207.182 17.0072C207.14 17.0795 207.104 17.1726 207.073 17.2863C207.052 17.3897 207.037 17.4982 207.026 17.6119C207.026 17.7257 207.026 17.8239 207.026 17.9066C207.026 18.4441 207.052 18.9817 207.104 19.5193C207.156 20.0465 207.182 20.6513 207.182 21.3336V29.8934C207.182 29.9658 207.197 30.0536 207.228 30.157C207.269 30.2501 207.337 30.2966 207.43 30.2966H212.392C212.671 30.2966 212.935 30.1725 213.183 29.9244C213.431 29.6763 213.658 29.3868 213.865 29.056C214.082 28.7252 214.268 28.3996 214.423 28.0791C214.589 27.7483 214.723 27.5053 214.826 27.3503C214.888 27.2779 214.95 27.2417 215.013 27.2417C215.064 27.2417 215.111 27.2882 215.152 27.3813C215.193 27.526 215.214 27.6552 215.214 27.769C215.224 27.8723 215.23 28.0274 215.23 28.2342C215.23 28.3169 215.214 28.4409 215.183 28.6063C215.162 28.7614 215.131 28.9268 215.09 29.1025C215.059 29.2783 215.028 29.4489 214.997 29.6143C214.976 29.7693 214.966 29.8934 214.966 29.9864C214.966 30.0381 214.966 30.1105 214.966 30.2035C214.966 30.2862 214.961 30.3741 214.95 30.4671C214.95 30.5602 214.945 30.6481 214.935 30.7308C214.925 30.8031 214.909 30.8548 214.888 30.8858C214.744 30.9789 214.615 31.0254 214.501 31.0254C213.209 31.0254 211.828 31.0151 210.36 30.9944C208.892 30.9634 207.43 30.9479 205.972 30.9479C205.714 30.9479 205.445 30.953 205.166 30.9634C204.887 30.9737 204.618 30.9892 204.359 31.0099C204.101 31.0202 203.853 31.0306 203.615 31.0409C203.388 31.0512 203.191 31.0564 203.026 31.0564C202.809 31.0564 202.628 31.0461 202.483 31.0254C202.349 30.9944 202.281 30.8962 202.281 30.7308Z" fill="#474752"/>
<path d="M216.827 30.7308C216.827 30.493 216.93 30.3586 217.137 30.3276H217.726C217.912 30.3276 218.083 30.3276 218.238 30.3276C218.393 30.3173 218.527 30.2966 218.641 30.2656C218.755 30.2345 218.843 30.1829 218.905 30.1105C218.977 30.0381 219.013 29.9399 219.013 29.8159V17.3173C219.013 17.2036 218.967 17.1106 218.874 17.0382C218.781 16.9555 218.677 16.9141 218.564 16.9141H217.168C217.116 16.9141 217.054 16.909 216.982 16.8986C216.91 16.8883 216.827 16.878 216.734 16.8676C216.682 16.8469 216.636 16.8056 216.594 16.7436C216.563 16.6815 216.548 16.6247 216.548 16.573C216.548 16.3766 216.672 16.2784 216.92 16.2784H220.735C220.766 16.2784 220.843 16.2732 220.967 16.2628C221.102 16.2525 221.241 16.2422 221.386 16.2318C221.531 16.2215 221.66 16.2112 221.774 16.2008C221.887 16.1905 221.954 16.1853 221.975 16.1853C222.12 16.175 222.28 16.1646 222.456 16.1543C222.642 16.144 222.792 16.1388 222.906 16.1388C222.937 16.1388 222.993 16.144 223.076 16.1543C223.159 16.1543 223.247 16.1595 223.34 16.1698C223.433 16.1698 223.521 16.175 223.603 16.1853C223.696 16.1853 223.758 16.1853 223.789 16.1853C223.934 16.2163 224.007 16.299 224.007 16.4334C224.007 16.5471 223.97 16.6609 223.898 16.7746C223.836 16.8469 223.738 16.8831 223.603 16.8831H221.898C221.825 16.8831 221.768 16.9245 221.727 17.0072C221.686 17.0795 221.649 17.1726 221.618 17.2863C221.598 17.3897 221.582 17.4982 221.572 17.6119C221.572 17.7257 221.572 17.8239 221.572 17.9066C221.572 18.4441 221.598 18.9817 221.649 19.5193C221.701 20.0465 221.727 20.6513 221.727 21.3336V29.8934C221.727 29.9658 221.743 30.0536 221.774 30.157C221.815 30.2501 221.882 30.2966 221.975 30.2966H226.937C227.216 30.2966 227.48 30.1725 227.728 29.9244C227.976 29.6763 228.204 29.3868 228.41 29.056C228.628 28.7252 228.814 28.3996 228.969 28.0791C229.134 27.7483 229.269 27.5053 229.372 27.3503C229.434 27.2779 229.496 27.2417 229.558 27.2417C229.61 27.2417 229.656 27.2882 229.698 27.3813C229.739 27.526 229.76 27.6552 229.76 27.769C229.77 27.8723 229.775 28.0274 229.775 28.2342C229.775 28.3169 229.76 28.4409 229.729 28.6063C229.708 28.7614 229.677 28.9268 229.635 29.1025C229.604 29.2783 229.573 29.4489 229.542 29.6143C229.522 29.7693 229.511 29.8934 229.511 29.9864C229.511 30.0381 229.511 30.1105 229.511 30.2035C229.511 30.2862 229.506 30.3741 229.496 30.4671C229.496 30.5602 229.491 30.6481 229.48 30.7308C229.47 30.8031 229.455 30.8548 229.434 30.8858C229.289 30.9789 229.16 31.0254 229.046 31.0254C227.754 31.0254 226.374 31.0151 224.906 30.9944C223.438 30.9634 221.975 30.9479 220.517 30.9479C220.259 30.9479 219.99 30.953 219.711 30.9634C219.432 30.9737 219.163 30.9892 218.905 31.0099C218.646 31.0202 218.398 31.0306 218.16 31.0409C217.933 31.0512 217.737 31.0564 217.571 31.0564C217.354 31.0564 217.173 31.0461 217.028 31.0254C216.894 30.9944 216.827 30.8962 216.827 30.7308Z" fill="#474752"/>
<path d="M236.365 17.0227V29.1801C236.365 29.2318 236.371 29.3093 236.381 29.4127C236.391 29.5161 236.407 29.6246 236.428 29.7383C236.459 29.8417 236.5 29.9347 236.552 30.0175C236.603 30.1002 236.676 30.1415 236.769 30.1415H238.474C238.588 30.1415 238.681 30.188 238.754 30.2811C238.836 30.3741 238.878 30.4775 238.878 30.5912C238.878 30.6842 238.831 30.7825 238.738 30.8858C238.645 30.9789 238.552 31.0254 238.459 31.0254H233.59C233.383 31.0254 233.176 31.0306 232.969 31.0409C232.763 31.0616 232.535 31.0719 232.287 31.0719C232.142 31.0719 232.003 31.0667 231.868 31.0564C231.734 31.0461 231.61 31.0254 231.496 30.9944C231.434 30.953 231.403 30.8548 231.403 30.6998C231.403 30.4827 231.455 30.3586 231.558 30.3276C231.817 30.2862 232.039 30.2552 232.225 30.2345C232.411 30.2035 232.608 30.188 232.814 30.188C232.98 30.188 233.094 30.188 233.156 30.188C233.228 30.1777 233.311 30.1622 233.404 30.1415C233.548 30.0795 233.621 29.8624 233.621 29.4902V17.1312C233.621 17.0072 233.559 16.8986 233.435 16.8056C233.321 16.7022 233.207 16.6505 233.094 16.6505C232.856 16.6505 232.67 16.6712 232.535 16.7125C232.411 16.7436 232.246 16.7591 232.039 16.7591C231.905 16.7591 231.77 16.7487 231.636 16.7281C231.501 16.697 231.367 16.6609 231.233 16.6195C231.16 16.5885 231.124 16.5265 231.124 16.4334C231.093 16.299 231.103 16.1905 231.155 16.1078C231.217 16.0251 231.3 15.963 231.403 15.9217C231.507 15.87 231.62 15.839 231.744 15.8287C231.879 15.8183 232.003 15.8131 232.117 15.8131H237.699C237.968 15.8131 238.138 15.8131 238.211 15.8131C238.283 15.8131 238.33 15.8235 238.35 15.8442C238.547 15.8752 238.645 15.9889 238.645 16.1853C238.645 16.4024 238.526 16.542 238.288 16.604C238.051 16.666 237.787 16.7022 237.497 16.7125C237.218 16.7229 236.96 16.7436 236.722 16.7746C236.484 16.7952 236.365 16.878 236.365 17.0227Z" fill="#474752"/>
<path d="M240.8 23.7217C240.8 23.1117 240.857 22.5586 240.971 22.0624C241.085 21.5559 241.255 21.0855 241.483 20.6513C241.71 20.2171 241.989 19.8088 242.32 19.4263C242.661 19.0334 243.049 18.6509 243.483 18.2787C243.824 17.9893 244.191 17.7515 244.584 17.5654C244.977 17.3793 245.38 17.2346 245.794 17.1312C246.218 17.0175 246.652 16.94 247.096 16.8986C247.541 16.8573 247.98 16.8366 248.414 16.8366C248.786 16.8366 249.179 16.8935 249.593 17.0072C250.017 17.1209 250.425 17.2708 250.818 17.4569C251.211 17.6326 251.573 17.829 251.903 18.0461C252.234 18.2529 252.508 18.4545 252.725 18.6509C253.48 19.3642 254.064 20.1396 254.478 20.9769C254.891 21.804 255.098 22.7137 255.098 23.7062C255.098 24.2437 255.056 24.7399 254.974 25.1948C254.901 25.6393 254.788 26.058 254.633 26.4509C254.488 26.8437 254.302 27.2159 254.074 27.5674C253.857 27.9189 253.604 28.2652 253.315 28.6063C253.046 28.9061 252.725 29.2008 252.353 29.4902C251.991 29.7797 251.588 30.0381 251.144 30.2656C250.699 30.493 250.218 30.6791 249.701 30.8238C249.195 30.9582 248.668 31.0254 248.12 31.0254C247.179 31.0254 246.311 30.9013 245.515 30.6532C244.729 30.3948 243.995 29.9451 243.313 29.3041C241.638 27.8465 240.8 25.9857 240.8 23.7217ZM247.98 17.5034C247.515 17.5034 247.117 17.5551 246.786 17.6585C246.466 17.7515 246.176 17.8911 245.918 18.0772C245.67 18.2529 245.442 18.47 245.235 18.7284C245.029 18.9869 244.817 19.2764 244.6 19.5968C244.207 20.2068 243.948 20.8581 243.824 21.5507C243.7 22.233 243.638 22.9256 243.638 23.6286C243.638 24.435 243.716 25.2413 243.871 26.0477C244.036 26.8437 244.352 27.6191 244.817 28.3737C244.941 28.5908 245.117 28.8183 245.344 29.056C245.571 29.2835 245.82 29.4954 246.088 29.6918C246.357 29.8779 246.631 30.0381 246.91 30.1725C247.2 30.2966 247.468 30.3586 247.717 30.3586C248.202 30.3586 248.626 30.2759 248.988 30.1105C249.36 29.9451 249.691 29.728 249.981 29.4592C250.27 29.1801 250.523 28.8648 250.74 28.5133C250.968 28.1515 251.185 27.7793 251.392 27.3968C251.65 26.8902 251.836 26.3475 251.95 25.7686C252.074 25.1793 252.136 24.5435 252.136 23.8612C252.136 23.3753 252.1 22.9205 252.027 22.4966C251.965 22.0728 251.862 21.6644 251.717 21.2716C251.583 20.8787 251.412 20.4962 251.206 20.1241C250.999 19.7416 250.756 19.3539 250.477 18.961C250.198 18.5372 249.841 18.1909 249.407 17.9221C248.983 17.643 248.507 17.5034 247.98 17.5034Z" fill="#474752"/>
<path d="M258.339 31.0254C258.235 31.0254 258.122 31.0202 257.998 31.0099C257.874 30.9996 257.755 30.9789 257.641 30.9479C257.538 30.9065 257.45 30.8497 257.377 30.7773C257.305 30.7049 257.269 30.6067 257.269 30.4827C257.269 30.3896 257.274 30.3069 257.284 30.2345C257.305 30.1622 257.362 30.1053 257.455 30.064C257.786 30.0123 258.06 29.9761 258.277 29.9554C258.504 29.9347 258.695 29.8882 258.85 29.8159C259.006 29.7435 259.13 29.6194 259.223 29.4437C259.326 29.2576 259.414 28.9785 259.486 28.6063C259.486 27.7276 259.491 26.823 259.502 25.8926C259.522 24.9622 259.553 24.0628 259.595 23.1944C259.615 22.5638 259.667 21.9539 259.75 21.3646C259.843 20.765 259.889 20.1499 259.889 19.5193C259.889 19.4056 259.884 19.3229 259.874 19.2712C259.864 19.2195 259.833 19.1213 259.781 18.9766C259.75 18.9249 259.688 18.8318 259.595 18.6974C259.502 18.5527 259.398 18.408 259.285 18.2632C259.171 18.1082 259.057 17.9634 258.944 17.829C258.84 17.6843 258.763 17.5861 258.711 17.5344C258.608 17.4104 258.458 17.3121 258.261 17.2398C258.065 17.1571 257.868 17.0795 257.672 17.0072C257.486 16.9245 257.32 16.8366 257.176 16.7436C257.041 16.6402 256.974 16.5006 256.974 16.3249C256.974 16.2318 257.005 16.1595 257.067 16.1078C257.14 16.0458 257.222 15.9992 257.315 15.9682C257.419 15.9372 257.517 15.9165 257.61 15.9062C257.713 15.8959 257.796 15.8907 257.858 15.8907C257.879 15.8907 257.92 15.8959 257.982 15.9062C258.044 15.9165 258.111 15.932 258.184 15.9527C258.256 15.963 258.323 15.9734 258.385 15.9837C258.447 15.9941 258.494 15.9992 258.525 15.9992H260.169C260.22 16.0199 260.303 16.0664 260.417 16.1388C260.53 16.2008 260.608 16.2525 260.649 16.2939C261.435 17.1519 262.205 17.9944 262.96 18.8215C263.714 19.6485 264.459 20.4652 265.193 21.2716C265.937 22.0779 266.676 22.8791 267.41 23.6751C268.155 24.4712 268.904 25.2775 269.659 26.0942C269.71 26.1459 269.757 26.1924 269.798 26.2338C269.84 26.2648 269.881 26.2958 269.922 26.3268C269.964 26.3475 270 26.3578 270.031 26.3578C270.124 26.3578 270.196 26.3165 270.248 26.2338C270.3 26.1407 270.326 26.0839 270.326 26.0632V20.9924C270.326 20.6306 270.315 20.2636 270.295 19.8915C270.284 19.5193 270.264 19.173 270.233 18.8525C270.202 18.5217 270.16 18.2271 270.108 17.9686C270.057 17.7102 269.995 17.5189 269.922 17.3948C269.778 17.1571 269.555 16.9917 269.256 16.8986C268.956 16.8056 268.656 16.7384 268.356 16.697C268.056 16.6454 267.793 16.5937 267.565 16.542C267.348 16.4903 267.24 16.3921 267.24 16.2473C267.24 15.9579 267.41 15.8131 267.751 15.8131H273.629C273.825 15.8131 273.923 15.932 273.923 16.1698C273.923 16.2732 273.809 16.3611 273.582 16.4334C273.355 16.4955 273.096 16.5782 272.807 16.6815C272.517 16.7849 272.233 16.9193 271.954 17.0847C271.685 17.2501 271.504 17.4776 271.411 17.767C271.297 18.0255 271.22 18.3046 271.178 18.6044C271.137 18.9042 271.116 19.3177 271.116 19.8449V30.6998C271.116 30.7928 271.08 30.8703 271.008 30.9324C270.936 30.9944 270.879 31.0254 270.837 31.0254C270.703 31.0254 270.553 30.9272 270.388 30.7308C270.346 30.6791 270.212 30.5292 269.984 30.2811C269.767 30.033 269.483 29.7177 269.132 29.3351C268.78 28.9526 268.377 28.5185 267.922 28.0326C267.467 27.5467 266.992 27.035 266.495 26.4974C265.999 25.9598 265.493 25.4119 264.976 24.8537C264.459 24.2954 263.963 23.7578 263.487 23.2409C263.011 22.724 262.562 22.2433 262.138 21.7988C261.724 21.3439 261.373 20.9563 261.083 20.6358C260.98 20.5531 260.887 20.5117 260.804 20.5117C260.639 20.5117 260.536 20.6151 260.494 20.8219C260.453 21.0286 260.432 21.2457 260.432 21.4732C260.432 21.5765 260.432 21.7316 260.432 21.9384C260.443 22.1348 260.453 22.3674 260.463 22.6362C260.474 22.8946 260.484 23.1737 260.494 23.4735C260.515 23.763 260.53 24.0473 260.541 24.3264C260.551 24.5952 260.556 24.8433 260.556 25.0708C260.567 25.2982 260.572 25.4791 260.572 25.6135V26.3578C260.572 26.5956 260.572 26.8644 260.572 27.1642C260.582 27.464 260.598 27.7586 260.618 28.0481C260.649 28.3375 260.685 28.6012 260.727 28.8389C260.778 29.0767 260.851 29.2576 260.944 29.3817C261.047 29.5471 261.182 29.666 261.347 29.7383C261.512 29.8107 261.688 29.8624 261.874 29.8934C262.06 29.9141 262.246 29.9296 262.433 29.9399C262.629 29.9399 262.8 29.9554 262.944 29.9864C263.099 30.0175 263.223 30.0795 263.316 30.1725C263.409 30.2552 263.456 30.3896 263.456 30.5757C263.456 30.6687 263.446 30.7463 263.425 30.8083C263.415 30.86 263.358 30.9324 263.254 31.0254H258.339Z" fill="#474752"/>
<path d="M34.0974 29.6429L48.5617 26.4286V32.8571H32.4902V27.478C35.7833 26.0589 38.1152 22.5264 38.1152 18.3929C38.1152 13.0089 34.1584 8.7934 29.2759 8.7934C24.3934 8.7934 20.4367 13.0073 20.4367 18.3929C20.4367 22.5264 22.7686 26.0589 26.0617 27.478V32.8571H9.99023V26.4286L24.4545 29.6429V28.8248C19.7424 27.1566 16.4188 23.1146 16.4188 18.3929C16.4188 12.1796 22.1756 7.14286 29.2759 7.14286C36.3763 7.14286 42.1331 12.1796 42.1331 18.3929C42.1331 23.1146 38.8095 27.155 34.0974 28.8248V29.6429Z" fill="#474752"/>
</svg>
