<svg width="116" height="20" viewBox="0 0 116 20" fill="none" xmlns="http://www.w3.org/2000/svg">
<path d="M8.70599 2.20717C9.28551 1.2187 10.7145 1.2187 11.294 2.20717L12.9128 4.9684C13.1243 5.32913 13.4768 5.58521 13.8852 5.67487L17.0115 6.36121C18.1307 6.60691 18.5723 7.96595 17.8113 8.82256L15.6855 11.2154C15.4077 11.528 15.2731 11.9424 15.314 12.3585L15.6274 15.5439C15.7396 16.6843 14.5835 17.5242 13.5336 17.0651L10.601 15.7828C10.2178 15.6153 9.78217 15.6152 9.39904 15.7828L6.46637 17.0651C5.41652 17.5242 4.26044 16.6843 4.37262 15.5439L4.68596 12.3585C4.72689 11.9424 4.59227 11.528 4.31455 11.2154L2.18871 8.82256C1.4277 7.96595 1.86928 6.60691 2.98845 6.36121L6.11479 5.67487C6.52321 5.58521 6.87567 5.32913 7.08715 4.9684L8.70599 2.20717Z" fill="#FFCE22"/>
<path d="M32.706 2.20717C33.2855 1.2187 34.7145 1.2187 35.294 2.20717L36.9128 4.9684C37.1243 5.32913 37.4768 5.58521 37.8852 5.67487L41.0115 6.36121C42.1307 6.60691 42.5723 7.96595 41.8113 8.82256L39.6855 11.2154C39.4077 11.528 39.2731 11.9424 39.314 12.3585L39.6274 15.5439C39.7396 16.6843 38.5835 17.5242 37.5336 17.0651L34.601 15.7828C34.2178 15.6153 33.7822 15.6152 33.399 15.7828L30.4664 17.0651C29.4165 17.5242 28.2604 16.6843 28.3726 15.5439L28.686 12.3585C28.7269 11.9424 28.5923 11.528 28.3145 11.2154L26.1887 8.82256C25.4277 7.96595 25.8693 6.60691 26.9885 6.36121L30.1148 5.67487C30.5232 5.58521 30.8757 5.32913 31.0872 4.9684L32.706 2.20717Z" fill="#FFCE22"/>
<path d="M56.706 2.20717C57.2855 1.2187 58.7145 1.2187 59.294 2.20717L60.9128 4.9684C61.1243 5.32913 61.4768 5.58521 61.8852 5.67487L65.0115 6.36121C66.1307 6.60691 66.5723 7.96595 65.8113 8.82256L63.6855 11.2154C63.4077 11.528 63.2731 11.9424 63.314 12.3585L63.6274 15.5439C63.7396 16.6843 62.5835 17.5242 61.5336 17.0651L58.601 15.7828C58.2178 15.6153 57.7822 15.6152 57.399 15.7828L54.4664 17.0651C53.4165 17.5242 52.2604 16.6843 52.3726 15.5439L52.686 12.3585C52.7269 11.9424 52.5923 11.528 52.3145 11.2154L50.1887 8.82256C49.4277 7.96595 49.8693 6.60691 50.9885 6.36121L54.1148 5.67487C54.5232 5.58521 54.8757 5.32913 55.0872 4.9684L56.706 2.20717Z" fill="#FFCE22"/>
<path d="M80.706 2.20717C81.2855 1.2187 82.7145 1.2187 83.294 2.20717L84.9128 4.9684C85.1243 5.32913 85.4768 5.58521 85.8852 5.67487L89.0115 6.36121C90.1307 6.60691 90.5723 7.96595 89.8113 8.82256L87.6855 11.2154C87.4077 11.528 87.2731 11.9424 87.314 12.3585L87.6274 15.5439C87.7396 16.6843 86.5835 17.5242 85.5336 17.0651L82.601 15.7828C82.2178 15.6153 81.7822 15.6152 81.399 15.7828L78.4664 17.0651C77.4165 17.5242 76.2604 16.6843 76.3726 15.5439L76.686 12.3585C76.7269 11.9424 76.5923 11.528 76.3145 11.2154L74.1887 8.82256C73.4277 7.96595 73.8693 6.60691 74.9885 6.36121L78.1148 5.67487C78.5232 5.58521 78.8757 5.32913 79.0872 4.9684L80.706 2.20717Z" fill="#FFCE22"/>
<path d="M104.706 2.20717C105.286 1.2187 106.714 1.2187 107.294 2.20717L108.913 4.9684C109.124 5.32913 109.477 5.58521 109.885 5.67487L113.012 6.36121C114.131 6.60691 114.572 7.96595 113.811 8.82256L111.685 11.2154C111.408 11.528 111.273 11.9424 111.314 12.3585L111.627 15.5439C111.74 16.6843 110.583 17.5242 109.534 17.0651L106.601 15.7828C106.218 15.6153 105.782 15.6152 105.399 15.7828L102.466 17.0651C101.417 17.5242 100.26 16.6843 100.373 15.5439L100.686 12.3585C100.727 11.9424 100.592 11.528 100.315 11.2154L98.1887 8.82256C97.4277 7.96595 97.8693 6.60691 98.9885 6.36121L102.115 5.67487C102.523 5.58521 102.876 5.32913 103.087 4.9684L104.706 2.20717Z" fill="#FFCE22"/>
</svg>
