<svg width="53" height="52" viewBox="0 0 53 52" fill="none" xmlns="http://www.w3.org/2000/svg">
<rect x="1" y="0.5" width="51" height="51" rx="25.5" fill="#1C1C21"/>
<rect x="1" y="0.5" width="51" height="51" rx="25.5" stroke="url(#paint0_linear_163_8442)"/>
<g clip-path="url(#clip0_163_8442)">
<path d="M23.1626 33.3125C29.9534 33.3125 33.6687 27.6851 33.6687 22.8065C33.6687 22.6483 33.6652 22.4865 33.6582 22.3283C34.3809 21.8057 35.0046 21.1583 35.5 20.4165C34.8269 20.716 34.1122 20.9116 33.3804 20.9966C34.151 20.5347 34.7279 19.8092 35.0043 18.9544C34.2794 19.384 33.4867 19.687 32.6601 19.8505C32.1031 19.2587 31.3667 18.8669 30.5648 18.7356C29.7628 18.6043 28.9399 18.7408 28.2233 19.1241C27.5067 19.5074 26.9363 20.1161 26.6004 20.856C26.2644 21.596 26.1816 22.426 26.3646 23.2178C24.8969 23.1441 23.461 22.7628 22.15 22.0986C20.839 21.4344 19.6823 20.5021 18.7547 19.3622C18.2833 20.175 18.139 21.1368 18.3513 22.0521C18.5635 22.9675 19.1163 23.7676 19.8973 24.2901C19.311 24.2714 18.7375 24.1136 18.2242 23.8295V23.8752C18.2237 24.7282 18.5186 25.555 19.0587 26.2151C19.5989 26.8753 20.351 27.328 21.1872 27.4963C20.644 27.6449 20.074 27.6666 19.5211 27.5596C19.7571 28.2931 20.2162 28.9347 20.8343 29.3948C21.4525 29.8549 22.1988 30.1105 22.9693 30.126C21.6613 31.1534 20.0456 31.7107 18.3824 31.708C18.0875 31.7076 17.7928 31.6895 17.5 31.6539C19.1896 32.7379 21.1551 33.3136 23.1626 33.3125Z" fill="white"/>
</g>
<defs>
<linearGradient id="paint0_linear_163_8442" x1="26.5" y1="0.999994" x2="26.5" y2="51" gradientUnits="userSpaceOnUse">
<stop offset="0.278527" stop-color="#2F2F37"/>
<stop offset="1" stop-color="#2F2F37" stop-opacity="0"/>
</linearGradient>
<clipPath id="clip0_163_8442">
<rect width="18" height="18" fill="white" transform="translate(17.5 17)"/>
</clipPath>
</defs>
</svg>
